<svg width="24" height="27" viewBox="0 0 24 27" fill="none" xmlns="http://www.w3.org/2000/svg">
<path d="M10.4339 26.188C10.1321 26.1067 9.82161 26.0499 9.53058 25.9399C8.1864 25.4315 7.32301 24.4781 6.94349 23.0894C6.93019 23.0403 6.91332 22.9918 6.88928 22.915C6.80437 22.915 6.71435 22.915 6.62382 22.915C5.0464 22.9145 3.4695 22.9227 1.89208 22.9115C0.792392 22.9038 -0.0587167 21.9887 0.00317285 20.8947C0.0338619 20.3494 0.27119 19.9003 0.683445 19.5408C2.39385 18.0483 3.25007 16.1619 3.27002 13.896C3.27871 12.9329 3.27053 11.9698 3.27155 11.0062C3.27616 7.08973 6.01208 3.91393 9.88657 3.34721C10.331 3.28225 10.7878 3.27867 11.2379 3.28583C11.7208 3.2935 12.0461 3.56357 12.1172 3.95485C12.2169 4.50316 11.8016 4.95122 11.22 4.92053C10.1403 4.86427 9.10912 5.06579 8.16236 5.58495C6.08522 6.72351 4.98758 8.48813 4.91341 10.8604C4.88221 11.8655 4.91444 12.8721 4.90677 13.8776C4.88528 16.6095 3.86129 18.8927 1.82712 20.7197C1.71153 20.8236 1.57956 20.9197 1.65833 21.1044C1.73301 21.2783 1.88748 21.2798 2.04706 21.2798C7.95521 21.2788 13.8634 21.2798 19.7715 21.2716C19.9009 21.2716 20.0758 21.198 20.15 21.0993C20.2671 20.9422 20.1106 20.8246 19.995 20.7213C18.2038 19.1255 17.1767 17.1342 16.9563 14.7461C16.8939 14.0694 16.9184 13.3835 16.9266 12.7022C16.9312 12.3064 17.2514 11.9974 17.6396 11.9606C18.0621 11.9207 18.4314 12.1683 18.5184 12.5723C18.5537 12.7365 18.5537 12.9104 18.5531 13.0802C18.5501 13.9753 18.5414 14.8689 18.7716 15.7461C19.1639 17.2401 19.9321 18.4999 21.1003 19.5101C21.7525 20.0743 21.9878 20.8752 21.709 21.6501C21.4323 22.4194 20.727 22.912 19.8764 22.914C18.3076 22.9181 16.7389 22.9176 15.1702 22.912C14.9912 22.9115 14.917 22.9529 14.8597 23.1426C14.3518 24.8234 13.2332 25.832 11.4967 26.1435C11.4481 26.1522 11.4011 26.1732 11.3535 26.1885C11.0476 26.188 10.7407 26.188 10.4339 26.188ZM8.62832 22.9263C8.87179 23.8623 9.92544 24.5779 10.9924 24.5487C11.9872 24.5216 13.0225 23.7605 13.1846 22.9263C11.6706 22.9263 10.1582 22.9263 8.62832 22.9263Z" fill="#FEFEFE"/>
<path d="M19.079 0C19.3936 0.0675158 19.7118 0.120198 20.0212 0.205616C22.5408 0.902256 24.1652 3.25304 23.9867 5.93525C23.8231 8.39396 21.816 10.5033 19.3082 10.8537C16.3585 11.2654 13.6496 9.26194 13.1571 6.30455C12.6768 3.4208 14.6634 0.619918 17.561 0.0941128C17.7098 0.0670042 17.8566 0.031712 18.0044 0C18.363 0 18.721 0 19.079 0ZM22.3648 5.45548C22.3638 3.34101 20.658 1.63624 18.544 1.63675C16.4393 1.63726 14.7273 3.35738 14.7309 5.46776C14.7345 7.56382 16.4403 9.26552 18.543 9.27013C20.6575 9.27473 22.3658 7.56944 22.3648 5.45548Z" fill="#FEFEFE"/>
</svg>
