<svg width="16" height="17" viewBox="0 0 16 17" fill="none" xmlns="http://www.w3.org/2000/svg">
<path d="M0.70459 6.41992C5.57389 6.41992 10.4297 6.41992 15.2942 6.41992C15.2942 8.96693 15.2942 11.5065 15.2942 14.0562C14.1398 14.0562 12.9915 14.0562 11.8219 14.0562C11.8219 13.9836 11.8219 13.9201 11.8219 13.8567C11.8219 11.9986 11.8219 10.1405 11.8219 8.28236C11.8219 7.90596 11.7236 7.80643 11.3525 7.80643C9.11927 7.80643 6.88564 7.80643 4.65245 7.80643C4.27083 7.80643 4.17521 7.90336 4.17521 8.29106C4.17521 10.1435 4.17521 11.9964 4.17521 13.8488C4.17521 13.9127 4.17521 13.9771 4.17521 14.0536C3.01124 14.0536 1.86291 14.0536 0.70459 14.0536C0.70459 11.5113 0.70459 8.97171 0.70459 6.41992Z" fill="#FEFEFE"/>
<path d="M5.21847 3.97551C5.21847 3.89771 5.21847 3.83946 5.21847 3.78122C5.21847 2.94975 5.21803 2.11871 5.2189 1.28724C5.21934 0.770887 5.48534 0.504016 6.00083 0.503582C7.33214 0.502712 8.66388 0.502712 9.99519 0.503582C10.5107 0.504016 10.7775 0.770887 10.7784 1.28594C10.7793 2.11741 10.7789 2.94845 10.7789 3.77992C10.7789 3.83859 10.7789 3.89684 10.7789 3.97551C10.8601 3.97551 10.9236 3.97551 10.987 3.97551C12.3836 3.97551 13.7805 3.98463 15.177 3.97029C15.6586 3.96551 16.0385 4.25889 15.9967 4.79263C15.9915 4.8574 15.9967 4.92303 15.9959 4.98822C15.9889 5.42591 15.7086 5.7093 15.2704 5.71886C15.1183 5.72234 14.9662 5.71973 14.8141 5.71973C10.1512 5.71973 5.48838 5.72103 0.825537 5.71495C0.658634 5.71495 0.478258 5.67322 0.328306 5.60107C0.120981 5.5011 0.0179712 5.30377 0.0053666 5.06994C-0.000718394 4.95606 0.00101943 4.84175 0.00188872 4.72787C0.00536586 4.26063 0.286145 3.97725 0.754255 3.97594C1.67831 3.97377 2.60192 3.97507 3.52597 3.97507C4.02581 3.97507 4.52608 3.97507 5.02592 3.97507C5.08373 3.97551 5.14154 3.97551 5.21847 3.97551ZM8.34746 3.28269C8.56391 3.28269 8.75863 3.28312 8.95292 3.28269C9.22761 3.28182 9.39104 3.15055 9.38974 2.9328C9.38843 2.71678 9.22718 2.59117 8.94814 2.58987C8.75429 2.589 8.56044 2.58987 8.34877 2.58987C8.34877 2.35429 8.35355 2.13827 8.34746 1.92269C8.34051 1.67538 8.17839 1.52716 7.95411 1.5515C7.77287 1.57106 7.65377 1.7145 7.64943 1.93051C7.64508 2.14523 7.64856 2.36037 7.64856 2.5903C7.4195 2.5903 7.21435 2.58682 7.0092 2.59204C6.93531 2.59421 6.85533 2.60464 6.7897 2.63507C6.65279 2.69853 6.58629 2.85761 6.61802 3.00408C6.65366 3.16794 6.7771 3.27573 6.95356 3.28051C7.18001 3.2866 7.40646 3.28182 7.64812 3.28182C7.64812 3.49436 7.64595 3.68864 7.64943 3.88249C7.65073 3.95247 7.65464 4.02506 7.67463 4.09112C7.72158 4.24716 7.88326 4.34408 8.04278 4.32235C8.21533 4.29888 8.33833 4.16718 8.34572 3.9729C8.35398 3.75123 8.34746 3.52869 8.34746 3.28269Z" fill="#FEFEFE"/>
<path d="M8.00639 14.7588C10.5108 14.7588 13.0157 14.7588 15.5201 14.7588C15.8926 14.7588 15.9969 14.861 15.9947 15.2313C15.9938 15.3778 16.0008 15.5277 15.9721 15.6694C15.8756 16.1449 15.4757 16.4735 14.9902 16.4931C14.9416 16.4952 14.8924 16.4952 14.8438 16.4952C10.28 16.4952 5.7167 16.4944 1.15295 16.4974C0.847396 16.4974 0.571399 16.437 0.341907 16.2249C0.133279 16.0319 0.0137512 15.7955 0.00418907 15.509C-0.000157359 15.3734 -0.002331 15.2374 0.003754 15.1018C0.0124469 14.9005 0.144578 14.7723 0.345818 14.7606C0.400148 14.7575 0.454478 14.7593 0.508809 14.7593C3.00844 14.7588 5.5072 14.7588 8.00639 14.7588Z" fill="#FEFEFE"/>
<path d="M4.87842 8.50488C5.80247 8.50488 6.71391 8.50488 7.63666 8.50488C7.63666 10.3552 7.63666 12.1989 7.63666 14.0544C6.71913 14.0544 5.80421 14.0544 4.87842 14.0544C4.87842 12.2067 4.87842 10.363 4.87842 8.50488Z" fill="#FEFEFE"/>
<path d="M8.35547 14.0541C8.35547 12.2008 8.35547 10.3605 8.35547 8.50977C9.27604 8.50977 10.1914 8.50977 11.1181 8.50977C11.1181 10.3535 11.1181 12.1977 11.1181 14.0541C10.2044 14.0541 9.28952 14.0541 8.35547 14.0541Z" fill="#FEFEFE"/>
</svg>
