<svg width="18" height="19" viewBox="0 0 18 19" fill="none" xmlns="http://www.w3.org/2000/svg">
<path d="M4.52941 12.0459C4.98597 13.6797 6.9122 14.7988 8.82919 13.6797C8.72429 14.7021 8.89061 15.6647 9.3738 16.5631C9.85373 17.455 10.5532 18.1273 11.4452 18.6334C11.3886 18.6334 11.3321 18.6334 11.2756 18.6334C7.68835 18.6334 4.10112 18.6334 0.51389 18.6334C0.248652 18.6334 0.164949 18.5844 0.0845081 18.3246C0.0372219 18.1719 0.00950391 18.0067 0.00787336 17.8463C0.000264082 17.0653 0.0187435 16.2832 0.000807336 15.5027C-0.0198464 14.6026 0.356268 13.9205 1.07317 13.4036C1.70963 12.9443 2.43523 12.6775 3.17333 12.4416C3.61739 12.3003 4.06796 12.1796 4.52941 12.0459Z" fill="#FEFEFE"/>
<path d="M17.9999 14.284C18.0021 16.67 16.0427 18.6327 13.6594 18.6321C11.219 18.6316 9.28841 16.6885 9.29004 14.235C9.29167 11.8696 11.2614 9.91189 13.6371 9.91406C16.0492 9.91569 17.9983 11.868 17.9999 14.284ZM14.4758 15.2906C14.5002 15.2656 14.5051 15.2563 14.5095 15.2563C14.91 15.2536 15.3106 15.2531 15.7106 15.2493C15.9884 15.2465 16.1036 15.1302 16.1052 14.8498C16.1074 14.5307 16.1063 14.2117 16.1058 13.8926C16.1047 13.5611 15.9998 13.4573 15.6661 13.4567C15.2747 13.4562 14.8829 13.4567 14.4758 13.4567C14.4758 13.0279 14.4779 12.6219 14.4752 12.2159C14.4736 11.9479 14.3562 11.8294 14.0909 11.8267C13.7855 11.824 13.48 11.8256 13.1746 11.8262C12.7697 11.8262 12.6827 11.912 12.6821 12.3115C12.6821 12.6893 12.6821 13.0665 12.6821 13.4567C12.2359 13.4567 11.8158 13.4546 11.3956 13.4573C11.1299 13.4589 11.0141 13.5779 11.0114 13.8453C11.0086 14.0829 11.0108 14.3204 11.0108 14.5584C11.0108 15.2395 11.0211 15.2503 11.7044 15.2503C12.0272 15.2503 12.3501 15.2503 12.6821 15.2503C12.6821 15.6939 12.6805 16.1075 12.6827 16.5211C12.6843 16.8021 12.799 16.9189 13.0762 16.9211C13.3952 16.9238 13.7143 16.9222 14.0333 16.9217C14.3687 16.9211 14.4747 16.8168 14.4752 16.4874C14.4763 16.0808 14.4758 15.6754 14.4758 15.2906Z" fill="#FEFEFE"/>
<path d="M7.60227 4.36755C8.43277 4.50071 9.11869 4.31428 9.55948 3.54249C9.57796 3.54466 9.59699 3.54738 9.61547 3.54955C9.72471 3.88871 9.86059 4.22189 9.93669 4.56865C10.0454 5.06488 10.1035 5.57144 10.1992 6.07094C10.2182 6.1704 10.2883 6.3052 10.3677 6.33455C10.4416 6.36172 10.5601 6.2715 10.6579 6.23128C10.7465 6.19486 10.8465 6.10953 10.9177 6.13018C10.9917 6.15138 11.0612 6.26552 11.0879 6.35248C11.1161 6.44434 11.1091 6.55684 11.0868 6.65359C11.0031 7.02155 10.8558 7.36289 10.6117 7.6553C10.4563 7.84173 10.2796 7.99065 10.0188 8.00968C9.87146 8.02055 9.80244 8.11783 9.78124 8.26839C9.74863 8.50264 9.71547 8.74071 9.64753 8.96627C9.30403 10.1033 8.39309 10.7202 7.15332 10.6691C5.79507 10.6131 4.92163 9.81851 4.72923 8.4646C4.71944 8.3972 4.70423 8.33089 4.69988 8.26295C4.69009 8.10968 4.60802 8.01783 4.46018 8.00859C4.23082 7.99446 4.06559 7.87216 3.9221 7.71291C3.64219 7.40311 3.47805 7.03297 3.39217 6.62859C3.37152 6.53184 3.37478 6.4226 3.3976 6.32639C3.44652 6.1204 3.61284 6.06496 3.78296 6.19214C3.8884 6.27041 4.00689 6.38618 4.12157 6.27802C4.21288 6.19214 4.27321 6.04159 4.28843 5.91332C4.34115 5.46981 4.34768 5.02032 4.41344 4.57898C4.44768 4.35016 4.55041 4.12514 4.65694 3.91588C4.72488 3.78218 4.83902 3.65826 4.96131 3.56858C5.28307 3.33269 5.42058 3.38541 5.56027 3.75392C5.64669 3.98165 5.7293 4.21373 5.8429 4.42788C6.14129 4.9926 6.62502 5.27849 7.25876 5.30295C7.46095 5.31056 7.66749 5.3024 7.86696 5.27088C8.0985 5.23446 8.16101 5.02303 8.00393 4.84748C7.87729 4.70616 7.74359 4.57083 7.61423 4.43168C7.60716 4.42353 7.60933 4.40668 7.60227 4.36755Z" fill="#FEFEFE"/>
<path d="M10.4125 4.3933C10.3581 4.21937 10.3233 4.03675 10.2456 3.87424C10.0945 3.55845 9.93035 3.24702 9.75099 2.94645C9.63576 2.7535 9.42922 2.77415 9.31454 2.97091C9.22921 3.11711 9.15475 3.27039 9.06235 3.4117C8.83625 3.75684 8.51013 3.92533 8.09814 3.91337C7.84758 3.90631 7.59702 3.87804 7.34646 3.86934C6.98665 3.85684 6.83609 4.09599 7.0035 4.41667C7.07198 4.54711 7.16383 4.66506 7.24591 4.78952C6.89371 4.82105 6.5165 4.62429 6.31594 4.26394C6.1855 4.0286 6.08984 3.77205 5.99799 3.51823C5.80612 2.98993 5.59578 2.75785 4.85768 3.06385C4.49352 3.21495 4.27231 3.52149 4.12502 3.87478C4.02664 4.11067 3.95924 4.35906 3.85869 4.65908C3.81793 4.44711 3.77336 4.28351 3.75705 4.11719C3.52823 1.73766 5.74688 0.125584 7.71714 0.395713C8.33512 0.480502 8.89821 0.687038 9.40368 1.05337C10.0184 1.49906 10.4125 2.08062 10.4516 2.85296C10.4777 3.36605 10.4565 3.8813 10.4565 4.39547C10.4423 4.39493 10.4271 4.39438 10.4125 4.3933Z" fill="#FEFEFE"/>
<path d="M5.03049 11.8993C5.38704 11.8852 5.4539 11.5803 5.58054 11.3319C5.65718 11.1813 5.72892 11.0286 5.80719 10.8672C6.75726 11.2542 7.70189 11.2569 8.66066 10.8791C8.72969 11.0748 8.80741 11.2553 8.85633 11.4433C8.92862 11.72 9.05689 11.9287 9.36398 11.9526C9.24766 12.2423 9.14005 12.5124 9.02917 12.7815C9.01178 12.8239 8.98243 12.8641 8.95036 12.8983C8.32531 13.5614 7.54971 13.7745 6.68334 13.5679C5.84034 13.3668 5.29519 12.8086 5.03049 11.9814C5.0256 11.9629 5.03049 11.9417 5.03049 11.8993Z" fill="#FEFEFE"/>
<path d="M13.9867 16.4228C13.7117 16.4228 13.4562 16.4228 13.1714 16.4228C13.1714 16.0869 13.1714 15.751 13.1714 15.4146C13.1714 14.7879 13.1448 14.7613 12.5214 14.7613C12.1898 14.7613 11.8583 14.7613 11.5137 14.7613C11.5137 14.4884 11.5137 14.2286 11.5137 13.946C11.9219 13.946 12.3268 13.9465 12.7317 13.946C13.0649 13.9454 13.1703 13.8405 13.1709 13.5095C13.1719 13.1182 13.1709 12.7263 13.1709 12.3252C13.4464 12.3252 13.7013 12.3252 13.9861 12.3252C13.9861 12.6274 13.9861 12.9296 13.9861 13.2323C13.9861 13.341 13.9845 13.4497 13.9867 13.5579C13.991 13.8242 14.1068 13.9433 14.372 13.9454C14.778 13.9481 15.1841 13.946 15.6037 13.946C15.6037 14.2188 15.6037 14.4792 15.6037 14.7613C15.208 14.7613 14.8166 14.7607 14.4253 14.7613C14.091 14.7618 13.9872 14.8656 13.9867 15.1972C13.9861 15.6026 13.9867 16.0081 13.9867 16.4228Z" fill="#FEFEFE"/>
</svg>
