<svg width="82" height="82" viewBox="0 0 82 82" fill="none" xmlns="http://www.w3.org/2000/svg">
<path d="M34.5938 16.6562V17.9375H47.4062V16.6562C47.4062 14.9572 46.7313 13.3278 45.5299 12.1263C44.3285 10.9249 42.699 10.25 41 10.25C39.301 10.25 37.6715 10.9249 36.4701 12.1263C35.2687 13.3278 34.5938 14.9572 34.5938 16.6562ZM29.4688 17.9375V16.6562C29.4688 13.598 30.6836 10.665 32.8462 8.50242C35.0087 6.3399 37.9417 5.125 41 5.125C44.0583 5.125 46.9913 6.3399 49.1538 8.50242C51.3164 10.665 52.5312 13.598 52.5312 16.6562V17.9375H71.75C72.4296 17.9375 73.0814 18.2075 73.562 18.688C74.0425 19.1686 74.3125 19.8204 74.3125 20.5C74.3125 21.1796 74.0425 21.8314 73.562 22.312C73.0814 22.7925 72.4296 23.0625 71.75 23.0625H67.8857L63.0375 65.518C62.68 68.6447 61.1842 71.5305 58.8354 73.6251C56.4865 75.7197 53.449 76.8765 50.3019 76.875H31.6981C28.551 76.8765 25.5135 75.7197 23.1646 73.6251C20.8158 71.5305 19.32 68.6447 18.9625 65.518L14.1142 23.0625H10.25C9.57038 23.0625 8.9186 22.7925 8.43804 22.312C7.95748 21.8314 7.6875 21.1796 7.6875 20.5C7.6875 19.8204 7.95748 19.1686 8.43804 18.688C8.9186 18.2075 9.57038 17.9375 10.25 17.9375H29.4688ZM35.875 34.5938C35.875 33.9141 35.605 33.2624 35.1245 32.7818C34.6439 32.3012 33.9921 32.0312 33.3125 32.0312C32.6329 32.0312 31.9811 32.3012 31.5005 32.7818C31.02 33.2624 30.75 33.9141 30.75 34.5938V60.2188C30.75 60.8984 31.02 61.5502 31.5005 62.0307C31.9811 62.5113 32.6329 62.7812 33.3125 62.7812C33.9921 62.7812 34.6439 62.5113 35.1245 62.0307C35.605 61.5502 35.875 60.8984 35.875 60.2188V34.5938ZM48.6875 32.0312C48.0079 32.0312 47.3561 32.3012 46.8755 32.7818C46.395 33.2624 46.125 33.9141 46.125 34.5938V60.2188C46.125 60.8984 46.395 61.5502 46.8755 62.0307C47.3561 62.5113 48.0079 62.7812 48.6875 62.7812C49.3671 62.7812 50.0189 62.5113 50.4995 62.0307C50.98 61.5502 51.25 60.8984 51.25 60.2188V34.5938C51.25 33.9141 50.98 33.2624 50.4995 32.7818C50.0189 32.3012 49.3671 32.0312 48.6875 32.0312Z" fill="#FF0000"/>
</svg>
