<svg width="650" height="650" viewBox="0 0 650 650" fill="none" xmlns="http://www.w3.org/2000/svg">
<path d="M330.168 556.832C241.712 556.832 155.054 525.563 87.4837 454.67C93.5233 455.884 102.155 456.207 109.999 456.207C116.071 456.207 121.672 456.013 125.226 455.89C125.769 455.872 126.531 455.843 127.481 455.78C130.71 455.568 140.442 454.93 148.76 450.792C157.216 446.585 162.477 439.625 161.791 438.69C161.738 438.617 161.652 438.584 161.535 438.584C160.918 438.584 159.443 439.508 157.466 440.43C155.487 441.354 153.008 442.278 150.381 442.278C149.338 442.278 148.273 442.132 147.205 441.783C146.534 441.563 142.956 440.314 141.461 437.143C140.943 436.047 141.01 435.434 140.577 431.177C139.945 424.983 139.636 424.654 139.346 424.511C139.218 424.449 139.088 424.419 138.952 424.419C137.215 424.419 134.695 429.301 128.201 432.722C127.514 433.086 124.354 434.07 118.036 436.038C114.647 437.093 112.733 437.643 111.414 437.643C110.692 437.643 110.149 437.478 109.639 437.143C108.974 436.705 107.015 435.088 105.806 435.088C105.741 435.088 105.675 435.092 105.614 435.102C105.293 435.156 104.937 435.254 104.937 435.254C104.198 435.479 103.631 435.913 96.9855 438.24C90.1095 440.647 88.924 440.808 86.7869 442.163C86.2463 442.506 82.565 444.84 80.7285 447.378C59.941 424.305 41.1066 397.319 24.7324 366.139C24.7324 366.139 -73.5323 172.719 121.674 138.737C146.817 134.36 168.917 132.507 188.611 132.507C242.921 132.507 278.954 146.595 310.255 160.684C339.518 173.855 364.646 187.027 396.689 188.686L374.739 214.278C373.667 213.619 372.403 213.239 371.052 213.239C369.312 213.239 367.719 213.87 366.488 214.913C365.402 211.054 361.854 208.223 357.646 208.223C354.109 208.223 351.039 210.222 349.505 213.153C348.599 212.729 347.59 212.494 346.524 212.494C343 212.494 340.08 215.079 339.556 218.457C339.257 218.357 338.937 218.302 338.604 218.302C336.946 218.302 335.602 219.647 335.602 221.306C335.602 221.433 335.609 221.557 335.623 221.679H341.585H339.802H353.246H349.511H368.392L323.623 273.876L460.543 285.464V285.73C460.543 289.909 462.33 293.719 465.23 296.528C468.288 299.495 472.586 301.346 477.326 301.346H481.599C481.665 300.408 481.727 299.49 481.786 298.589H551.402C551.568 299.499 551.741 300.419 551.919 301.346H554.297C558.912 301.346 563.108 299.59 566.149 296.759C570.945 292.298 571.076 286.782 571.079 285.732V181.681C671.835 230.795 686.672 409.707 553.178 491.515C485.088 533.241 406.951 556.831 330.168 556.831L330.168 556.832ZM475.079 443.556H484.466C484.839 442.833 485.049 442.012 485.049 441.142C485.049 438.227 482.687 435.865 479.772 435.865C479.144 435.865 478.542 435.974 477.983 436.177C476.747 433.422 473.98 431.504 470.766 431.504C470.314 431.504 469.87 431.541 469.438 431.615C467.632 428.371 464.17 426.177 460.195 426.177C455.677 426.177 451.819 429.012 450.307 433.001C450.082 432.979 449.854 432.969 449.623 432.969C447.972 432.969 446.448 433.523 445.229 434.457C443.916 432.666 441.795 431.504 439.402 431.504C435.412 431.504 432.177 434.739 432.177 438.729C432.177 440.585 432.878 442.277 434.028 443.556H456.02H452.109H468.28H464.031H477.5H475.079ZM129.667 309.579C130.736 309.579 132.36 311.425 132.679 313.51C133.319 317.714 128.108 319.352 127.972 324.885C127.916 327.166 128.785 327.6 128.365 329.984C127.769 333.354 125.78 333.914 126.01 335.868C126.314 338.426 129.811 338.178 132.679 342.142C134.913 345.232 133.617 346.527 135.816 348.811C138.486 351.585 141.355 350.673 142.877 353.126C144.164 355.201 143.36 357.872 142.877 359.402C140.32 367.487 139.042 371.53 135.032 381.758C133.502 385.664 135.142 381.979 129.932 402.939C129.658 404.042 129.013 406.633 130.325 408.822C131.747 411.195 134.979 412.278 137.19 412.278C138.238 412.278 139.06 412.034 139.346 411.568C140.127 410.302 136.475 408.224 136.993 404.9C137.302 402.911 138.726 402.915 140.915 399.801C143.636 395.932 142.6 394.274 145.23 391.564C145.78 390.997 147.548 389.218 150.329 388.426C151.325 388.143 152.204 388.057 152.986 388.057C153.589 388.057 154.134 388.107 154.635 388.158C155.133 388.21 155.585 388.261 156.001 388.261C156.676 388.261 157.255 388.127 157.782 387.643C159.195 386.34 158.017 384.55 159.351 382.15C160.599 379.903 162.508 379.899 165.234 378.228C170.509 374.997 168.912 371.613 174.256 367.638C177.218 365.433 177.612 366.547 182.885 363.324C187.005 360.804 189.064 359.545 190.337 357.047C192.304 353.188 189.861 351.433 191.907 347.635C193.7 344.302 196.085 344.709 197.79 340.966C198.225 340.009 199.295 337.569 198.574 334.69C197.859 331.832 195.537 329.174 192.69 328.415C192.145 328.269 191.64 328.21 191.166 328.21C190.065 328.21 189.138 328.534 188.279 328.859C187.419 329.185 186.628 329.511 185.797 329.511C185.366 329.511 184.921 329.422 184.452 329.199C181.98 328.024 183.075 325.143 179.747 321.354C179.021 320.528 177.302 319.366 173.863 317.039C171.984 315.769 169.641 314.185 166.411 312.332C164.415 311.189 163.563 310.794 161.704 309.587C158.77 307.683 159.113 307.516 157.782 306.841C154.642 305.252 153.503 306.577 149.152 305.272C146.037 304.339 145.895 303.442 143.661 303.312C143.503 303.303 143.352 303.298 143.206 303.298C141.085 303.298 140.11 304.225 137.777 304.881C136.362 305.279 134.739 305.494 133.125 305.494C129.829 305.494 126.576 304.596 125.227 302.527C123.597 300.031 125.714 297.324 124.05 295.86C123.555 295.423 122.917 295.268 122.215 295.268C121.33 295.268 120.342 295.515 119.402 295.763C118.461 296.011 117.57 296.257 116.878 296.257C116.42 296.257 116.051 296.15 115.812 295.86C114.522 294.288 118.824 289.456 117.774 288.407C117.667 288.3 117.523 288.251 117.341 288.251C116.266 288.251 113.838 289.933 109.536 291.153C107.614 291.698 105.837 292.201 104.466 292.201C103.636 292.201 102.953 292.017 102.476 291.545C101.643 290.72 102.028 289.602 102.869 284.093C103.832 277.79 103.715 276.731 104.831 275.855C105.265 275.514 105.815 275.258 106.934 275.258C108.082 275.258 109.832 275.526 112.674 276.248C119.51 277.98 122.928 278.847 125.618 280.955C130.859 285.06 129.15 288.633 133.855 291.936C136.682 293.921 140.2 294.669 143.022 294.669C145.655 294.669 147.682 294.018 147.975 293.113C148.302 292.105 146.445 290.875 134.639 282.131C127.757 277.033 124.248 274.383 124.834 272.326C125.403 270.328 129.186 271.149 131.11 268.011C132.832 265.202 130.806 262.912 132.679 260.559C134.387 258.412 136.604 259.649 138.563 257.421C140.736 254.945 139.016 252.262 140.915 250.752C141.411 250.358 141.931 250.222 142.508 250.222C143.156 250.222 143.877 250.395 144.719 250.568C145.562 250.741 146.525 250.914 147.656 250.914C148.239 250.914 148.866 250.867 149.544 250.752C153.142 250.143 156.744 247.827 156.604 246.045C156.484 244.491 153.622 244.641 151.113 241.73C149.085 239.378 149.982 238.15 148.368 235.456C145.789 231.149 140.703 229.625 136.601 228.395C133.578 227.489 131.401 227.368 128.756 227.218C127.663 227.157 126.702 227.106 125.886 227.106C124.292 227.106 123.252 227.302 122.872 228.003C122.154 229.329 124.678 230.839 125.227 234.671C125.526 236.766 125.259 239.745 124.05 240.161C123.961 240.193 123.873 240.208 123.785 240.208C122.405 240.208 121.054 236.559 116.598 233.494C112.299 230.537 108.798 230.658 108.752 229.18C108.712 227.887 111.383 227.609 115.812 224.473C119.81 221.642 119.583 220.489 121.696 219.766C122.416 219.519 123.142 219.413 123.862 219.413C126.069 219.413 128.223 220.406 129.968 221.4C131.715 222.393 133.053 223.387 133.63 223.387C133.728 223.387 133.802 223.357 133.855 223.296C134.521 222.506 130.931 216.774 124.834 213.882C121.595 212.346 118.371 211.955 115.912 211.955C113.974 211.955 112.512 212.198 111.891 212.313C109.264 212.804 106.724 213.828 105.614 214.275C100.716 216.249 100.596 217.394 98.5546 217.413H98.503C94.8197 217.413 94.4333 213.619 89.1405 211.922C87.8579 211.509 86.8582 211.405 86.0029 211.405C85.5557 211.405 85.148 211.433 84.76 211.462C84.372 211.49 84.0038 211.52 83.6355 211.52C82.8017 211.52 81.9677 211.372 80.9036 210.744C77.4798 208.725 78.1185 205.532 75.0202 204.469C74.4382 204.268 73.8178 204.177 73.1894 204.177C71.2232 204.177 69.1758 205.08 67.9598 206.43C66.3973 208.164 67.2889 209.435 65.9988 210.744C65.2476 211.508 64.2881 211.744 63.2292 211.744C62.3685 211.744 61.4423 211.589 60.5078 211.433C59.5735 211.277 58.631 211.121 57.7387 211.121C56.7418 211.121 55.8076 211.314 55.016 211.922C52.0724 214.177 52.6526 220.947 54.624 221.727C54.7563 221.779 54.8929 221.804 55.033 221.804C56.0216 221.804 57.1954 220.588 58.444 219.371C59.6923 218.156 61.0157 216.939 62.3029 216.939C62.4897 216.939 62.6757 216.966 62.8608 217.02C64.3197 217.453 63.3973 220.076 65.6064 222.513C67.2188 224.29 68.368 223.753 69.921 225.256C71.9142 227.189 71.1406 229.156 72.2746 234.278C73.6827 240.638 75.6419 241.065 75.0202 244.085C74.4243 246.98 72.5736 246.833 70.3134 251.145C69.041 253.572 67.0237 257.419 68.3523 260.559C69.7141 263.775 73.2941 263.186 75.0202 266.833C76.1029 269.122 75.3872 270.821 75.4126 273.11C75.4483 276.379 76.996 280.911 83.6494 286.446C79.8133 278.289 79.679 276.517 80.1191 276.248C80.169 276.218 80.2319 276.202 80.3067 276.202C81.4253 276.202 85.1985 279.535 87.1795 284.093C88.9444 288.153 88.1968 290.679 90.7097 292.722C92.411 294.105 93.2744 293.37 95.4165 295.074C98.1588 297.257 97.9718 299.439 99.7308 299.782C99.8664 299.808 99.9974 299.821 100.125 299.821C101.016 299.821 101.716 299.219 102.445 298.616C103.173 298.013 103.93 297.412 104.932 297.412C105.025 297.412 105.124 297.416 105.222 297.429C107.525 297.689 107.484 300.712 110.322 301.743C110.847 301.933 111.337 302.008 111.803 302.008C112.646 302.008 113.403 301.764 114.117 301.519C114.829 301.274 115.499 301.03 116.166 301.03C116.57 301.03 116.972 301.118 117.381 301.351C119.318 302.446 118.24 304.916 120.519 308.41C122.06 310.776 124.652 312.862 126.457 312.862C126.719 312.862 126.964 312.818 127.187 312.725C128.636 312.122 128.424 309.752 129.541 309.587C129.582 309.581 129.624 309.579 129.667 309.579ZM593.047 399.617H602.172C602.195 399.407 602.208 399.19 602.208 398.972C602.208 396.102 600.148 393.774 597.61 393.774C597.1 393.774 596.609 393.867 596.151 394.04C595.352 388.194 590.88 383.719 585.487 383.719C583.856 383.719 582.31 384.129 580.925 384.861C578.575 379.79 573.876 376.329 568.462 376.329C562.02 376.329 556.59 381.228 554.926 387.909C553.044 386.1 550.604 385.008 547.941 385.008C543.314 385.008 539.365 388.303 537.832 392.931C536.4 391.579 534.56 390.767 532.55 390.767C529.239 390.767 526.383 392.973 525.071 396.156C524.424 395.683 523.65 395.407 522.821 395.407C520.676 395.407 518.91 397.252 518.7 399.617H526.944H524.314H540.786H537.358H580.914H575.198H595.776H593.047ZM457.332 350.847H464.449C464.468 350.637 464.477 350.421 464.477 350.202C464.477 347.332 462.871 345.004 460.89 345.004C460.493 345.004 460.111 345.098 459.753 345.271C459.13 339.425 455.643 334.95 451.434 334.95C450.163 334.95 448.957 335.36 447.877 336.092C446.045 331.02 442.378 327.56 438.154 327.56C433.131 327.56 428.894 332.458 427.596 339.14C426.129 337.332 424.226 336.24 422.148 336.24C418.537 336.24 415.459 339.534 414.262 344.162C413.146 342.809 411.71 341.997 410.144 341.997C407.56 341.997 405.332 344.204 404.309 347.387C403.804 346.913 403.201 346.637 402.554 346.637C400.881 346.637 399.503 348.482 399.34 350.847H405.77H403.72H416.566H413.894H447.868H443.41H459.46H457.332ZM131.155 196.046C128.036 196.046 126.146 196.666 125.226 197.017C121.817 198.313 116.901 201.528 117.381 204.077C118.056 207.661 128.375 204.493 136.208 211.529C140.493 215.376 140.389 219.001 146.015 222.12C148.327 223.401 151.065 224.295 152.874 224.295C153.7 224.295 154.332 224.11 154.644 223.689C155.875 222.023 150.803 218.404 151.506 212.706C151.888 209.604 153.547 209.417 153.467 207.215C153.263 201.615 142.33 197.16 134.248 196.232C133.104 196.101 132.076 196.046 131.155 196.046ZM228.387 180.856H240.591C240.624 180.607 240.64 180.352 240.64 180.094C240.64 176.698 237.887 173.944 234.49 173.944C233.809 173.944 233.153 174.054 232.541 174.26C231.47 167.344 225.49 162.05 218.276 162.05C216.096 162.05 214.027 162.534 212.174 163.4C209.033 157.401 202.748 153.308 195.506 153.308C186.891 153.308 179.627 159.102 177.402 167.007C174.884 164.867 171.621 163.575 168.059 163.575C161.869 163.575 156.588 167.472 154.538 172.947C152.623 171.346 150.161 170.386 147.473 170.386C143.045 170.386 139.226 172.996 137.47 176.763C136.605 176.201 135.571 175.875 134.461 175.875C131.591 175.875 129.229 178.059 128.949 180.856H139.974H136.459H158.489H153.905H212.16H204.514H232.037H228.386H228.387Z" fill="#D2EAFF"/>
<path d="M368.423 221.659H349.542H353.277H339.833H341.616H335.654C335.64 221.538 335.632 221.413 335.632 221.287C335.632 219.627 336.977 218.283 338.635 218.283C338.968 218.283 339.288 218.337 339.587 218.437C340.11 215.059 343.03 212.474 346.555 212.474C347.621 212.474 348.63 212.709 349.536 213.133C351.07 210.202 354.14 208.203 357.677 208.203C361.885 208.203 365.433 211.034 366.519 214.894C367.75 213.85 369.342 213.219 371.083 213.219C372.434 213.219 373.697 213.599 374.769 214.258L368.423 221.659Z" fill="#E6F4FF"/>
<path d="M484.406 443.624H475.018H477.44H463.971H468.22H433.968C432.818 442.345 432.117 440.653 432.117 438.797C432.117 434.807 435.352 431.572 439.342 431.572C441.735 431.572 443.856 432.735 445.169 434.525C446.388 433.591 447.912 433.037 449.563 433.037C449.794 433.037 450.021 433.048 450.247 433.07C451.759 429.081 455.617 426.245 460.135 426.245C464.11 426.245 467.572 428.439 469.378 431.683C469.81 431.61 470.254 431.572 470.705 431.572C473.92 431.572 476.687 433.49 477.923 436.245C478.482 436.042 479.084 435.933 479.711 435.933C482.627 435.933 484.989 438.295 484.989 441.211C484.989 442.08 484.778 442.901 484.406 443.624ZM455.959 443.624H452.048H455.959Z" fill="#E6F4FF"/>
<path d="M240.659 180.844H228.454H232.104H204.582H212.227H153.972H158.556H136.526H140.041H129.016C129.296 178.047 131.658 175.863 134.529 175.863C135.638 175.863 136.672 176.19 137.537 176.751C139.293 172.984 143.112 170.374 147.54 170.374C150.228 170.374 152.69 171.335 154.605 172.935C156.655 167.461 161.936 163.563 168.126 163.563C171.688 163.563 174.951 164.855 177.469 166.995C179.694 159.09 186.958 153.296 195.573 153.296C202.815 153.296 209.1 157.39 212.242 163.388C214.094 162.522 216.163 162.038 218.343 162.038C225.557 162.038 231.537 167.333 232.608 174.248C233.22 174.043 233.876 173.932 234.557 173.932C237.954 173.932 240.707 176.686 240.707 180.082C240.707 180.34 240.691 180.595 240.659 180.844H240.659Z" fill="#E6F4FF"/>
<path d="M602.234 399.704H593.109H595.838H575.26H580.976H537.421H540.848H524.376H527.006H518.762C518.972 397.338 520.738 395.493 522.883 395.493C523.712 395.493 524.487 395.769 525.133 396.243C526.445 393.06 529.301 390.853 532.612 390.853C534.622 390.853 536.462 391.665 537.894 393.018C539.427 388.39 543.376 385.094 548.003 385.094C550.666 385.094 553.106 386.187 554.988 387.996C556.652 381.314 562.083 376.416 568.524 376.416C573.938 376.416 578.637 379.876 580.987 384.948C582.372 384.216 583.918 383.806 585.549 383.806C590.942 383.806 595.414 388.281 596.213 394.127C596.671 393.954 597.162 393.861 597.672 393.861C600.21 393.861 602.27 396.188 602.27 399.058C602.27 399.277 602.257 399.493 602.234 399.704Z" fill="#E6F4FF"/>
<path d="M464.377 350.827H457.259H459.388H443.338H447.795H413.822H416.494H403.647H405.698H399.268C399.431 348.462 400.809 346.617 402.482 346.617C403.129 346.617 403.732 346.893 404.236 347.366C405.26 344.183 407.488 341.977 410.072 341.977C411.638 341.977 413.074 342.789 414.19 344.141C415.386 339.513 418.465 336.219 422.075 336.219C424.154 336.219 426.056 337.312 427.524 339.119C428.822 332.438 433.059 327.539 438.082 327.539C442.306 327.539 445.972 331 447.805 336.071C448.884 335.339 450.09 334.929 451.362 334.929C455.57 334.929 459.057 339.404 459.681 345.25C460.039 345.077 460.421 344.984 460.818 344.984C462.798 344.984 464.405 347.312 464.405 350.182C464.405 350.4 464.396 350.617 464.377 350.827Z" fill="#E6F4FF"/>
<path d="M137.217 412.337C135.006 412.337 131.774 411.254 130.351 408.881C129.039 406.692 129.685 404.101 129.959 402.998C135.169 382.038 133.528 385.723 135.059 381.817C139.069 371.589 140.347 367.546 142.904 359.461C143.387 357.931 144.191 355.26 142.904 353.185C141.381 350.732 138.513 351.644 135.842 348.87C133.644 346.586 134.94 345.291 132.706 342.201C129.837 338.238 126.341 338.485 126.037 335.927C125.806 333.973 127.796 333.414 128.391 330.043C128.812 327.659 127.943 327.225 127.999 324.944C128.134 319.411 133.346 317.773 132.706 313.569C132.386 311.485 130.763 309.638 129.694 309.638C129.65 309.638 129.608 309.64 129.568 309.646C128.451 309.811 128.662 312.181 127.213 312.784C126.991 312.878 126.746 312.921 126.484 312.921C124.678 312.921 122.087 310.835 120.546 308.47C118.267 304.975 119.345 302.505 117.408 301.41C116.998 301.178 116.596 301.089 116.193 301.089C115.526 301.089 114.856 301.333 114.144 301.578C113.43 301.823 112.673 302.067 111.83 302.067C111.364 302.067 110.873 301.992 110.348 301.802C107.511 300.771 107.551 297.748 105.248 297.488C105.15 297.475 105.052 297.471 104.959 297.471C103.957 297.471 103.2 298.072 102.472 298.675C101.743 299.278 101.043 299.88 100.152 299.88C100.024 299.88 99.8931 299.867 99.7575 299.841C97.9985 299.498 98.1855 297.317 95.4432 295.134C93.3011 293.429 92.4377 294.164 90.7364 292.781C88.2235 290.738 88.9711 288.212 87.2062 284.152C85.2252 279.594 81.452 276.262 80.3335 276.262C80.2587 276.262 80.1957 276.277 80.1458 276.307C79.7057 276.576 79.84 278.348 83.6761 286.505C77.0227 280.97 75.4751 276.438 75.4393 273.169C75.414 270.88 76.1296 269.181 75.0469 266.893C73.3208 263.245 69.7408 263.834 68.379 260.618C67.0504 257.478 69.0677 253.631 70.3401 251.204C72.6003 246.892 74.451 247.039 75.0469 244.144C75.6686 241.124 73.7094 240.697 72.3013 234.337C71.1673 229.216 71.9409 227.248 69.9477 225.316C68.3948 223.812 67.2455 224.35 65.6331 222.572C63.424 220.135 64.3465 217.512 62.8876 217.079C62.7025 217.025 62.5164 216.998 62.3296 216.998C61.0425 216.998 59.719 218.215 58.4708 219.431C57.2221 220.647 56.0484 221.863 55.0597 221.863C54.9196 221.863 54.783 221.838 54.6507 221.786C52.6794 221.006 52.0991 214.236 55.0427 211.981C55.8343 211.373 56.7685 211.18 57.7654 211.18C58.6577 211.18 59.6002 211.336 60.5345 211.492C61.4691 211.648 62.3952 211.804 63.2559 211.804C64.3148 211.804 65.2743 211.567 66.0255 210.803C67.3156 209.494 66.424 208.223 67.9865 206.489C69.2025 205.139 71.2499 204.236 73.2161 204.236C73.8445 204.236 74.4649 204.328 75.0469 204.529C78.1452 205.591 77.5065 208.784 80.9304 210.803C81.9944 211.431 82.8284 211.579 83.6622 211.579C84.0306 211.579 84.3987 211.55 84.7867 211.521C85.1747 211.492 85.5824 211.464 86.0296 211.464C86.8849 211.464 87.8846 211.568 89.1672 211.981C94.46 213.678 94.8464 217.472 98.5297 217.472H98.5813C100.622 217.453 100.742 216.308 105.641 214.334C106.751 213.887 109.29 212.863 111.917 212.372C112.539 212.257 114 212.014 115.939 212.014C118.397 212.014 121.621 212.405 124.861 213.941C130.958 216.833 134.547 222.565 133.882 223.355C133.829 223.416 133.754 223.446 133.656 223.446C133.08 223.446 131.741 222.452 129.995 221.459C128.25 220.465 126.096 219.473 123.888 219.473C123.168 219.473 122.442 219.579 121.723 219.825C119.61 220.548 119.837 221.701 115.839 224.532C111.409 227.668 108.739 227.946 108.779 229.239C108.824 230.718 112.325 230.596 116.624 233.553C121.081 236.618 122.431 240.267 123.812 240.267C123.899 240.267 123.988 240.252 124.077 240.221C125.286 239.805 125.552 236.825 125.253 234.73C124.705 230.898 122.181 229.389 122.899 228.063C123.279 227.361 124.318 227.165 125.912 227.165C126.729 227.165 127.69 227.216 128.782 227.277C131.428 227.427 133.605 227.548 136.628 228.454C140.73 229.685 145.816 231.208 148.395 235.515C150.009 238.209 149.111 239.437 151.14 241.79C153.649 244.7 156.511 244.551 156.631 246.104C156.771 247.887 153.169 250.202 149.571 250.811C148.893 250.926 148.265 250.973 147.682 250.973C146.551 250.973 145.588 250.8 144.745 250.627C143.904 250.454 143.183 250.281 142.534 250.281C141.958 250.281 141.438 250.417 140.942 250.811C139.043 252.321 140.763 255.004 138.589 257.48C136.631 259.708 134.413 258.471 132.706 260.618C130.833 262.971 132.858 265.261 131.137 268.071C129.212 271.209 125.429 270.387 124.861 272.385C124.275 274.442 127.784 277.092 134.666 282.19C146.472 290.934 148.329 292.164 148.002 293.172C147.709 294.077 145.682 294.728 143.049 294.728C140.227 294.728 136.709 293.981 133.882 291.996C129.177 288.692 130.886 285.12 125.644 281.014C122.955 278.906 119.537 278.039 112.701 276.307C109.859 275.585 108.109 275.317 106.961 275.317C105.842 275.317 105.292 275.573 104.857 275.914C103.742 276.79 103.859 277.849 102.896 284.152C102.054 289.661 101.669 290.779 102.503 291.604C102.98 292.077 103.662 292.26 104.493 292.26C105.864 292.26 107.64 291.757 109.563 291.212C113.865 289.992 116.292 288.311 117.368 288.311C117.55 288.311 117.693 288.359 117.801 288.466C118.851 289.515 114.549 294.347 115.839 295.919C116.077 296.209 116.447 296.316 116.905 296.316C117.597 296.316 118.488 296.07 119.429 295.822C120.369 295.575 121.356 295.327 122.241 295.327C122.944 295.327 123.581 295.483 124.077 295.919C125.741 297.383 123.623 300.09 125.253 302.586C126.603 304.655 129.856 305.553 133.151 305.553C134.766 305.553 136.389 305.338 137.804 304.94C140.136 304.284 141.112 303.357 143.232 303.357C143.379 303.357 143.53 303.362 143.687 303.371C145.922 303.501 146.064 304.398 149.178 305.332C153.53 306.636 154.669 305.311 157.809 306.901C159.139 307.575 158.797 307.742 161.731 309.646C163.589 310.853 164.442 311.248 166.438 312.391C169.668 314.244 172.011 315.829 173.89 317.098C177.329 319.425 179.048 320.587 179.774 321.413C183.102 325.202 182.006 328.083 184.479 329.258C184.948 329.481 185.392 329.57 185.824 329.57C186.654 329.57 187.446 329.244 188.306 328.918C189.164 328.593 190.092 328.269 191.193 328.269C191.667 328.269 192.172 328.328 192.717 328.474C195.564 329.233 197.885 331.891 198.6 334.749C199.322 337.628 198.251 340.068 197.817 341.025C196.112 344.768 193.727 344.361 191.933 347.694C189.887 351.493 192.331 353.247 190.364 357.106C189.091 359.604 187.031 360.863 182.912 363.383C177.639 366.606 177.245 365.492 174.283 367.697C168.938 371.672 170.536 375.056 165.261 378.288C162.535 379.958 160.626 379.963 159.378 382.209C158.044 384.609 159.222 386.399 157.809 387.702C157.282 388.186 156.702 388.32 156.028 388.32C155.612 388.32 155.16 388.269 154.661 388.218C154.161 388.166 153.616 388.116 153.013 388.116C152.231 388.116 151.352 388.202 150.356 388.486C147.575 389.277 145.806 391.056 145.256 391.624C142.626 394.333 143.663 395.991 140.942 399.86C138.753 402.975 137.329 402.97 137.02 404.96C136.501 408.283 140.154 410.362 139.373 411.627C139.086 412.093 138.265 412.337 137.217 412.337Z" fill="#EBF6FF"/>
<path d="M152.798 224.233C150.989 224.233 148.251 223.339 145.939 222.058C140.313 218.938 140.417 215.314 136.132 211.467C128.3 204.431 117.98 207.598 117.306 204.015C116.826 201.466 121.742 198.251 125.151 196.955C126.07 196.604 127.96 195.984 131.079 195.984C132 195.984 133.029 196.039 134.172 196.17C142.254 197.098 153.188 201.553 153.392 207.153C153.471 209.354 151.812 209.541 151.43 212.644C150.727 218.342 155.799 221.961 154.568 223.627C154.257 224.048 153.624 224.233 152.798 224.233Z" fill="#EBF6FF"/>
<path d="M87.4561 454.643C83.0733 453.761 80.0569 452.41 79.6993 450.372C79.5301 449.408 79.969 448.364 80.7009 447.351C82.9229 449.818 85.1905 452.266 87.4561 454.643Z" fill="#F5FAFF"/>
<path d="M110.044 456.287C102.201 456.287 93.5685 455.964 87.5289 454.75C85.2633 452.373 82.9957 449.925 80.7737 447.458C82.6102 444.92 86.2915 442.586 86.8321 442.243C88.9692 440.888 90.1547 440.727 97.0307 438.32C103.676 435.994 104.243 435.559 104.982 435.334C104.982 435.334 105.339 435.236 105.66 435.182C105.72 435.172 105.786 435.168 105.851 435.168C107.06 435.168 109.019 436.785 109.684 437.223C110.194 437.558 110.738 437.723 111.459 437.723C112.779 437.723 114.692 437.173 118.081 436.118C124.399 434.15 127.559 433.166 128.246 432.802C134.74 429.381 137.26 424.499 138.997 424.499C139.133 424.499 139.264 424.529 139.391 424.591C139.681 424.735 139.99 425.063 140.622 431.257C141.056 435.514 140.989 436.128 141.506 437.223C143.002 440.394 146.579 441.643 147.251 441.863C148.318 442.212 149.384 442.358 150.426 442.358C153.053 442.358 155.532 441.435 157.511 440.511C159.488 439.588 160.964 438.664 161.581 438.664C161.698 438.664 161.783 438.697 161.836 438.77C162.522 439.705 157.262 446.665 148.806 450.872C140.487 455.01 130.755 455.648 127.526 455.86C126.576 455.924 125.814 455.952 125.272 455.97C121.718 456.093 116.116 456.287 110.044 456.287Z" fill="#EBF6FF"/>
<path d="M182.789 327.552C179.342 327.586 176.521 324.821 176.486 321.376C176.452 317.929 179.219 315.107 182.664 315.073C186.111 315.039 188.933 317.804 188.967 321.251C189.001 324.698 186.235 327.518 182.789 327.552ZM182.596 309.61C176.067 309.774 170.464 316.131 171.514 323.403C172.917 326.681 174.768 330.394 177.225 334.305C179.227 337.491 181.276 340.246 183.213 342.586C184.93 340.298 186.701 337.706 188.432 334.802C190.955 330.567 192.873 326.538 194.341 322.932C195.093 315.581 189.158 309.445 182.596 309.61Z" fill="#57A8E5"/>
<path d="M182.809 327.64C179.363 327.675 176.541 324.909 176.507 321.464C176.472 318.017 179.24 315.196 182.685 315.161C186.131 315.127 188.953 317.893 188.987 321.339C189.022 324.786 186.256 327.606 182.809 327.64ZM182.898 312.146C177.805 312.196 173.718 316.367 173.768 321.461C173.819 326.553 177.989 330.641 183.082 330.591C188.176 330.54 192.264 326.37 192.213 321.277C192.163 316.183 187.992 312.095 182.898 312.146Z" fill="#1A5DA0"/>
<path d="M167.553 360.56C164.108 360.594 161.286 357.828 161.252 354.383C161.218 350.937 163.984 348.115 167.43 348.081C170.875 348.046 173.697 350.812 173.731 354.259C173.766 357.705 171 360.526 167.553 360.56ZM167.36 342.618C160.832 342.781 155.228 349.139 156.28 356.41C157.681 359.689 159.532 363.402 161.989 367.313C163.991 370.499 166.042 373.254 167.977 375.594C169.696 373.305 171.467 370.714 173.197 367.81C175.719 363.575 177.638 359.545 179.105 355.94C179.858 348.589 173.923 342.453 167.36 342.618Z" fill="#57A8E5"/>
<path d="M167.573 360.49C164.128 360.524 161.307 357.758 161.272 354.313C161.238 350.867 164.004 348.045 167.45 348.011C170.895 347.976 173.717 350.742 173.751 354.189C173.786 357.635 171.02 360.456 167.573 360.49ZM167.664 344.996C162.57 345.046 158.482 349.217 158.533 354.309C158.583 359.402 162.754 363.491 167.848 363.441C172.94 363.389 177.028 359.22 176.978 354.126C176.927 349.033 172.757 344.944 167.664 344.996Z" fill="#1A5DA0"/>
<path d="M138.195 224.879C134.75 224.913 131.928 222.148 131.894 218.701C131.86 215.256 134.625 212.434 138.072 212.4C141.517 212.366 144.339 215.131 144.373 218.578C144.407 222.024 141.641 224.845 138.195 224.879ZM138.002 206.937C131.475 207.101 125.87 213.458 126.922 220.73C128.323 224.008 130.175 227.721 132.631 231.632C134.633 234.818 136.683 237.573 138.619 239.913C140.337 237.624 142.109 235.033 143.838 232.129C146.363 227.894 148.279 223.865 149.747 220.259C150.499 212.908 144.564 206.772 138.002 206.937Z" fill="#57A8E5"/>
<path d="M138.215 224.967C134.77 225.001 131.949 222.236 131.914 218.789C131.88 215.344 134.646 212.522 138.092 212.488C141.537 212.454 144.359 215.219 144.393 218.666C144.428 222.113 141.662 224.933 138.215 224.967ZM138.306 209.473C133.212 209.523 129.124 213.694 129.175 218.786C129.225 223.879 133.396 227.968 138.49 227.918C143.583 227.867 147.67 223.697 147.62 218.604C147.569 213.51 143.399 209.422 138.306 209.473Z" fill="#1A5DA0"/>
<path d="M157.08 315.017C153.635 315.051 150.813 312.286 150.779 308.839C150.744 305.392 153.51 302.572 156.957 302.538C160.402 302.502 163.223 305.268 163.258 308.714C163.292 312.161 160.526 314.983 157.08 315.017ZM156.886 297.074C150.358 297.237 144.755 303.594 145.807 310.868C147.207 314.144 149.058 317.857 151.516 321.768C153.518 324.956 155.568 327.709 157.503 330.05C159.222 327.762 160.992 325.171 162.723 322.267C165.246 318.032 167.164 314.001 168.632 310.397C169.384 303.046 163.449 296.91 156.886 297.074Z" fill="#57A8E5"/>
<path d="M157.1 315.105C153.655 315.139 150.833 312.374 150.799 308.927C150.764 305.481 153.53 302.66 156.977 302.626C160.422 302.59 163.244 305.356 163.278 308.803C163.312 312.249 160.546 315.071 157.1 315.105ZM157.19 299.61C152.097 299.661 148.008 303.831 148.06 308.924C148.109 314.018 152.281 318.106 157.374 318.055C162.466 318.003 166.555 313.834 166.505 308.74C166.453 303.647 162.284 299.56 157.19 299.61Z" fill="#1A5DA0"/>
<path d="M137.719 274.709C134.274 274.743 131.452 271.978 131.418 268.531C131.383 265.086 134.149 262.264 137.596 262.23C141.042 262.196 143.862 264.962 143.898 268.408C143.933 271.853 141.165 274.675 137.719 274.709ZM137.526 256.766C130.999 256.931 125.394 263.288 126.446 270.56C127.848 273.837 129.699 277.551 132.155 281.462C134.158 284.648 136.207 287.403 138.143 289.744C139.861 287.455 141.633 284.863 143.362 281.959C145.886 277.724 147.805 273.695 149.272 270.089C150.023 262.738 144.09 256.602 137.526 256.766Z" fill="#57A8E5"/>
<path d="M137.581 274.639C134.136 274.673 131.314 271.908 131.28 268.461C131.246 265.016 134.011 262.194 137.458 262.16C140.905 262.126 143.725 264.892 143.761 268.338C143.795 271.783 141.028 274.605 137.581 274.639ZM137.671 259.144C132.578 259.195 128.489 263.365 128.541 268.458C128.591 273.552 132.762 277.64 137.855 277.589C142.949 277.539 147.036 273.368 146.986 268.274C146.934 263.182 142.765 259.094 137.671 259.144Z" fill="#1A5DA0"/>
<path d="M85.8275 248.684C82.3817 248.718 79.5601 245.953 79.5258 242.506C79.4915 239.059 82.2575 236.239 85.7033 236.205C89.1497 236.171 91.9713 238.936 92.0056 242.381C92.0399 245.828 89.2738 248.65 85.8275 248.684ZM85.634 230.741C79.106 230.904 73.5024 237.261 74.5538 244.535C75.9554 247.811 77.8066 251.524 80.2633 255.435C82.2658 258.623 84.3155 261.378 86.2513 263.717C87.9691 261.429 89.7404 258.838 91.4707 255.934C93.9945 251.699 95.9126 247.668 97.3788 244.064C98.1314 236.713 92.1974 230.577 85.634 230.741Z" fill="#57A8E5"/>
<path d="M85.8483 248.772C82.4025 248.806 79.5809 246.041 79.5466 242.594C79.5123 239.148 82.2783 236.327 85.7241 236.293C89.1705 236.259 91.9921 239.025 92.0264 242.47C92.0607 245.916 89.2946 248.738 85.8483 248.772ZM85.9379 233.277C80.8445 233.328 76.7565 237.498 76.8071 242.591C76.8579 247.685 81.0281 251.773 86.1215 251.722C91.2148 251.672 95.3024 247.501 95.2525 242.407C95.2011 237.314 91.0313 233.227 85.9379 233.277Z" fill="#1A5DA0"/>
<path d="M143.273 344.849C139.827 344.883 137.007 342.118 136.972 338.671C136.938 335.226 139.704 332.404 143.149 332.37C146.595 332.336 149.417 335.101 149.451 338.548C149.486 341.995 146.72 344.815 143.273 344.849ZM143.08 326.907C136.552 327.071 130.949 333.428 132 340.7C133.401 343.978 135.252 347.691 137.709 351.602C139.712 354.788 141.762 357.543 143.697 359.883C145.416 357.595 147.186 355.003 148.917 352.099C151.44 347.864 153.358 343.835 154.825 340.229C155.578 332.878 149.643 326.742 143.08 326.907Z" fill="#57A8E5"/>
<path d="M143.295 344.779C139.849 344.813 137.028 342.048 136.994 338.601C136.96 335.156 139.726 332.334 143.171 332.3C146.617 332.266 149.439 335.032 149.473 338.478C149.507 341.925 146.742 344.745 143.295 344.779ZM143.384 329.285C138.292 329.335 134.204 333.505 134.253 338.598C134.305 343.692 138.474 347.78 143.568 347.729C148.661 347.679 152.75 343.509 152.698 338.416C152.649 333.322 148.478 329.234 143.384 329.285Z" fill="#1A5DA0"/>
<path d="M103.76 285.659C100.313 285.693 97.4916 282.927 97.4573 279.481C97.423 276.034 100.19 273.213 103.635 273.178C107.082 273.144 109.904 275.91 109.938 279.356C109.972 282.803 107.207 285.625 103.76 285.659ZM103.567 267.716C97.0382 267.879 91.4345 274.236 92.486 281.508C93.8876 284.786 95.7387 288.499 98.1959 292.41C100.198 295.598 102.247 298.351 104.184 300.692C105.901 298.403 107.672 295.812 109.402 292.907C111.926 288.672 113.844 284.643 115.312 281.037C116.064 273.688 110.13 267.55 103.567 267.716Z" fill="#57A8E5"/>
<path d="M103.781 285.589C100.334 285.623 97.5127 282.857 97.4784 279.411C97.4441 275.964 100.211 273.143 103.656 273.108C107.103 273.074 109.925 275.84 109.959 279.286C109.993 282.733 107.228 285.555 103.781 285.589ZM103.87 270.093C98.7763 270.143 94.6893 274.314 94.7392 279.408C94.7906 284.501 98.9602 288.588 104.054 288.538C109.147 288.487 113.236 284.317 113.184 279.224C113.134 274.13 108.963 270.042 103.87 270.093Z" fill="#1A5DA0"/>
<path d="M138.195 383.729C134.75 383.763 131.928 380.997 131.894 377.552C131.86 374.106 134.625 371.284 138.07 371.25C141.517 371.216 144.339 373.981 144.373 377.428C144.407 380.874 141.642 383.695 138.195 383.729ZM138.002 365.787C131.473 365.951 125.87 372.308 126.922 379.58C128.323 382.858 130.174 386.571 132.631 390.482C134.633 393.668 136.684 396.423 138.619 398.763C140.338 396.474 142.108 393.883 143.839 390.979C146.361 386.744 148.279 382.714 149.747 379.109C150.5 371.758 144.565 365.622 138.002 365.787Z" fill="#57A8E5"/>
<path d="M138.215 383.817C134.77 383.851 131.948 381.086 131.914 377.641C131.88 374.194 134.646 371.372 138.091 371.338C141.537 371.304 144.359 374.069 144.393 377.516C144.428 380.962 141.662 383.783 138.215 383.817ZM138.306 368.323C133.212 368.373 129.124 372.544 129.175 377.636C129.225 382.729 133.394 386.818 138.488 386.768C143.581 386.717 147.67 382.547 147.619 377.454C147.569 372.36 143.399 368.272 138.306 368.323Z" fill="#1A5DA0"/>
<path d="M115.345 244.239C111.898 244.273 109.076 241.508 109.042 238.063C109.008 234.616 111.775 231.794 115.22 231.76C118.667 231.726 121.488 234.492 121.523 237.938C121.557 241.385 118.791 244.205 115.345 244.239ZM115.152 226.297C108.623 226.461 103.02 232.818 104.07 240.09C105.472 243.368 107.324 247.081 109.781 250.992C111.783 254.179 113.832 256.933 115.769 259.274C117.486 256.985 119.257 254.393 120.987 251.489C123.511 247.254 125.429 243.225 126.897 239.619C127.649 232.268 121.714 226.132 115.152 226.297Z" fill="#57A8E5"/>
<path d="M115.365 244.327C111.919 244.362 109.097 241.596 109.063 238.151C109.028 234.704 111.796 231.883 115.241 231.848C118.687 231.814 121.509 234.58 121.543 238.026C121.578 241.473 118.812 244.293 115.365 244.327ZM115.454 228.833C110.361 228.883 106.274 233.054 106.323 238.146C106.375 243.24 110.544 247.328 115.638 247.278C120.731 247.227 124.82 243.057 124.769 237.964C124.719 232.87 120.548 228.782 115.454 228.833Z" fill="#1A5DA0"/>
<path d="M105.663 211.708C102.218 211.743 99.3966 208.977 99.3621 205.53C99.328 202.084 102.094 199.264 105.54 199.229C108.985 199.195 111.807 201.961 111.841 205.407C111.876 208.852 109.11 211.674 105.663 211.708ZM105.47 193.765C98.9432 193.929 93.3386 200.287 94.3903 207.559C95.7911 210.836 97.6437 214.549 100.099 218.461C102.101 221.648 104.152 224.402 106.087 226.741C107.806 224.454 109.577 221.863 111.307 218.958C113.829 214.723 115.748 210.694 117.215 207.088C117.968 199.737 112.033 193.601 105.47 193.765Z" fill="#57A8E5"/>
<path d="M105.684 211.639C102.239 211.673 99.417 208.907 99.3826 205.461C99.3484 202.014 102.114 199.194 105.561 199.16C109.006 199.126 111.827 201.891 111.862 205.338C111.896 208.783 109.13 211.605 105.684 211.639ZM105.774 196.143C100.681 196.195 96.5921 200.364 96.6435 205.458C96.6934 210.551 100.864 214.64 105.958 214.588C111.052 214.538 115.139 210.367 115.089 205.274C115.037 200.18 110.868 196.093 105.774 196.143Z" fill="#1A5DA0"/>
<path d="M74.4017 215.359C70.9559 215.393 68.1343 212.628 68.0999 209.181C68.0656 205.736 70.8318 202.914 74.2775 202.88C77.7238 202.846 80.5454 205.611 80.5799 209.058C80.614 212.503 77.848 215.325 74.4017 215.359ZM74.2082 197.415C67.6803 197.581 62.0766 203.938 63.128 211.21C64.5294 214.486 66.3808 218.201 68.8375 222.112C70.84 225.298 72.8896 228.053 74.8255 230.393C76.5434 228.104 78.3146 225.513 80.0448 222.609C82.5681 218.374 84.4861 214.345 85.9538 210.739C86.7059 203.388 80.7717 197.252 74.2082 197.415Z" fill="#57A8E5"/>
<path d="M74.4225 215.447C70.9767 215.481 68.1551 212.716 68.1207 209.269C68.0864 205.824 70.8525 203.002 74.2983 202.968C77.7446 202.934 80.5662 205.699 80.6006 209.146C80.6347 212.591 77.8687 215.413 74.4225 215.447ZM74.5121 199.952C69.4187 200.003 65.3307 204.172 65.3813 209.266C65.432 214.359 69.6021 218.448 74.6956 218.397C79.789 218.347 83.877 214.176 83.8263 209.082C83.7756 203.99 79.6054 199.902 74.5121 199.952Z" fill="#1A5DA0"/>
<path d="M403.522 188.881C401.221 188.881 398.96 188.821 396.729 188.706L460.582 114.258V178.124C459.792 178.381 458.99 178.648 458.195 178.917C437.332 185.995 419.527 188.881 403.522 188.881V188.881Z" fill="#F3F9FF"/>
<path d="M460.492 285.412L323.572 273.824L368.342 221.627H377.915H375.676H386.436H384.719H390.104C389.967 220.261 388.814 219.195 387.412 219.195C386.869 219.195 386.365 219.354 385.942 219.628C385.085 217.788 383.219 216.514 381.056 216.514C379.742 216.514 378.541 216.983 377.606 217.763C377.052 216.286 376.015 215.043 374.688 214.226L396.639 188.634C398.87 188.75 401.131 188.809 403.432 188.809C419.437 188.809 437.242 185.924 458.105 178.846C458.9 178.577 459.702 178.31 460.492 178.052V285.412H460.492Z" fill="#E9F5FF"/>
<path d="M390.085 221.635H384.7H386.417H375.657H377.896H368.323L374.669 214.234C375.997 215.05 377.033 216.293 377.588 217.771C378.522 216.99 379.724 216.521 381.037 216.521C383.2 216.521 385.067 217.795 385.924 219.636C386.346 219.361 386.851 219.202 387.393 219.202C388.795 219.202 389.948 220.268 390.085 221.635Z" fill="#F2F9FF"/>
<path d="M571.059 110.67V285.676C571.056 286.726 570.925 292.242 566.129 296.703C563.088 299.534 558.892 301.29 554.276 301.29H551.899C551.721 300.363 551.548 299.444 551.381 298.534H481.766C481.707 299.434 481.644 300.352 481.579 301.29H477.305C472.565 301.29 468.268 299.439 465.209 296.472C462.31 293.663 460.522 289.853 460.522 285.676V110.67C460.522 102.084 468.075 95.0564 477.305 95.0564H554.276C562.38 95.0564 569.191 100.472 570.732 107.606C570.947 108.598 571.059 109.623 571.059 110.67H571.059Z" fill="#90BBF2"/>
<path d="M552.967 99.3408C552.967 102.776 550.111 105.586 546.622 105.586H486.068C484.322 105.586 482.738 104.884 481.588 103.752C480.438 102.62 479.724 101.058 479.724 99.3408H552.967H552.967Z" fill="#013666"/>
<path d="M465.209 296.55C462.31 293.741 460.522 289.931 460.522 285.752V285.486V285.754C460.522 289.931 462.31 293.741 465.209 296.55Z" fill="#E4F2FF"/>
<path d="M564.623 98.3719C561.774 96.2968 558.193 95.0568 554.315 95.0568H526.538V95.0564H554.313C558.191 95.0564 561.774 96.2968 564.623 98.3719Z" fill="#F1F8FF"/>
<path d="M465.209 296.473C462.31 293.663 460.522 289.854 460.522 285.676V211.125L520.551 105.522H546.646C550.135 105.522 552.991 102.712 552.991 99.2767H524.1L526.5 95.0564L554.276 95.0568C558.155 95.0568 561.735 96.2968 564.585 98.3719C567.692 100.633 569.928 103.886 570.732 107.606L465.209 296.473L465.209 296.473Z" fill="#BBD5F7"/>
<path d="M546.604 105.586H520.508L524.057 99.3408H552.948C552.948 102.776 550.092 105.586 546.604 105.586Z" fill="#6484A1"/>
<path d="M460.522 192.719V171.576L496.42 105.53H508.63L460.522 192.721" fill="#BBD5F7"/>
<path d="M512.139 99.2767H499.878L502.171 95.0564L514.467 95.0568L512.139 99.2767Z" fill="#BBD5F7"/>
<path d="M508.596 105.586H496.387L499.782 99.3408H512.043L508.596 105.586Z" fill="#6484A1"/>
<path d="M549.044 282.719C548.545 287.897 546.99 292.668 544.653 296.862H486.436C484.549 293.31 483.215 289.366 482.59 285.154C482.587 285.134 482.584 285.114 482.581 285.094C485.833 278.803 489.471 270.869 492.584 261.655C493.377 259.308 494.134 256.879 494.843 254.375C499.585 237.622 502.129 217.429 497.981 195.582C496.914 189.962 495.488 184.682 493.827 179.75C495.61 178.357 497.944 176.906 500.448 176.548C500.509 176.54 500.571 176.532 500.632 176.525C501.45 176.425 502.285 176.445 503.123 176.623C503.145 176.628 503.168 176.632 503.19 176.637C503.273 176.655 503.352 176.675 503.428 176.695L503.432 176.696C504.892 177.08 505.414 177.799 507.081 178.773C509.527 180.203 512.456 181.022 515.434 181.271C516.736 181.381 518.048 181.382 519.334 181.275C520.018 181.219 520.694 181.133 521.358 181.017C522.516 180.814 523.636 180.521 524.686 180.141C526.969 179.314 528.324 178.288 529.413 177.603C530.375 176.998 531.13 176.658 532.135 176.949C532.402 177.026 532.654 177.139 532.89 177.281C535.512 178.86 536.274 184.124 536.554 186.2C537.162 190.726 537.678 196.065 538.133 201.782V201.784C538.338 204.344 538.532 206.982 538.715 209.654C538.799 210.886 538.882 212.125 538.965 213.368C539.078 215.088 539.187 216.818 539.295 218.544C540.143 232.102 540.864 245.486 541.853 253.756L541.855 253.766C542.128 256.045 542.508 258.666 543.059 261.589C544.173 267.477 545.978 274.587 548.985 282.565C549.005 282.616 549.024 282.667 549.044 282.719L549.044 282.719Z" fill="#B4D5F9"/>
<path d="M510.986 238.506C513.886 214.25 514.743 200.74 514.151 194.724C514.02 193.392 513.464 188.831 515.865 187.167C516.952 186.413 518.793 186.152 519.846 186.949C520.756 187.636 520.818 188.909 520.877 189.642C521.173 193.361 522.125 192.761 523.118 198.242C525.605 211.963 523.152 235.133 522.855 237.854C522.423 241.804 521.987 245.022 520.086 245.672C516.915 246.755 511.976 239.907 510.986 238.506V238.506Z" fill="#013666"/>
<path d="M517.379 245.23L517.378 245.273C517.347 246.062 517.314 246.85 517.283 247.639C517.211 249.435 517.139 251.235 517.068 253.031C516.991 254.932 516.915 256.833 516.84 258.734C516.767 260.551 516.694 262.368 516.622 264.183C516.62 264.203 516.62 264.22 516.62 264.241C516.589 264.976 516.56 265.711 516.532 266.448C516.524 266.632 516.516 266.818 516.51 267.002C516.477 267.815 516.444 268.63 516.412 269.443C516.377 270.283 516.345 271.121 516.31 271.961C516.271 272.926 516.234 273.89 516.195 274.854C516.194 274.881 516.194 274.911 516.192 274.939C516.162 275.49 516.131 276.042 516.102 276.593V276.595C516.099 276.66 516.092 276.726 516.089 276.791C516.077 277.031 516.063 277.271 516.047 277.511C515.926 279.661 515.79 281.808 515.647 283.959V283.96C515.508 286.028 515.36 288.097 515.203 290.166C515.031 292.401 514.85 294.633 514.659 296.865C514.607 297.466 514.556 298.067 514.501 298.669H481.739C482.127 292.67 482.349 287.516 482.482 283.337C482.513 282.386 482.536 281.487 482.56 280.64V280.638C482.561 280.563 482.563 280.487 482.564 280.412C482.61 278.557 482.644 276.656 482.694 274.618C482.762 271.857 482.856 268.842 483.044 265.336V265.334C483.048 265.314 483.048 265.294 483.049 265.274V265.272C483.051 265.233 483.054 265.196 483.055 265.155V265.154C483.066 264.957 483.077 264.758 483.088 264.558C483.125 263.895 483.166 263.215 483.211 262.516C483.255 261.836 483.303 261.138 483.354 260.42C483.358 260.375 483.361 260.33 483.364 260.284C483.703 255.605 484.051 252.28 484.196 250.677C484.874 243.203 484.863 232.118 481.795 216.308C481.547 215.038 481.282 213.735 480.994 212.402C482.878 207.762 483.651 203.773 483.996 200.928C484.543 196.422 484.289 192.557 483.996 188.072C483.823 185.462 483.587 183.283 483.392 181.722L483.39 181.703C485.861 181.026 488.665 180.088 491.664 178.776C495.092 177.275 497.995 175.627 500.368 174.084C500.393 174.893 500.424 175.716 500.461 176.551C500.467 176.68 500.472 176.809 500.478 176.94C500.506 177.548 500.539 178.163 500.575 178.784C500.575 178.801 500.576 178.816 500.578 178.833V178.835C500.608 179.377 500.642 179.927 500.679 180.482V180.484C501.195 188.282 502.284 197.054 504.325 206.529C505.365 211.355 506.557 215.929 507.847 220.245C509.064 224.315 510.366 228.153 511.712 231.75V231.752C513.112 235.492 514.553 238.971 515.985 242.182C516.451 243.226 516.917 244.242 517.379 245.23Z" fill="white"/>
<path d="M568.044 285.736C568.039 286.995 567.728 291.33 563.982 294.814C561.363 297.25 557.897 298.594 554.225 298.594H477.254C473.474 298.594 469.937 297.183 467.296 294.623C467.06 294.394 466.835 294.159 466.619 293.918C464.558 291.61 463.435 288.738 463.435 285.736V110.73C463.435 103.641 469.633 97.8727 477.254 97.8727H554.225C560.782 97.8727 566.481 102.22 567.776 108.211C567.954 109.034 568.044 109.881 568.044 110.73V285.736ZM573.585 107.122C571.737 98.5676 563.594 92.3584 554.225 92.3584H477.254C471.998 92.3584 467.043 94.2749 463.305 97.7527C459.566 101.232 457.508 105.841 457.508 110.73V285.736C457.508 290.485 459.465 294.997 463.02 298.442C464.845 300.211 466.987 301.602 469.388 302.579C471.88 303.594 474.527 304.108 477.254 304.108H554.225C559.481 304.108 564.434 302.191 568.173 298.713C570.56 296.493 572.248 293.805 573.19 290.725C573.829 288.636 573.968 286.862 573.971 285.744V110.731C573.971 109.517 573.842 108.301 573.585 107.122V107.122Z" fill="#013666"/>
<path d="M549.05 223.973C545.967 231.837 546.055 240.103 546.679 256.809C546.922 263.36 547.483 271.744 548.754 281.703V281.711C548.827 282.286 548.904 282.869 548.983 283.456V283.46C549.611 288.156 550.395 293.184 551.376 298.522H512.171C512.136 297.931 512.101 297.33 512.066 296.718C511.878 293.396 511.686 289.798 511.516 286.216V286.214C511.493 285.72 511.471 285.226 511.448 284.733C511.373 283.079 511.304 281.436 511.244 279.835C511.203 278.788 511.166 277.76 511.136 276.756V276.755C511.13 276.608 511.125 276.464 511.12 276.32C511.086 275.212 511.058 274.14 511.036 273.112V273.11C511.032 272.905 511.029 272.699 511.024 272.497V272.495C511.007 271.582 510.994 270.711 510.988 269.885C510.985 269.329 510.982 268.151 511.022 266.569C511.027 266.414 511.032 266.252 511.036 266.088C511.046 265.747 511.057 265.39 511.072 265.018C511.088 264.616 511.103 264.212 511.12 263.808C511.332 258.54 511.65 253.227 513.447 247.817C513.994 246.169 514.595 244.76 515.232 243.492V243.49C515.486 242.984 515.743 242.503 516.007 242.035C516.963 240.337 517.975 238.846 518.984 237.264C518.984 237.264 520.949 234.182 523.585 229.003L523.587 229.001C525.915 224.431 528.763 218.232 531.247 211.074C532.713 206.857 534.223 200.82 534.349 192.853V192.845C534.383 190.743 534.321 188.51 534.136 186.139V186.136C533.919 183.328 533.529 180.33 532.926 177.138C532.839 176.678 532.747 176.214 532.651 175.745V175.743C532.581 175.403 532.509 175.064 532.434 174.719C532.609 174.869 532.786 175.02 532.968 175.173C534.896 176.787 537.218 178.518 539.95 180.193C541.075 180.882 542.182 181.505 543.255 182.071C545.477 183.241 547.57 184.159 549.446 184.883C551.035 190.578 551.808 195.427 552.216 198.955C552.698 203.116 553.129 206.854 552.612 211.465C552.113 215.904 550.951 219.215 549.957 221.719C549.625 222.557 549.313 223.303 549.05 223.973H549.05Z" fill="white"/>
<path d="M509.717 184.149C511.607 185.582 513.497 187.016 515.389 188.449C515.789 188.218 517.047 187.562 518.684 187.798C519.765 187.953 520.537 188.427 520.926 188.71C521.894 187.363 522.861 186.017 523.827 184.67C522.905 183.628 521.981 182.585 521.059 181.543C518.245 181.63 515.432 181.717 512.618 181.804C511.652 182.585 510.685 183.367 509.717 184.149Z" fill="#013666"/>
<path d="M493.622 197.974L492.419 197.859C492.927 192.646 494.766 185.088 500.634 178.687L501.53 179.488C495.883 185.647 494.113 192.94 493.622 197.974Z" fill="#000202"/>
<path d="M536.4 214.798L535.196 214.703C536.333 200.739 534.623 188.353 530.109 177.888C528.61 174.413 527.044 171.824 524.272 170.485C516.975 166.96 506.472 174.135 501.567 179.487L500.671 178.685C505.813 173.077 516.91 165.6 524.803 169.413C527.91 170.913 529.615 173.699 531.22 177.42C535.812 188.064 537.555 200.641 536.4 214.798Z" fill="#000202"/>
<path d="M498.061 230.139L497.14 229.366C498.215 228.116 498.992 226.739 499.452 225.274C500.019 223.468 499.884 222.186 499.586 219.375C499.516 218.71 499.436 217.964 499.355 217.11C499.095 214.35 499.045 212.831 499.008 211.723C498.963 210.377 498.936 209.565 498.603 207.702C497.791 203.155 496.778 201.569 495.804 200.531C495.147 199.833 493.927 198.534 492.412 198.608C490.765 198.691 489.587 200.388 488.885 201.401C487.45 203.47 487.051 205.551 486.563 208.736C485.781 213.835 485.39 216.394 485.376 218.596C485.351 222.801 485.946 227.013 487.146 231.114L485.985 231.444C484.754 227.234 484.142 222.909 484.168 218.588C484.181 216.301 484.578 213.713 485.368 208.559C485.882 205.206 486.308 203.006 487.888 200.726C488.662 199.609 490.105 197.527 492.352 197.417C494.43 197.314 495.956 198.937 496.688 199.718C497.789 200.891 498.925 202.642 499.793 207.493C500.141 209.441 500.17 210.333 500.215 211.683C500.254 212.837 500.303 214.275 500.558 216.999C500.639 217.848 500.717 218.59 500.787 219.251C501.093 222.139 501.247 223.588 500.607 225.628C500.099 227.247 499.242 228.764 498.061 230.139Z" fill="#000202"/>
<path d="M539.728 225.631C539.042 226.248 538.199 226.711 537.239 226.951C534.119 227.732 530.937 225.857 530.147 222.771C529.357 219.687 531.255 216.543 534.376 215.762C536.093 215.334 537.827 215.706 539.172 216.641C540.273 217.409 541.115 218.553 541.471 219.941C542.017 222.077 541.273 224.243 539.728 225.631ZM542.642 219.65C542.132 217.657 540.794 216.082 539.08 215.192H539.078C538.226 214.749 537.28 214.477 536.295 214.41C535.895 214.382 535.49 214.386 535.083 214.428C534.748 214.464 534.415 214.522 534.08 214.606C530.314 215.547 528.022 219.343 528.977 223.064C529.929 226.787 533.768 229.05 537.537 228.109C538.377 227.898 539.142 227.546 539.817 227.085C542.165 225.479 543.382 222.542 542.642 219.65Z" fill="#000202"/>
<path d="M488.928 230.986C489.146 231.838 488.624 232.705 487.761 232.92C486.899 233.136 486.022 232.62 485.804 231.768C485.586 230.916 486.109 230.049 486.971 229.834C487.834 229.618 488.709 230.135 488.928 230.986Z" fill="#000202"/>
<path d="M497.973 229.559C498.191 230.411 497.669 231.277 496.806 231.492C495.945 231.707 495.067 231.192 494.849 230.339C494.631 229.487 495.155 228.621 496.016 228.406C496.879 228.191 497.755 228.706 497.973 229.559Z" fill="#000202"/>
<path d="M529.507 182.821C520.742 180.708 511.976 178.595 503.21 176.482C504.184 168.595 505.158 160.707 506.132 152.82H529.507V182.821Z" fill="#AD8B74"/>
<path d="M505.545 190.245C509.106 187.031 512.666 183.817 516.226 180.603C514.269 179.757 511.314 178.194 508.447 175.391C506.077 173.075 504.597 170.722 503.699 169.006C502.638 171.652 501.575 174.298 500.513 176.943C502.191 181.377 503.867 185.811 505.545 190.245Z" fill="white"/>
<path d="M528.442 190.881C525.321 187.493 522.2 184.105 519.079 180.717C520.719 179.819 523.032 178.31 525.278 175.896C527.426 173.584 528.727 171.287 529.497 169.641C529.714 170.791 530.072 172.174 530.684 173.681C531.181 174.905 531.738 175.949 532.266 176.808C530.991 181.499 529.717 186.19 528.442 190.881Z" fill="white"/>
<path d="M519.524 250.285C519.524 251.792 518.288 253.013 516.763 253.013C515.237 253.013 514.002 251.792 514.002 250.285C514.002 248.778 515.237 247.558 516.763 247.558C518.288 247.558 519.524 248.778 519.524 250.285Z" fill="#1F4788"/>
<path d="M519.524 261.395C519.524 262.902 518.288 264.122 516.763 264.122C515.237 264.122 514.002 262.902 514.002 261.395C514.002 259.889 515.237 258.667 516.763 258.667C518.288 258.667 519.524 259.889 519.524 261.395Z" fill="#1F4788"/>
<path d="M519.365 272.026C519.365 273.533 518.129 274.754 516.604 274.754C515.08 274.754 513.843 273.533 513.843 272.026C513.843 270.52 515.08 269.299 516.604 269.299C518.129 269.299 519.365 270.52 519.365 272.026Z" fill="#1F4788"/>
<path d="M543.057 261.477C539.48 262.58 535.902 263.685 532.325 264.788C531.029 265.188 529.712 264.231 529.712 262.89V257.792C535.053 255.969 540.394 254.144 545.734 252.32C545.815 253.996 545.896 255.674 545.977 257.351C546.068 259.222 544.868 260.919 543.057 261.477Z" fill="#1A5DA0"/>
<path d="M486.249 181.067C487.813 192.59 486.518 201.387 485.061 207.258C483.687 212.794 482.059 216.169 470.906 240.931C468.798 245.611 467.101 249.386 466.1 251.613C469.454 253.732 473.128 256.337 476.911 259.525C481.853 263.69 485.811 267.864 488.922 271.591C489.355 275.35 489.79 279.108 490.223 282.866C478.824 279.831 470.192 275.723 464.499 272.581C454.081 266.83 444.003 261.266 442.978 252.503C442.635 249.572 443.487 247.839 446.883 240.535C453.596 226.089 462.126 212.415 467.654 197.485C468.754 194.517 470.335 189.914 474.775 186.149C478.631 182.88 483.04 181.617 486.249 181.067V181.067Z" fill="white"/>
<path d="M498.606 281.319C497.348 286.029 500.032 292.228 503.592 292.765C507.076 293.293 510.286 288.234 511.364 286.536C513.861 282.602 516.279 275.632 513.719 273.457C510.741 270.927 500.454 274.403 498.606 281.319Z" fill="#013666"/>
<path d="M504.96 293.778C485.873 284.866 466.786 275.954 447.699 267.039C446.977 266.198 442.13 260.374 444.514 255.017C447.231 248.909 456.934 248.825 457.797 248.828C475.126 256.651 492.456 264.473 509.785 272.297C507.152 274.607 505.284 276.745 504 278.389C500.114 283.367 499.874 286.016 499.929 287.094C499.936 287.253 499.947 287.353 499.95 287.382C500.248 289.922 502.844 292.239 504.96 293.778H504.96Z" fill="white"/>
<path d="M523.785 266.58V277.141L474.002 273.9L466.87 264.38L523.785 266.58H523.785Z" fill="#57A8E5"/>
<path d="M467.017 261.682L523.854 264.614L523.709 267.374L466.87 264.44L467.017 261.682H467.017Z" fill="#94C9F7"/>
<path d="M500.195 285.377C505.969 285.723 514.29 285.294 522.878 281.285C524.561 280.5 526.102 279.649 527.509 278.769C527.431 275.185 527.355 271.601 527.277 268.018C526.256 267.812 524.866 267.715 523.804 268.476C523.054 269.012 522.845 269.708 522.183 270.992C522.183 270.992 521.482 272.357 519.869 274.652C517.275 278.34 509.759 275.157 504.522 278.713C503.057 279.707 501.273 281.566 500.195 285.377Z" fill="#EAB488"/>
<path d="M513.222 272.432C516.267 271.612 519.665 271.674 520.027 271.685C522.063 271.744 523.825 272.036 525.184 272.34C524.9 273.351 524.336 274.682 523.101 275.542C522.197 276.17 521.459 276.182 519.843 276.486C519.452 276.561 516.064 277.213 513.666 278.335C512.978 278.656 512.482 278.97 512.086 279.273C510.689 280.344 509.79 281.163 509.442 281.489C507.389 283.404 502.44 283.541 501.726 282.164C500.765 280.313 506.672 274.195 513.222 272.432Z" fill="#D6A27F"/>
<path d="M501.549 147.6C502.801 151.757 502.717 155.45 501.36 155.849C500.005 156.247 497.89 153.2 496.639 149.043C495.386 144.886 495.47 141.193 496.828 140.794C498.183 140.396 500.296 143.442 501.549 147.6Z" fill="#F8B586"/>
<path d="M533.863 148.846C532.859 153.069 530.929 156.233 529.553 155.914C528.176 155.594 527.872 151.912 528.875 147.69C529.879 143.467 531.809 140.303 533.187 140.623C534.564 140.942 534.866 144.624 533.863 148.846Z" fill="#DA9770"/>
<path d="M531.855 145.798C531.534 149.76 530.896 152.957 530.206 156.424C529.366 160.643 528.928 162.78 528.107 164.189C525.971 167.847 521.219 171.637 515.716 171.301C515.544 171.291 515.376 171.277 515.209 171.259C509.458 170.646 505.943 165.755 505.373 164.959C503.735 162.682 502.431 157.454 499.89 147.09C499.701 146.329 499.611 145.947 499.575 145.798C498.003 139.182 496.641 133.015 500.334 127.5C503.635 122.57 509.894 120.293 515.209 120.288C515.379 120.288 515.547 120.29 515.716 120.295C521.2 120.441 527.305 123.008 530.446 127.974C532.973 131.971 532.601 136.58 531.855 145.798Z" fill="#F8B586"/>
<path d="M531.758 145.798C531.437 149.76 530.799 152.957 530.109 156.424C529.269 160.643 528.832 162.78 528.01 164.189C525.874 167.847 521.122 171.637 515.619 171.301C515.447 171.291 515.279 171.277 515.112 171.259V120.288C515.282 120.288 515.45 120.29 515.619 120.295C521.103 120.441 527.208 123.008 530.349 127.974C532.876 131.971 532.504 136.58 531.758 145.798V145.798Z" fill="#DA9770"/>
<path d="M504.405 121.715C502.18 121.067 500.058 122.596 499.308 123.136C499.043 123.327 497.85 124.213 496.957 125.847C495.916 127.753 495.904 129.539 495.912 130.754C495.915 131.399 495.966 132.213 496.695 135.274C497.66 139.318 498.216 141.593 499.593 144.434C500.142 145.565 500.661 146.457 501.008 147.025C501.053 146.019 501.08 144.381 500.877 142.376C500.468 138.322 499.561 137.103 499.832 134.112C499.995 132.294 500.181 130.259 501.661 129.076C503.875 127.307 506.823 129.167 507.803 127.784C508.791 126.392 507.206 122.531 504.405 121.715Z" fill="#013666"/>
<path d="M530.271 152.876C530.257 152.874 531.55 150.047 530.924 146.678C530.575 144.808 529.94 144.412 530.009 142.675C530.079 140.891 530.783 140.419 530.531 138.93C530.274 137.407 529.436 137.318 529.094 135.961C528.591 133.966 530.115 133.036 530.531 130.666C531.189 126.922 528.267 124.218 528.833 123.822C529.412 123.417 532.935 125.93 533.929 129.762C534.166 130.674 534.228 131.537 533.929 134.282C533.468 138.531 532.77 141.521 531.838 145.839C531.838 145.839 530.319 152.887 530.271 152.876Z" fill="#013666"/>
<path d="M518.2 123.458C517.561 124.841 521.327 127.706 522.464 128.572C523.803 129.59 527.904 132.709 532.315 131.722C533.053 131.557 534.531 131.227 534.797 130.302C535.322 128.483 530.777 125.841 530.224 125.524C525.434 122.786 518.946 121.845 518.2 123.458Z" fill="#020A54"/>
<path d="M519.628 125.859C519.178 127.123 518.134 129.338 515.976 130.179C513.422 131.174 510.859 129.636 507.219 127.452C504.724 125.956 503.25 125.041 502.66 123.185C501.859 120.671 503.283 118.332 503.422 118.111C506.06 113.922 512.989 114.367 514.662 114.495C517.665 114.726 520.105 115.983 524.986 118.498C524.986 118.498 533.087 122.673 533.872 126.375C533.916 126.58 534.019 127.102 533.741 127.537C533.215 128.366 531.576 128.465 530.398 128.001C529.268 127.558 529.273 126.88 527.992 125.73C527.319 125.125 525.669 123.644 523.652 123.665C521.54 123.688 520.052 125.349 519.628 125.859Z" fill="#013666"/>
<path d="M527.712 144.494L527.518 146.843C527.428 147.939 526.638 148.843 525.555 149.092L521.942 149.927C520.617 150.233 519.284 149.461 518.908 148.165L517.987 144.983C517.766 144.215 517.917 143.409 518.402 142.772C518.889 142.133 519.631 141.768 520.441 141.768H525.17C525.89 141.768 526.557 142.056 527.045 142.581C527.534 143.105 527.771 143.784 527.712 144.494ZM529.22 144.13C529.192 143.43 528.978 142.75 528.603 142.158C528.472 141.952 528.321 141.755 528.151 141.574C527.386 140.753 526.298 140.283 525.17 140.283H520.441C519.156 140.283 517.975 140.864 517.202 141.878C516.817 142.38 516.565 142.948 516.453 143.541C516.353 144.051 516.359 144.579 516.468 145.1C516.488 145.197 516.513 145.295 516.541 145.392L517.462 148.574C517.97 150.328 519.586 151.48 521.356 151.48C521.661 151.48 521.975 151.446 522.286 151.374L525.898 150.54C527.176 150.244 528.195 149.375 528.695 148.236C528.869 147.841 528.98 147.413 529.017 146.964L529.025 146.862V146.859L529.211 144.614C529.225 144.452 529.228 144.291 529.22 144.13Z" fill="#013666"/>
<path d="M512.229 145.607L511.302 148.81C510.928 150.099 509.6 150.871 508.279 150.565L504.65 149.727C503.57 149.478 502.787 148.577 502.695 147.486L502.5 145.121C502.442 144.413 502.679 143.735 503.165 143.214C503.653 142.691 504.315 142.405 505.035 142.405H509.786C510.591 142.405 511.33 142.768 511.816 143.404C512.3 144.039 512.45 144.842 512.229 145.607ZM513.64 143.695C513.503 143.275 513.295 142.875 513.016 142.509C512.244 141.499 511.066 140.918 509.786 140.918H505.035C503.908 140.918 502.824 141.388 502.061 142.207C501.663 142.633 501.367 143.135 501.191 143.676C501.102 143.937 501.043 144.208 501.013 144.482V144.485C500.985 144.735 500.981 144.989 501.001 145.241L501.035 145.655V145.656L501.038 145.702L501.051 145.824V145.827L501.197 147.607C501.272 148.506 501.643 149.325 502.223 149.96V149.962C502.763 150.551 503.482 150.982 504.309 151.174L507.936 152.012C508.248 152.084 508.558 152.118 508.863 152.118C510.63 152.118 512.24 150.968 512.746 149.219L513.675 146.015C513.75 145.761 513.798 145.502 513.818 145.245C513.865 144.717 513.804 144.192 513.64 143.695Z" fill="#013666"/>
<path d="M517.391 145.013L512.986 145.273L512.891 143.717L517.297 143.457L517.391 145.013Z" fill="#013666"/>
<path d="M531.285 142.271C530.339 143.121 529.392 143.971 528.446 144.822C528.286 144.058 528.127 143.295 527.966 142.532C529.043 141.888 530.12 141.245 531.195 140.601C531.226 141.157 531.255 141.714 531.285 142.271Z" fill="#013666"/>
<path d="M501.894 146.957C501.181 145.932 500.468 144.906 499.755 143.881C499.742 143.264 499.731 142.646 499.719 142.029C500.44 142.849 501.16 143.668 501.882 144.488C501.886 145.311 501.889 146.134 501.894 146.957Z" fill="#013666"/>
<path d="M530.455 154.565C529.615 158.339 528.775 162.112 527.935 165.886C527.53 166.39 522.956 171.891 515.579 171.398C515.438 171.389 515.297 171.378 515.159 171.364C509.364 170.801 505.969 166.833 505.381 166.123C504.182 162.468 502.982 158.813 501.782 155.158C506.24 155.066 510.699 154.974 515.159 154.881C520.257 154.776 525.357 154.671 530.455 154.565Z" fill="#B4D5F9"/>
<path d="M530.408 154.565C529.569 158.339 528.729 162.112 527.889 165.886C527.484 166.39 522.909 171.891 515.533 171.398C515.391 171.389 515.251 171.378 515.112 171.364V154.881C520.21 154.776 525.31 154.671 530.408 154.565Z" fill="#92C0EA"/>
<path d="M505.291 159.812L503.41 160.64C501.229 154.013 499.046 147.386 496.863 140.759C497.463 140.878 498.063 140.996 498.662 141.115C500.872 147.347 503.081 153.579 505.291 159.812Z" fill="#B4D5F9"/>
<path d="M527.649 157.195C528.31 157.61 528.969 158.024 529.629 158.44C530.778 152.334 531.928 146.23 533.077 140.125C532.478 140.243 531.878 140.362 531.278 140.48C530.069 146.052 528.858 151.623 527.649 157.195Z" fill="#92C0EA"/>
<path d="M589.745 249.554C585.376 252.485 578.949 249.154 573.952 246.567C568.441 243.714 558.185 237.095 549.92 221.89C550.322 216.966 550.379 210.78 549.38 203.751C548.104 194.777 545.537 187.465 543.201 182.178C544.983 182.219 547.252 182.478 549.74 183.304C555.868 185.338 559.463 189.533 560.956 191.528L592.77 233.948C596.282 239.062 594.921 246.084 589.745 249.554V249.554Z" fill="#DFF0FF"/>
<path d="M575.67 187.186C576.447 187.9 575.941 189.644 575.693 190.498C575.202 192.194 574.606 192.46 574.294 193.92C574.026 195.173 574.306 195.73 574.294 196.687C574.253 199.664 571.425 203.212 568.473 203.603C566.996 203.8 567.066 202.997 563.241 202.148C560.232 201.48 559.613 201.849 558.156 200.982C556.09 199.755 555.283 197.791 555.135 197.414C554.903 196.824 554.459 195.649 554.693 194.212C554.912 192.869 555.634 191.836 556.315 190.862C557.119 189.712 557.558 189.481 557.862 188.532C558.061 187.91 558.026 187.528 558.008 186.348C557.949 182.159 558.322 181.77 558.524 181.616C558.65 181.521 558.621 181.584 560.956 181.47C562.081 181.415 562.594 181.375 563.167 181.689C563.591 181.921 563.641 182.124 563.904 182.125C564.616 182.13 564.735 180.653 565.598 180.232C566.778 179.658 568.733 181.35 569.21 181.761C571.849 184.044 571.855 186.528 573.851 186.931C574.701 187.102 575.199 186.754 575.67 187.186Z" fill="#F8B586"/>
<path d="M558.313 197.611C557.741 197.826 557.186 197.695 556.734 197.566C555.282 197.153 554.403 196.067 554.003 195.481C553.252 192.445 552.499 189.409 551.747 186.373C551.341 185.326 551.876 184.141 552.935 183.74C553.995 183.339 555.195 183.868 555.601 184.915L559.501 194.978C559.907 196.025 559.372 197.209 558.313 197.611Z" fill="#EAB488"/>
<path d="M559.775 184.791C558.968 184.733 558.454 184.166 558.454 184.166C558.125 183.805 557.935 183.322 557.962 182.802L558.917 164.77C558.973 163.73 559.878 162.924 560.93 162.979C561.983 163.033 562.798 163.928 562.744 164.968C562.708 170.707 562.673 176.446 562.638 182.185C562.044 183.831 560.849 184.869 559.775 184.791Z" fill="#EAB488"/>
<path d="M566.399 182.148C565.845 182.377 565.028 182.713 564.48 182.318C563.967 181.949 563.835 181.05 564.185 180.134C564.62 177.85 565.056 175.567 565.491 173.283C565.586 172.327 566.454 171.62 567.422 171.712C568.391 171.805 569.106 172.663 569.012 173.62L568.33 180.577C568.045 180.983 567.436 181.721 566.399 182.148Z" fill="#DA9770"/>
<path d="M566.698 178.301C565.73 178.208 565.015 177.35 565.108 176.393L565.412 173.283C565.506 172.327 566.375 171.62 567.343 171.712C568.312 171.805 569.027 172.663 568.933 173.62L568.628 176.73C568.535 177.686 567.667 178.393 566.698 178.301Z" fill="#EAB488"/>
<path d="M569.77 184.147C568.827 183.913 568.249 182.959 568.486 182.026L570.209 175.247C570.446 174.315 571.412 173.744 572.355 173.978C573.299 174.213 573.877 175.167 573.64 176.099C573.151 178.718 572.662 181.338 572.172 183.957C572.336 184.755 572.303 185.515 571.951 185.704C571.529 185.933 570.588 185.369 569.77 184.147Z" fill="#DA9770"/>
<path d="M570.721 180.561C569.779 180.327 569.201 179.372 569.438 178.44L570.168 175.564C570.405 174.632 571.371 174.061 572.314 174.295C573.258 174.53 573.836 175.484 573.599 176.416L572.867 179.292C572.63 180.224 571.666 180.795 570.721 180.561Z" fill="#EAB488"/>
<path d="M573.23 188.614C573.044 188.531 572.516 188.294 572.244 187.7C572.055 187.292 572.024 186.814 572.195 186.364L574.68 179.82C575.022 178.92 576.045 178.46 576.957 178.797C577.867 179.135 578.333 180.147 577.992 181.047C577.348 183.394 576.706 185.742 576.063 188.089C575.98 188.151 574.532 189.197 573.23 188.614Z" fill="#DA9770"/>
<path d="M574.657 185.13C573.746 184.793 573.282 183.78 573.623 182.881L574.784 179.82C575.126 178.92 576.15 178.46 577.062 178.797C577.971 179.135 578.437 180.147 578.096 181.047L576.934 184.108C576.593 185.008 575.567 185.468 574.657 185.13Z" fill="#EAB488"/>
<path d="M560.17 185.348C560.377 185.645 560.48 186.032 560.686 186.805C560.834 187.368 560.989 187.962 561.053 188.77C561.116 189.548 561.151 190.008 560.98 190.591C560.852 191.024 560.609 191.846 559.949 192.12C559.101 192.471 557.939 191.923 557.516 191.1C557.219 190.521 557.34 189.908 557.4 189.605C557.546 188.863 557.851 188.852 558.068 188.11C558.204 187.647 558.172 187.068 558.101 185.93C558.026 184.717 557.929 184.469 558.116 184.325C558.5 184.029 559.606 184.544 560.17 185.348Z" fill="#F9CDAF"/>
<path d="M559.864 201.536C559.846 201.376 560.784 201.314 561.992 200.714C562.687 200.368 563.427 200.008 563.982 199.257C564.703 198.282 564.597 197.425 565.16 197.292C565.451 197.224 565.63 197.417 566.118 197.655C567.16 198.166 568.148 198.166 568.697 198.165C569.024 198.165 570.155 198.137 571.423 197.51C571.987 197.231 572.042 196.97 573.634 195.69C573.899 195.477 574.12 195.304 574.265 195.191C574.36 195.701 574.443 196.473 574.303 197.387C574.105 198.691 573.564 199.586 573.237 200.112C572.715 200.955 571.9 202.269 570.227 202.999C569.854 203.162 568.782 203.613 567.442 203.47C566.183 203.335 566.143 202.828 564.047 202.27C562.762 201.928 561.699 201.792 561.699 201.792C560.593 201.65 559.881 201.677 559.864 201.536Z" fill="#D38A66"/>
<path d="M595.033 253.419C591.306 255.146 586.281 252.693 584.851 251.994C581.288 250.255 579.166 247.712 578.126 246.255C574.42 237.059 570.711 227.863 567.004 218.665C568.472 216.959 576.035 207.952 578.935 208.726C583.65 209.983 595.798 229.857 598.899 235.978C601.515 244.153 599.301 251.444 595.033 253.419Z" fill="white"/>
<path d="M556.489 201.669C555.964 202.226 557.238 204.569 559.811 209.229C562.754 214.566 562.177 212.798 563.534 215.496C564.116 216.651 564.357 217.243 565.083 217.81C566.726 219.095 568.966 218.771 570.985 218.482C572.112 218.318 574.449 217.956 577.026 216.392C579.976 214.599 583.425 211.78 583.527 209.778C583.647 207.414 577.235 198.338 576.289 198.207C575.502 198.097 565.156 203.033 562.126 202.863C558.832 202.679 557.16 200.956 556.489 201.669Z" fill="white"/>
<path d="M262.471 552.485C263.125 552.049 264.038 551.298 264.582 550.109C265.174 548.814 265.169 547.351 263.526 542.192C262.061 537.591 261.497 536.977 261.151 534.54C260.864 532.52 260.962 530.912 261.151 528.998C261.72 523.221 262.827 517.484 263.79 513.165C258.688 506.831 253.586 500.499 248.485 494.165C246.716 494.377 244.155 494.899 241.36 496.276C239.311 497.286 237.737 498.457 236.609 499.442C236.802 501.007 237.213 503.453 238.192 506.304C239.719 510.746 241.07 511.636 242.943 516.332C243.46 517.627 243.566 518.085 245.582 525.567C247.262 531.804 248.1 534.922 248.22 535.332C249.516 539.762 252.952 545.773 262.471 552.485Z" fill="#013666"/>
<path d="M260.296 557.672C258.699 556.262 256.552 554.235 254.227 551.603C250.878 547.814 248.426 545.037 246.573 541.047C243.703 534.863 245.302 532.283 242.088 524.95C240.801 522.013 239.379 519.772 238.393 518.353C236.648 516.122 233.937 511.932 233.379 506.214C233.228 504.671 233.258 503.252 233.379 501.991C234.434 501.552 235.49 501.112 236.545 500.671C239.573 509.724 243.611 519.9 249.054 530.701C253.424 539.372 257.99 547.04 262.407 553.715C261.703 555.033 261 556.352 260.296 557.672Z" fill="white"/>
<path d="M320.263 465.544C306.006 478.09 293.852 487.415 291.763 489.03C284.655 494.517 274.781 502.789 263.79 514.363C261.836 514.535 257.69 514.608 253.498 512.252C244.977 507.465 244.27 497.148 244.226 496.308C253.078 491.775 262.011 485.371 269.331 476.099C276.479 467.048 276.079 462.873 283.846 454.724C288.112 450.246 298.253 439.604 312.346 439.419C320.917 439.305 332.042 443.045 333.193 449.182C333.873 452.806 330.875 456.203 320.263 465.544Z" fill="#1A5DA0"/>
<path d="M307.121 553.479C304.203 554.082 301.788 554.361 300.099 554.504C296.531 554.805 296.873 554.415 293.633 554.767C290.739 555.082 289.303 555.52 287.299 554.9C286.358 554.608 285.1 554.272 284.265 553.184C283.073 551.634 283.173 549.188 284.396 546.85C292.112 547.076 299.826 547.302 307.542 547.527C307.785 548.22 308.148 549.56 307.883 551.205C307.726 552.178 307.4 552.949 307.121 553.479Z" fill="white"/>
<path d="M306.28 549.478C307.493 548.149 307.948 545.553 307.071 543.936C306.667 543.193 306.241 543.13 305.737 542.233C304.802 540.561 305.139 538.741 305.223 538.13C305.787 534.073 303.475 524.227 298.363 522.297C296.122 521.451 293.888 522.328 293.349 522.56C290.695 523.704 289.548 526.251 288.863 527.839C286.92 532.328 288.984 533.456 287.278 538.13C286.016 541.593 284.346 542.446 284.375 545.519C284.386 546.507 284.405 548.478 285.695 549.742C287.426 551.437 289.746 550.19 295.46 550.005C302.21 549.787 304.572 551.343 306.28 549.478Z" fill="#013666"/>
<path d="M288.583 437.811C295.191 473.341 298.494 491.107 299.403 508.798C299.473 510.15 299.563 512.091 300.194 514.603C300.97 517.69 301.855 518.832 302.834 521.992C303.296 523.491 303.868 525.723 304.153 528.589C302.629 527.687 300.38 526.702 297.82 527.006C292.511 527.638 290.515 533.263 287.791 532.811C284.607 532.283 283.583 523.96 283.042 520.409C280.903 506.406 277.447 509.115 270.903 487.687C266.525 473.355 266.137 463.09 265.361 442.56C265.281 440.458 265.171 435.937 268 432.005C271.364 427.328 278.271 424.344 282.777 426.463C286.746 428.33 287.812 433.663 288.583 437.811V437.811Z" fill="#57A8E5"/>
<path d="M323.183 458.368L323.743 458.275C324.74 458.06 329.766 456.87 332.94 451.966C335.661 447.764 335.293 443.501 335.148 442.303C328.842 411.064 322.537 379.826 316.231 348.589C314.352 348.122 301.563 345.168 290.343 353.404C282.786 358.951 280.123 366.506 279.297 369.264C288.602 395.163 297.906 421.064 307.211 446.963C308.467 454.492 315.654 459.624 323.183 458.368Z" fill="#1A5DA0"/>
<path d="M276.005 442.206C281.507 442.753 285.415 438.803 286.289 437.929C288.928 435.289 290.566 431.648 290.566 427.645C293.076 398.511 295.586 369.377 298.096 340.244C295.421 338.258 291.44 335.552 286.289 332.908C282.386 330.906 279.573 329.489 276.005 328.631C273.386 328.001 262.972 325.499 255.443 331.18C248.799 336.194 246.242 346.191 248.928 356.104C254.366 381.595 259.804 407.085 265.243 432.575C266.872 437.899 271.136 441.72 276.005 442.206V442.206Z" fill="#57A8E5"/>
<path d="M234.686 289.476C234.564 293.428 234.539 296.821 234.547 299.497C234.557 302.706 234.605 301.513 234.686 307.847C234.715 310.123 234.737 312.482 234.977 315.64C235.294 319.787 235.63 320.617 235.939 321.208C236.906 323.054 239.064 325.316 241.506 325.52C247.628 326.035 252.539 313.356 253.056 312.022C254.92 307.209 255.273 302.934 255.283 300.193C255.301 294.498 253.852 290.019 252.777 287.39C246.747 288.085 240.717 288.781 234.686 289.476Z" fill="#DA9770"/>
<path d="M274.793 250.732C267.177 250.736 261.418 252.485 257.673 253.655C250.346 255.944 245.143 257.569 240.972 262.423C237.106 266.921 236.044 271.962 234.708 278.291C233.51 283.972 233.37 288.8 233.456 292.069C240.554 292.764 247.652 293.461 254.75 294.157V284.553C254.75 284.389 256.157 297.704 255.168 310.441C254.439 319.826 252.138 333.634 244.651 350.044C249.574 353.882 257.145 358.684 267.276 361.381C291.982 367.956 312.83 356.933 318.216 353.865C317.506 350.194 316.354 344.299 314.891 337.015C312.041 322.838 311.177 319.181 310.358 312.941C309.762 308.381 309.087 301.66 309.031 293.322C313.624 292.208 318.216 291.094 322.809 289.982C320.165 281.491 317.521 273.001 314.877 264.511C313.093 263.49 310.362 261.982 306.943 260.337C296.318 255.217 287.001 250.728 274.793 250.732L274.793 250.732Z" fill="white"/>
<path d="M263.745 251.9C266.907 255.569 269.359 256.716 271.566 257.773C276.874 260.311 284.339 262.815 287.43 258.891C288.135 257.997 288.177 254.636 288.44 252.833C289.169 247.83 289.788 245.68 288.822 243.159C284.183 242.509 279.545 241.861 274.906 241.211C273.646 242.987 272.525 246.104 269.73 248.28C267.55 249.979 265.451 251.126 263.745 251.9Z" fill="#DA9770"/>
<path d="M270.549 217.764C269.397 219.655 269.318 223.9 269.157 232.388C269.111 234.827 269.126 238.06 269.714 242.092C270.047 244.381 270.214 245.527 270.549 246.48C272.375 251.675 278.718 257.15 284.187 256.052C287.582 255.369 289.446 252.392 291.981 248.34C293.71 245.576 295.022 242.625 297.129 234.515C299.709 224.585 300.97 219.568 299.496 216.966C296.041 210.869 286.512 210.598 285.717 210.586C280.239 210.5 273.578 212.787 270.549 217.764Z" fill="#F8B586"/>
<path d="M298.737 217.677C297.284 218.446 295.207 219.303 292.613 219.626C286.177 220.425 281.233 217.352 279.671 216.285C278.546 219.486 278.431 222.022 278.557 223.8C278.655 225.173 278.908 226.266 278.278 226.862C277.308 227.781 274.927 226.862 272.99 225.888C272.725 226.933 272.319 228.429 271.737 230.202C270.496 233.995 269.875 235.891 269.224 235.91C267.831 235.95 266.181 229.264 265.893 223.382C265.746 220.402 265.589 216.372 267.284 211.553C268.415 208.342 269.635 204.872 272.851 202.508C279.103 197.91 287.845 201.204 289.83 201.95C292.294 202.879 300.201 205.858 302.216 213.362C303.981 219.94 300.365 226.812 299.308 226.637C298.79 226.552 298.402 224.68 298.737 217.677Z" fill="#013666"/>
<path d="M239.595 314.096C241.626 311.882 243.776 310.804 244.466 310.478C248.553 308.551 250.258 309.973 255.46 308.669C258.732 307.849 260.993 306.55 264.089 304.772C266.618 303.32 268.419 301.949 272.022 299.206C275.337 296.681 277.181 295.278 279.398 293.222C285.414 287.642 285.622 284.959 287.609 285.01C292.287 285.133 297.659 300.046 293.778 303.413C292.226 304.76 289.429 304.06 287.55 303.395C287.333 303.956 286.863 304.919 285.881 305.691C283.669 307.43 280.87 306.631 280.552 306.534C279.222 308.457 277.029 311.344 273.831 314.375C271.423 316.656 268.343 318.756 262.28 322.863C256.009 327.112 254.142 328.121 252.26 328.987C247.79 331.048 245.345 332.131 242.38 331.354C239.304 330.547 236.373 327.921 235.56 324.534C234.412 319.752 238.045 315.788 239.595 314.096Z" fill="#F8B586"/>
<path d="M299.449 288.35H287.051C286.627 288.35 286.279 288.003 286.279 287.579V285.781C286.279 285.357 286.627 285.01 287.051 285.01H299.449C299.872 285.01 300.22 285.357 300.22 285.781V287.579C300.22 288.003 299.872 288.35 299.449 288.35Z" fill="#F8B586"/>
<path d="M297.534 295.928L285.976 292.35C285.493 292.2 285.218 291.682 285.368 291.197L286.002 289.15C286.152 288.665 286.671 288.392 287.155 288.542L298.712 292.119C299.196 292.269 299.469 292.788 299.319 293.272L298.685 295.321C298.536 295.804 298.017 296.077 297.534 295.928Z" fill="#F8B586"/>
<path d="M295.642 299.855L284.064 296.27C283.585 296.122 283.316 295.609 283.464 295.133L284.09 293.109C284.238 292.632 284.749 292.361 285.228 292.509L296.808 296.094C297.284 296.242 297.555 296.755 297.407 297.233L296.781 299.255C296.633 299.732 296.12 300.002 295.642 299.855Z" fill="#F8B586"/>
<path d="M294.379 303.616L283.042 300.105C282.498 299.937 282.19 299.353 282.358 298.809L282.769 297.483C282.938 296.938 283.52 296.631 284.064 296.799L295.403 300.309C295.946 300.478 296.255 301.06 296.087 301.606L295.675 302.932C295.507 303.476 294.923 303.784 294.379 303.616Z" fill="#F8B586"/>
<path d="M301.706 290.751L297.488 287.904C296.726 287.39 296.523 286.346 297.038 285.586C297.552 284.824 298.596 284.621 299.356 285.136L303.574 287.984C304.336 288.498 304.538 289.54 304.024 290.302C303.51 291.063 302.466 291.265 301.706 290.751Z" fill="#F8B586"/>
<path d="M322.812 298.933L320.69 298.58C320.191 298.496 319.852 298.02 319.934 297.522L321.946 285.46C322.03 284.962 322.505 284.622 323.004 284.705L325.126 285.058C325.625 285.142 325.964 285.618 325.882 286.116L323.869 298.178C323.786 298.676 323.311 299.016 322.812 298.933Z" fill="#F8B586"/>
<path d="M312.579 301.165C317.51 294.733 322.44 288.301 327.372 281.869C327.336 281.156 327.3 280.44 327.264 279.725C322.584 279.583 317.903 279.44 313.222 279.297C307.362 285.729 301.502 292.161 295.642 298.593C295.678 299.093 295.714 299.593 295.75 300.093C301.359 300.45 306.97 300.808 312.579 301.165Z" fill="#013666"/>
<path d="M322.375 301.672C322.696 305.368 323.187 308.553 323.675 311.136C324.571 315.879 325.247 317.464 324.973 320.414C324.786 322.438 324.346 327.185 321.077 328.764C317.555 330.465 312.405 327.69 310.686 324.125C309.912 322.52 310.038 321.182 310.222 318.28C310.412 315.276 310.646 310.892 310.778 305.384C314.644 304.147 318.51 302.91 322.375 301.672Z" fill="#F8B586"/>
<path d="M317.365 309.316C319.102 308.492 320.013 307.257 320.891 306.069C322.729 303.583 323.198 301.181 323.303 300.596C323.524 299.352 323.79 297.855 323.211 296.051C322.611 294.185 321.438 293.012 320.808 292.468C318.184 295.362 315.429 298.293 312.541 301.245C310.92 302.902 309.306 304.514 307.703 306.083C307.939 306.51 309.638 309.463 313.019 310.01C315.132 310.351 316.816 309.578 317.365 309.316Z" fill="#DA9770"/>
<path d="M321.035 302.777L319.438 304.372C319.082 304.731 318.497 304.731 318.139 304.372L304.638 290.871C304.281 290.514 304.281 289.929 304.638 289.572L306.235 287.976C306.592 287.618 307.176 287.618 307.533 287.976L321.035 301.477C321.392 301.834 321.392 302.418 321.035 302.777Z" fill="#F8B586"/>
<path d="M320.317 298.806L318.906 298.999C318.178 299.099 317.5 298.584 317.402 297.857L315.967 287.353C315.867 286.626 316.381 285.95 317.109 285.85L318.521 285.657C319.248 285.558 319.925 286.073 320.024 286.799L321.459 297.302C321.558 298.03 321.045 298.707 320.317 298.806Z" fill="#F8B586"/>
<path d="M318.179 306.108L316.583 307.705C316.226 308.062 315.64 308.062 315.284 307.705L301.782 294.204C301.424 293.846 301.424 293.261 301.782 292.905L303.378 291.308C303.736 290.951 304.321 290.951 304.677 291.308L318.179 304.81C318.537 305.167 318.537 305.751 318.179 306.108Z" fill="#F8B586"/>
<path d="M313.304 307.088L311.532 308.861C311.224 309.169 310.717 309.169 310.409 308.861L301.111 299.562C300.801 299.253 300.801 298.749 301.111 298.439L302.883 296.667C303.192 296.358 303.698 296.358 304.006 296.667L313.304 305.964C313.614 306.274 313.614 306.779 313.304 307.088Z" fill="#F8B586"/>
</svg>
