<svg width="600" height="600" viewBox="0 0 600 600" fill="none" xmlns="http://www.w3.org/2000/svg">
<g clip-path="url(#clip0_37_11245)">
<path d="M360.697 421.471C418.415 363.753 418.415 270.174 360.698 212.457C302.981 154.74 209.402 154.74 151.684 212.458C93.9667 270.176 93.9663 363.754 151.684 421.471C209.401 479.189 302.979 479.188 360.697 421.471Z" fill="#C6DAFA"/>
<path d="M360.697 421.47C418.415 363.753 418.415 270.174 360.698 212.457C302.981 154.74 209.402 154.74 151.684 212.458C93.9667 270.176 93.9663 363.754 151.683 421.471C209.401 479.189 302.979 479.188 360.697 421.47Z" fill="#C6DAFA"/>
<path d="M541.839 104.375H433.144V276.565H541.839V104.375Z" fill="#C6DAFA"/>
<path d="M533.007 112.985H441.975V267.956H533.007V112.985Z" fill="white"/>
<path d="M545.904 100.309H427.284V106.612H545.904V100.309Z" fill="#91BDFF"/>
<path d="M545.904 110.089H427.284V116.392H545.904V110.089Z" fill="#91BDFF"/>
<path d="M545.904 119.869H427.284V126.172H545.904V119.869Z" fill="#91BDFF"/>
<path d="M545.904 129.649H427.284V135.952H545.904V129.649Z" fill="#91BDFF"/>
<path d="M545.904 139.429H427.284V145.732H545.904V139.429Z" fill="#91BDFF"/>
<path d="M545.904 149.208H427.284V155.51H545.904V149.208Z" fill="#91BDFF"/>
<path d="M545.904 158.988H427.284V165.29H545.904V158.988Z" fill="#91BDFF"/>
<path d="M545.904 168.768H427.284V175.07H545.904V168.768Z" fill="#91BDFF"/>
<path d="M545.904 178.548H427.284V184.85H545.904V178.548Z" fill="#91BDFF"/>
<path d="M545.904 100.309V214.506" stroke="#91BDFF" stroke-width="0.923077" stroke-miterlimit="10"/>
<path d="M548.11 213.071H543.698V224.191H548.11V213.071Z" fill="#91BDFF"/>
<path d="M457.392 229.872H446.782V268.004H457.392V229.872Z" fill="#C6DAFA"/>
<path d="M494.525 235.924H484.992V268.004H494.525V235.924Z" fill="#C6DAFA"/>
<path d="M507.456 242.339H497.923V268.004H507.456V242.339Z" fill="#C6DAFA"/>
<path d="M479.089 220.768H461.952V268.004H479.089V220.768Z" fill="#C6DAFA"/>
<path d="M527.845 220.768H510.708V268.004H527.845V220.768Z" fill="#C6DAFA"/>
<path d="M562.081 527.668H42.4309L73.7665 510.028H530.746L562.081 527.668Z" fill="#C6DAFA"/>
<path d="M561.21 527.668H42.4309V543.103H561.21V527.668Z" fill="#91BDFF"/>
<path d="M499.171 455.263C522.793 455.263 537.276 459.775 538.174 460.063C539.697 460.552 540.533 462.18 540.047 463.702C539.559 465.224 537.923 466.057 536.408 465.575C535.955 465.432 503.894 455.561 457.499 465.647C455.937 465.98 454.397 464.995 454.056 463.434C453.717 461.872 454.709 460.332 456.269 459.991C472.567 456.448 487.069 455.263 499.171 455.263Z" fill="#3763A6"/>
<path d="M482.327 436.64C482.742 435.844 490.782 407.227 486.533 406.834C482.282 406.44 484.165 409.042 481.843 410.97C479.521 412.898 474.631 384.221 472.375 389.322C470.119 394.423 474.311 400.56 471.082 399.179C467.852 397.798 462.042 371.273 457.903 373.772C453.764 376.272 459.749 385.571 456.25 385.872C452.75 386.173 433.465 377.329 430.97 389.294C428.477 401.26 454.908 403.199 457.542 406.496C460.176 409.795 444.408 411.292 452.268 414.277C460.128 417.263 473.441 421.11 468.515 422.347C467.466 422.61 453.22 416.846 453.956 427.057C454.314 432.004 482.327 436.64 482.327 436.64Z" fill="#2BA167"/>
<path d="M482.393 439.813C482.393 439.813 477.563 401.8 456.616 396.139" stroke="#1D402F" stroke-width="0.923077" stroke-miterlimit="10" stroke-linecap="round"/>
<path d="M497.228 467.591C519.45 467.591 537.464 465.139 537.464 462.114C537.464 459.089 519.45 456.637 497.228 456.637C475.007 456.637 456.992 459.089 456.992 462.114C456.992 465.139 475.007 467.591 497.228 467.591Z" fill="#1D402F"/>
<path d="M496.044 460.616C496.807 460.142 518.308 439.618 514.85 437.112C511.394 434.608 511.688 437.806 508.708 438.282C505.727 438.757 516.132 411.59 511.591 414.83C507.05 418.07 507.53 425.486 505.456 422.653C503.381 419.82 511.897 394.036 507.062 394.078C502.228 394.12 502.639 405.17 499.475 403.646C496.31 402.122 484.223 384.685 475.98 393.709C467.737 402.733 489.492 417.87 490.079 422.051C490.664 426.23 476.334 419.484 481.576 426.059C486.817 432.634 496.312 442.728 491.443 441.281C490.406 440.972 481.086 428.754 476.516 437.915C474.305 442.354 496.044 460.616 496.044 460.616Z" fill="#2BA167"/>
<path d="M494.449 469.414C494.449 469.414 509.699 428.212 494.56 412.667" stroke="#1D402F" stroke-width="0.923077" stroke-miterlimit="10" stroke-linecap="round"/>
<path d="M503.147 472.951C502.889 472.091 500.355 442.475 504.605 442.884C508.854 443.293 506.516 445.498 508.435 447.827C510.354 450.156 520.535 422.904 521.795 428.338C523.054 433.772 517.787 439.013 521.217 438.263C524.648 437.512 535.33 412.547 538.926 415.778C542.524 419.01 534.901 427.021 538.281 427.974C541.662 428.926 562.265 423.854 562.47 436.075C562.676 448.296 536.35 445.244 533.143 447.99C529.937 450.736 545.145 455.162 536.864 456.622C528.583 458.081 514.785 459.364 519.392 461.502C520.373 461.957 535.448 458.968 532.809 468.858C531.531 473.65 503.147 472.951 503.147 472.951Z" fill="#2BA167"/>
<path d="M498.52 480.602C498.52 480.602 514.358 439.624 535.996 437.99" stroke="#1D402F" stroke-width="0.923077" stroke-miterlimit="10" stroke-linecap="round"/>
<path d="M506.153 438.304C505.76 437.496 498.519 408.667 502.779 408.391C507.039 408.115 505.085 410.665 507.351 412.657C509.619 414.649 515.306 386.119 517.42 391.282C519.533 396.444 515.171 402.461 518.437 401.171C521.703 399.881 528.251 373.528 532.319 376.142C536.387 378.756 530.146 387.884 533.634 388.284C537.124 388.682 556.647 380.378 558.807 392.408C560.967 404.438 534.492 405.64 531.767 408.864C529.042 412.087 544.763 414.023 536.821 416.789C528.881 419.555 515.466 423.03 520.356 424.403C521.396 424.696 535.799 419.33 534.778 429.517C534.283 434.449 506.153 438.304 506.153 438.304Z" fill="#2BA167"/>
<path d="M502.811 446.597C502.811 446.597 511.886 403.61 532.982 398.536" stroke="#1D402F" stroke-width="0.923077" stroke-miterlimit="10" stroke-linecap="round"/>
<path d="M490.048 468.278C490.332 467.426 493.739 437.898 489.48 438.181C485.221 438.466 487.493 440.736 485.504 443.008C483.517 445.279 474.148 417.738 472.728 423.132C471.308 428.526 476.419 433.921 473.012 433.069C469.606 432.217 459.667 406.948 455.976 410.071C452.285 413.195 459.667 421.428 456.26 422.28C452.854 423.132 432.41 417.454 431.843 429.662C431.275 441.871 457.68 439.6 460.804 442.439C463.927 445.278 448.595 449.254 456.828 450.956C465.062 452.66 478.817 454.35 474.148 456.352C473.154 456.778 458.174 453.343 460.519 463.308C461.654 468.137 490.048 468.278 490.048 468.278Z" fill="#2BA167"/>
<path d="M490.616 471.402C490.616 471.402 479.827 434.633 458.249 432.361" stroke="#1D402F" stroke-width="0.923077" stroke-miterlimit="10" stroke-linecap="round"/>
<path d="M522.868 518.214L521.108 518.629C505.012 522.424 487.543 522.569 471.314 519.044L456.937 462.262C482.167 467.928 509.358 468.124 534.76 462.823L537.45 462.262L522.868 518.214Z" fill="#3763A6"/>
<path d="M458.807 469.645C464.173 471.013 476.899 473.662 495.002 473.662C506.522 473.662 520.238 472.562 535.589 469.403L537.2 463.22C537.026 463.225 536.851 463.241 536.676 463.279C490.28 473.365 458.219 463.494 457.766 463.351C457.573 463.29 457.378 463.25 457.183 463.231L458.807 469.645Z" fill="#24416E"/>
<path d="M495.002 471.162C471.38 471.162 456.898 466.649 456 466.362C454.477 465.874 453.641 464.245 454.128 462.724C454.616 461.201 456.252 460.368 457.766 460.85C458.22 460.993 490.28 470.864 536.676 460.778C538.238 460.445 539.778 461.43 540.119 462.991C540.458 464.554 539.467 466.093 537.906 466.434C521.606 469.978 507.104 471.162 495.002 471.162Z" fill="#3763A6"/>
<path d="M349.225 498.656L107.094 504.889L47.4158 339.776L289.547 333.542L349.225 498.656Z" fill="#424242"/>
<path d="M462.364 511.789L220.232 518.022L107.084 504.523L349.216 498.29L462.364 511.789Z" fill="#333333"/>
<path d="M337.473 489.145L114.801 494.876L61.7258 347.926L284.398 342.193L337.473 489.145Z" fill="#3763A6"/>
<path d="M107.084 504.523L220.232 518.022L220.583 531.626L107.874 516.295L107.084 504.523Z" fill="#1A1A1A"/>
<path d="M220.233 518.022L462.364 511.789L462.627 521.993L220.583 531.626L220.233 518.022Z" fill="black"/>
<path d="M279.041 347.236L330.361 489.328L337.473 489.145L284.398 342.193L61.7258 347.926L63.4802 352.784L279.041 347.236Z" fill="#122138"/>
<path d="M47.4158 339.776L45.9458 341.717L107.874 516.295L107.085 504.523L47.4158 339.776Z" fill="black"/>
<path d="M338.944 510.233L281.978 511.699L255.359 508.524L312.324 507.058L338.944 510.233Z" fill="#424242"/>
<path d="M349.223 0V108.805" stroke="#424242" stroke-width="0.923077" stroke-miterlimit="10" stroke-linecap="round"/>
<path d="M308.683 165.89H391.975L349.558 119.206L308.683 165.89Z" fill="#C6DAFA"/>
<path d="M360.201 101.724H339.635V132.161H360.201V101.724Z" fill="#C6DAFA"/>
<path d="M339.635 130.568L360.175 130.722L336.473 134.192L339.635 130.568Z" fill="#3763A6"/>
<path d="M252.828 147.232C252.828 147.232 261.449 186.258 247.783 182.087C234.118 177.914 232.908 146.652 232.908 146.652L252.828 147.232Z" fill="#1A1A1A"/>
<path d="M270.512 359.389C275.664 376.133 281.485 391.757 286.849 400.65C294.324 423.536 303.952 427.73 303.952 427.73L321.073 421.513C323.772 420.402 324.006 415.618 323.345 412.981L307.954 334.118L307.702 334.212" fill="#FCBC76"/>
<path d="M307.701 334.211L284.804 263.107C240.848 256.019 256.713 303.402 256.713 303.402C258.966 316.979 264.243 339.012 270.512 359.388" fill="white"/>
<path d="M315.683 332.16C315.683 332.16 285.196 326.538 270.959 348.77L277.362 365.568L279.356 365.636C294.017 366.142 308.438 361.828 320.414 353.356L315.683 332.16Z" fill="white"/>
<path d="M312.566 338.238C312.566 338.238 306.715 343.956 296.024 347.233C285.334 350.512 273.68 350.542 274.504 347.96C275.327 345.379 275.866 346.28 275.866 346.28L277.482 348.986C277.482 348.986 300.361 346.912 310.472 338.581L309.881 334.691C309.881 334.691 311.803 334.843 312.566 338.238Z" fill="#ADADAD"/>
<path d="M147.262 261.714L221.098 241.66L284.807 263.234L147.262 261.714Z" fill="white"/>
<path d="M289.763 490.373L289.475 447.732L291.712 378.299C293.58 352.129 288.396 284.303 273.958 262.396L237.767 249.755L234.066 256.056L228.144 259.739L201.155 247.208L150.941 260.974L163.303 493.626L289.763 490.373Z" fill="white"/>
<path d="M231.254 264.539C233.136 274.189 234.89 283.866 236.543 293.562C238.091 303.272 239.508 313.003 240.868 322.745C243.527 342.235 245.512 361.811 247.33 381.403C248.772 401.027 249.973 420.678 250.38 440.358C250.382 450.204 250.583 460.042 250.249 469.882C250.032 479.72 250.05 481.613 249.443 491.418L248.806 491.432C249.612 471.802 249.168 460.052 248.57 440.417C247.819 420.786 246.631 401.173 245.006 381.595C243.364 362.018 241.386 342.47 239.063 322.961C236.723 303.456 234.115 283.978 231.025 264.576L231.254 264.539Z" fill="#ADADAD"/>
<path d="M223.993 272.635C223.386 272.646 222.775 272.4 222.346 271.964C221.895 271.553 221.627 270.95 221.616 270.344C221.604 269.714 221.85 269.126 222.286 268.674C223.134 267.794 224.698 267.766 225.577 268.613C226.029 269.048 226.273 269.627 226.285 270.257C226.296 270.863 226.074 271.475 225.639 271.902C225.203 272.356 224.623 272.624 223.993 272.635Z" fill="#ADADAD"/>
<path d="M242.034 468.151C240.75 468.175 239.68 467.12 239.68 465.836C239.656 464.554 240.688 463.507 241.97 463.483C243.277 463.459 244.325 464.514 244.348 465.797C244.349 467.082 243.34 468.127 242.056 468.151C242.034 468.151 242.034 468.151 242.034 468.151ZM238.396 426.659C238.325 425.375 239.308 424.26 240.614 424.212C241.898 424.141 242.99 425.125 243.06 426.408C243.131 427.692 242.147 428.807 240.84 428.855C240.818 428.878 240.794 428.879 240.77 428.879C239.512 428.902 238.466 427.916 238.396 426.659ZM235.735 387.528C235.64 386.246 236.578 385.108 237.883 384.99C239.165 384.895 240.281 385.855 240.398 387.138C240.491 388.42 239.532 389.536 238.25 389.653C238.204 389.654 238.157 389.654 238.11 389.656C236.896 389.678 235.852 388.764 235.735 387.528ZM231.978 348.466C231.838 347.183 232.774 346.022 234.055 345.882C235.337 345.742 236.498 346.679 236.615 347.959C236.755 349.241 235.842 350.378 234.56 350.519C234.49 350.543 234.42 350.544 234.35 350.545C233.161 350.567 232.117 349.676 231.978 348.466ZM227.29 309.49C227.125 308.208 228.037 307.024 229.318 306.859C230.575 306.696 231.76 307.585 231.923 308.867C232.087 310.147 231.198 311.332 229.916 311.495C229.823 311.496 229.729 311.498 229.636 311.5C228.47 311.522 227.452 310.676 227.29 309.49Z" fill="#ADADAD"/>
<path d="M210.22 261.512L201.842 247.63L196.516 202.352L224.716 194.347L239.44 255.854C240.794 266.167 218.119 268.278 210.22 261.512Z" fill="#FCBC76"/>
<path d="M229.103 239.996C231.251 239.683 233.249 238.93 235.074 237.875L224.714 194.348L196.514 202.354L199.031 223.739L199.651 224.716L216.466 236.804C220.218 239.501 224.713 240.636 229.103 239.996Z" fill="#E3923C"/>
<path d="M234.758 236.612C242.581 235.908 249.025 229.795 250.734 221.458L255.844 196.536C256.558 193.055 256.644 189.481 256.092 185.971C254.045 172.964 251.23 159.041 248.272 151.668L247.824 148.094C242.406 134.592 229.402 134.492 216.03 135.697C201.352 137.018 196.762 148.17 195.209 164.138L186.979 172.37C186.277 179.588 187.795 186.893 191.296 193.141L203.556 216.856C204.211 218.124 205.133 219.238 206.256 220.12L222.314 232.73C225.914 235.628 230.34 237.011 234.758 236.612Z" fill="#FCBC76"/>
<path d="M194.626 198.354C194.626 198.354 200.241 172.465 198.388 161.726C198.388 161.726 249.667 175.404 254.46 150.046C254.46 150.046 259.825 132.565 241.759 132.72C223.233 132.878 183.633 127.583 184.337 159.433C185.239 200.21 194.626 198.354 194.626 198.354Z" fill="#1A1A1A"/>
<path d="M201.262 190.85C204.815 195.86 204.579 202.132 200.735 204.858C196.891 207.583 190.895 205.73 187.342 200.72C183.789 195.71 184.025 189.439 187.869 186.713C191.712 183.988 197.709 185.84 201.262 190.85Z" fill="#FCBC76"/>
<path opacity="0.67" d="M190.467 250.03L215.607 278.665L231.139 264.558L190.467 250.03Z" fill="#707070"/>
<path opacity="0.67" d="M247.864 251.744L240.559 271.534L244.219 271.616L247.864 251.744Z" fill="#707070"/>
<path opacity="0.67" d="M231.139 264.558L222.397 277.318L232.051 267.818L241.364 273.242L231.139 264.558Z" fill="#707070"/>
<path d="M235.657 240.295L241.267 240.42L237.584 249.966L235.657 240.295Z" fill="#ADADAD"/>
<path d="M241.267 240.42L247.864 251.744L241.643 273.436L231.139 264.558L241.267 240.42Z" fill="white"/>
<path d="M200.755 237.84L195.042 237.924C195.69 238.314 201.178 242.219 201.178 242.219L200.755 237.84Z" fill="#ADADAD"/>
<path d="M195.042 237.924L190.227 250.259L222.397 277.318L231.139 264.558L200.814 241.943" fill="white"/>
<path opacity="0.42" d="M267.188 411.001L164.136 408.616C163.704 383.004 164.676 323.054 158.21 296.195C158.21 296.195 154.27 264.887 143.118 267.895L129.368 357.809L129.06 454.898L139.907 437.887C148.091 448.663 171.302 462.756 184.657 461.437C255.06 454.481 289.636 430.236 289.636 430.236L267.188 411.001Z" fill="#707070"/>
<path d="M147.584 265.318C148.994 266.137 149.395 267.654 149.919 268.956C150.368 270.312 150.74 271.694 151.025 273.083C151.535 275.873 151.791 278.674 152.023 281.474C152.263 284.272 152.215 287.078 152.172 289.866C152.143 292.661 152.063 295.448 151.916 298.23C151.703 301.01 151.397 303.775 151.101 306.541C150.798 309.307 150.561 312.076 150.032 314.813C149.563 317.556 149.129 320.3 148.584 323.029C147.932 325.745 147.414 328.475 146.643 331.169L146.412 331.14C147.031 325.638 147.723 320.143 148.23 314.629C148.794 309.122 149.251 303.604 149.588 298.08C150.008 292.561 150.198 287.028 150.204 281.497C150.168 278.734 150.092 275.965 149.796 273.22C149.667 271.844 149.453 270.48 149.165 269.135C148.985 268.472 148.845 267.794 148.574 267.167C148.356 266.546 147.997 265.86 147.527 265.546L147.584 265.318Z" fill="#ADADAD"/>
<path d="M162.478 355.198L162.841 349.625C162.69 351.432 162.576 353.303 162.478 355.198Z" fill="#ADADAD"/>
<path d="M158.434 365.414C157.042 351.739 165.673 320.994 158.087 289.474C158.087 289.474 168.193 254.364 139.463 263.092C131.189 265.606 119.53 305.882 118.144 321.88L115.259 363.972C113.87 374.898 116.348 379.308 117.426 390.269" fill="white"/>
<path d="M117.426 390.268L123.802 448.552C124.339 451.751 126.767 456.952 130.01 457.042L177.394 454.847C177.394 454.847 161.338 393.923 158.435 365.414" fill="#FCBC76"/>
<path d="M143.448 437.401L159.368 401.786L267.065 404.279L267.959 439.742C267.959 439.742 135.86 475.915 143.448 437.401Z" fill="#FCBC76"/>
<path d="M192.299 402.548L181.579 401.201C181.579 401.201 263.278 442.123 268.536 439.73C279.508 434.74 290.303 428.402 290.303 428.402L267.064 404.279L192.299 402.548Z" fill="#E3923C"/>
<path d="M191.773 384.622C191.773 384.622 182.383 384.796 178.759 385.469C175.135 386.142 164.677 401.934 164.677 401.934L185.701 402.492L191.773 384.622Z" fill="#FCBC76"/>
<path d="M310.056 416.672L303.887 382.614L191.774 384.623L182.248 401.994C182.248 401.994 316.831 453.038 310.056 416.672Z" fill="#FCBC76"/>
<path d="M165.601 360.281C165.601 360.281 128.094 346.932 105.508 372.215L110.198 394.819L112.714 395.314C131.198 398.946 150.364 396.42 167.275 388.122L165.601 360.281Z" fill="white"/>
<path d="M160.411 367.35C160.411 367.35 151.825 373.405 137.603 375.379C123.379 377.353 108.598 375.014 110.168 371.91C111.738 368.806 112.237 370.058 112.237 370.058L113.734 373.819C113.734 373.819 143.166 375.857 157.685 367.358L157.729 362.305C157.729 362.305 160.136 362.892 160.411 367.35Z" fill="#ADADAD"/>
<path d="M284.074 307.146C285.52 311.822 286.603 316.667 287.558 321.57C288.072 324.006 288.448 326.504 288.893 328.972C289.289 331.462 289.646 333.97 290.02 336.469C290.328 339 290.665 341.516 290.95 344.058C291.194 346.619 291.5 349.15 291.676 351.742C292.094 356.894 292.387 362.106 292.32 367.486L292.105 367.585L287.875 337.464L283.859 307.243L284.074 307.146Z" fill="#ADADAD"/>
<path d="M262.434 383.387C262.434 383.387 285.804 366.845 300.509 366.572L316.849 379.019L314.848 403.134L297.56 384.961L262.434 383.387Z" fill="#FCBC76"/>
<path d="M150.942 260.976C153.42 264.354 155.371 268.069 156.948 271.908C158.567 275.738 159.806 279.71 160.843 283.728C161.755 287.774 162.612 291.841 162.907 295.988C163.106 298.052 163.186 300.128 163.291 302.192C163.243 304.277 163.244 306.347 163.038 308.426L162.805 308.448C162.356 304.38 161.846 300.318 161.123 296.291C160.458 292.253 159.545 288.262 158.579 284.29C157.608 280.316 156.487 276.38 155.204 272.496C153.91 268.62 152.484 264.772 150.734 261.082L150.942 260.976Z" fill="#ADADAD"/>
<path d="M139.224 270.78L138.403 295.914C138.167 304.277 137.864 312.628 137.932 320.976C137.792 329.318 137.99 337.663 138.556 345.94C138.833 350.077 139.254 354.205 140.012 358.229C140.72 362.252 141.793 366.252 143.953 369.463L143.851 369.605C141.426 366.598 140.166 362.507 139.238 358.496C138.33 354.438 137.788 350.274 137.38 346.104C136.579 337.753 136.388 329.34 136.406 320.948C136.453 312.553 136.76 304.168 137.216 295.8C137.678 287.432 138.278 279.079 139.072 270.754L139.224 270.78Z" fill="#ADADAD"/>
<path d="M188.884 192.616C188.884 192.616 194.663 190.894 196.754 197.288" stroke="#E3923C" stroke-width="0.923077" stroke-miterlimit="10" stroke-linecap="round"/>
<path d="M191.773 196.981L194.11 193.537" stroke="#E3923C" stroke-width="0.923077" stroke-miterlimit="10" stroke-linecap="round"/>
<path d="M274.793 285.354C268.422 257.89 247.015 249.986 246.794 249.905L245.659 247.948C245.968 248.006 269.597 256.862 276.133 285.043L274.793 285.354Z" fill="#3763A6"/>
<path d="M274.525 309.655C271.358 309.24 268.51 307.667 266.461 305.195C264.313 302.599 263.303 299.321 263.618 295.966C264.034 291.556 266.791 287.638 270.817 285.74C271.124 285.596 271.493 285.697 271.681 285.979C271.871 286.261 271.826 286.64 271.576 286.871C269.518 288.761 268.242 291.322 267.98 294.084C267.401 300.256 271.956 305.738 278.118 306.326H278.119C280.108 306.514 282.122 306.158 283.946 305.298C284.255 305.154 284.622 305.255 284.81 305.537C285 305.819 284.956 306.198 284.705 306.427C282.071 308.845 278.533 310.04 274.996 309.708C274.838 309.694 274.681 309.676 274.525 309.655Z" fill="#C9C9C9"/>
<path d="M274.525 309.655C271.358 309.24 268.51 307.667 266.461 305.195C264.313 302.599 263.303 299.321 263.618 295.966C264.034 291.556 266.791 287.638 270.817 285.74C271.124 285.596 271.493 285.697 271.681 285.979C271.871 286.261 271.826 286.64 271.576 286.871C269.518 288.761 268.242 291.322 267.98 294.084C267.401 300.256 271.956 305.738 278.118 306.326H278.119C280.108 306.514 282.122 306.158 283.946 305.298C284.255 305.154 284.622 305.255 284.81 305.537C285 305.819 284.956 306.198 284.705 306.427C282.071 308.845 278.533 310.04 274.996 309.708C274.838 309.694 274.681 309.676 274.525 309.655Z" fill="#264473"/>
<path d="M276.227 308.639C269.539 307.762 264.678 301.72 265.314 294.949C265.967 288.023 272.131 282.919 279.056 283.57C285.985 284.204 291.086 290.387 290.436 297.312V297.313C289.783 304.238 283.619 309.343 276.694 308.69C276.538 308.677 276.382 308.659 276.227 308.639Z" fill="#3763A6"/>
<path d="M276.666 305.309C271.759 304.664 268.192 300.232 268.658 295.265C269.137 290.183 273.66 286.438 278.742 286.915C283.826 287.381 287.569 291.917 287.092 296.999V297C286.613 302.082 282.09 305.827 277.008 305.348C276.894 305.336 276.779 305.323 276.666 305.309Z" fill="#264473"/>
<path d="M157.302 380.887L150.127 380.201C147.325 379.933 144.803 378.584 143.023 376.403C141.244 374.224 140.43 371.48 140.73 368.683L147.048 309.821C148.027 304.439 152.123 300.515 157.49 299.773C162.854 299.033 167.866 301.697 170.248 306.565L192.808 361.99C193.945 364.782 193.82 367.93 192.464 370.624C191.11 373.319 188.657 375.295 185.736 376.048L180.563 377.381L180.22 376.048L185.393 374.714C187.928 374.062 190.058 372.344 191.234 370.006C192.41 367.667 192.52 364.934 191.533 362.508L168.992 307.127C166.896 302.846 162.448 300.478 157.679 301.136C152.91 301.795 149.272 305.282 148.409 310.018L142.098 368.83C141.838 371.258 142.543 373.639 144.089 375.533C145.634 377.426 147.824 378.598 150.257 378.829L157.432 379.516L157.302 380.887Z" fill="#3763A6"/>
<path d="M177.512 377.15C177.377 375.352 178.724 373.784 180.522 373.648C182.321 373.512 183.888 374.86 184.025 376.658C184.16 378.457 182.813 380.024 181.015 380.161C179.216 380.296 177.649 378.948 177.512 377.15Z" fill="#3763A6"/>
<path d="M154.224 380.257C154.088 378.458 155.436 376.89 157.234 376.754C159.032 376.619 160.6 377.966 160.736 379.764C160.872 381.563 159.524 383.13 157.727 383.267C155.927 383.404 154.36 382.056 154.224 380.257Z" fill="#3763A6"/>
<path d="M147.079 320.82L145.887 320.132C149.81 313.34 154.388 309.708 159.495 309.336C167.681 308.753 174.15 316.763 174.419 317.105L173.339 317.959C173.277 317.881 167.055 310.156 159.588 310.709C154.968 311.047 150.758 314.449 147.079 320.82Z" fill="#3763A6"/>
<path d="M155.686 300.454C155.633 300.002 151.157 255.269 191.765 246.314L191.116 247.982C151.709 256.672 157.002 299.856 157.052 300.295L155.686 300.454Z" fill="#3763A6"/>
<path d="M219.226 186.892C219.197 188.347 218.494 189.514 217.655 189.497C216.816 189.48 216.161 188.286 216.19 186.832C216.218 185.376 216.922 184.21 217.76 184.226C218.599 184.243 219.254 185.437 219.226 186.892Z" fill="#1A1A1A"/>
<path d="M247.195 185.144C247.166 186.6 246.463 187.765 245.624 187.748C244.786 187.732 244.13 186.539 244.159 185.083C244.188 183.628 244.891 182.462 245.73 182.479C246.569 182.496 247.225 183.689 247.195 185.144Z" fill="#1A1A1A"/>
<path d="M234.596 181.014C234.596 181.014 237.833 190.465 239.646 196.939C241.458 203.413 230.323 202.248 230.323 202.248" stroke="#E3923C" stroke-width="0.923077" stroke-miterlimit="10" stroke-linecap="round"/>
<path d="M217.66 205.528C217.66 205.528 221.84 215.857 232.171 212.906" stroke="#E3923C" stroke-width="0.923077" stroke-miterlimit="10" stroke-linecap="round"/>
<path d="M164.291 401.87C164.291 401.87 156.578 401.453 152.135 411.2C152.135 411.2 161.526 403.883 164.291 401.87Z" fill="#E3923C"/>
<path d="M262.434 383.387L298.608 384.96L315.764 403.696L292.217 387.88L262.434 383.387Z" fill="#E3923C"/>
<path d="M292.13 367.988L301.612 365.572L316.427 378.887L301.643 367.253L292.13 367.988Z" fill="#E3923C"/>
<path d="M304.011 374.183C305.37 374.725 306.507 375.526 307.7 376.274C308.875 377.041 309.995 377.884 311.138 378.691C312.231 379.566 313.353 380.404 314.418 381.316C315.483 382.226 316.538 383.15 317.523 384.167L317.487 384.215L310.779 379.171L307.424 376.651C306.299 375.836 305.181 374.946 304.014 374.244L304.011 374.183Z" fill="#E3923C"/>
<path d="M304.829 380.472C306.187 381.014 307.325 381.815 308.518 382.564C309.692 383.33 310.812 384.172 311.956 384.98C313.049 385.855 314.171 386.693 315.235 387.605C316.301 388.514 317.356 389.44 318.341 390.456L318.305 390.504L311.597 385.46L308.242 382.94C307.116 382.126 305.998 381.235 304.831 380.533L304.829 380.472Z" fill="#E3923C"/>
<path d="M305.24 387.61C306.599 388.152 307.736 388.952 308.929 389.701C310.104 390.468 311.223 391.31 312.367 392.118C313.46 392.993 314.582 393.83 315.647 394.742C316.712 395.652 317.767 396.577 318.752 397.594L318.716 397.642L312.008 392.598L308.653 390.078C307.527 389.263 306.41 388.373 305.243 387.671L305.24 387.61Z" fill="#E3923C"/>
<path d="M209.072 189.461C209.058 189.262 209.051 189.061 209.05 188.858C209.015 183.66 213.199 179.418 218.398 179.382C223.596 179.347 227.838 183.532 227.874 188.73C227.909 193.928 223.723 198.172 218.526 198.206C213.529 198.241 209.416 194.376 209.072 189.461Z" stroke="white" stroke-width="0.923077" stroke-miterlimit="10" stroke-linecap="round"/>
<path d="M258.167 185.972C258.202 191.171 254.017 195.414 248.819 195.449C243.621 195.484 239.377 191.299 239.343 186.101C239.308 180.902 243.493 176.66 248.691 176.624C253.889 176.588 258.132 180.774 258.167 185.972Z" stroke="white" stroke-width="0.923077" stroke-miterlimit="10" stroke-linecap="round"/>
<path d="M227.806 186.743C227.806 186.743 233.831 180.925 239.342 186.1" stroke="white" stroke-width="0.923077" stroke-miterlimit="10" stroke-linecap="round"/>
<path d="M196.319 185.861L209.048 188.858" stroke="white" stroke-width="0.923077" stroke-miterlimit="10" stroke-linecap="round"/>
<path d="M243.568 173.016C243.568 173.016 246.722 169.31 251.639 173.293" stroke="#1A1A1A" stroke-width="0.923077" stroke-miterlimit="10" stroke-linecap="round"/>
<path d="M211.088 176.17C211.088 176.17 214.799 172.056 222.497 175.304" stroke="#1A1A1A" stroke-width="0.923077" stroke-miterlimit="10" stroke-linecap="round"/>
<path d="M212.028 335.014L187.946 337.267L187.961 328.273L212.041 326.02L212.028 335.014Z" fill="#3763A6"/>
<path d="M167.569 71.8668H57.4092V139.384H167.569V71.8668Z" fill="#91BDFF"/>
<path d="M127.296 132.48L149.745 159.916V129.908L127.296 132.48Z" fill="#91BDFF"/>
<path d="M72.0972 88.0272H115.297" stroke="white" stroke-width="0.923077" stroke-miterlimit="10"/>
<path d="M72.0972 98.2512H152.881" stroke="white" stroke-width="0.923077" stroke-miterlimit="10"/>
<path d="M72.0972 108.475H152.881" stroke="white" stroke-width="0.923077" stroke-miterlimit="10"/>
<path d="M72.0972 118.699H152.881" stroke="white" stroke-width="0.923077" stroke-miterlimit="10"/>
</g>
<defs>
<clipPath id="clip0_37_11245">
<rect width="600" height="600" fill="white"/>
</clipPath>
</defs>
</svg>
