<svg width="652" height="350" viewBox="0 0 652 350" fill="none" xmlns="http://www.w3.org/2000/svg">
<path d="M628.624 349.284L49.3971 349.11C49.3971 349.11 49.1897 348.885 48.8035 348.449C42.7854 341.644 -6.30919 283.202 16.9371 213.28C20.9878 201.092 27.2374 188.556 36.2969 175.883C93.4083 95.9818 159.994 101.444 208.848 133.869C229.653 147.679 289.642 135.571 340.702 54.269C357.013 28.2974 382.748 12.0999 412.029 4.71567C427.341 0.839533 444.647 -0.824261 462.961 0.392503C504.821 3.16296 546.637 20.5836 575.315 49.6658C605.96 80.7284 622.073 125.451 607.686 181.221C586.39 263.77 672.502 266.77 628.624 349.284Z" fill="#7FC5F9"/>
<path d="M570.001 44.5459C552.256 28.2927 530.378 16.2256 507.033 8.7811C504.286 7.90249 501.517 7.09131 498.731 6.34316C498.683 6.32869 498.635 6.31668 498.584 6.30442C498.106 6.17641 497.628 6.04841 497.148 5.92531C495.786 5.57294 494.42 5.23503 493.051 4.9138C483.12 2.57713 473.025 1.05874 462.959 0.39249C447.445 -0.6384 432.003 0.351538 417.341 3.47976C416.814 3.59085 416.286 3.70659 415.762 3.82503C415.472 3.89026 415.187 3.95549 414.9 4.02047V209.647H572.658V47.042C571.784 46.1994 570.896 45.3667 570.001 44.5459Z" fill="#273F76"/>
<path opacity="0.05" d="M575.314 49.6659V76.0865C574.431 76.3955 573.547 76.6731 572.659 76.9169C572.601 76.9338 572.541 76.9482 572.483 76.9652C571.66 77.1898 570.832 77.3901 570.001 77.5591C569.885 77.5856 569.77 77.6096 569.654 77.6314C559.559 79.6182 549.307 77.4576 539.301 69.3056C516.318 50.588 508.354 28.4883 507.034 8.78101C530.379 16.2255 552.257 28.2929 570.001 44.5458C570.897 45.3666 571.785 46.1993 572.659 47.0419C573.557 47.9036 574.44 48.78 575.314 49.6659Z" fill="#9FC1F4"/>
<path d="M530.598 46.5157C530.598 44.0539 532.593 42.0583 535.055 42.0583C537.517 42.0583 539.513 44.0539 539.513 46.5157C539.513 48.9771 537.517 50.973 535.055 50.973C532.593 50.973 530.598 48.9771 530.598 46.5157Z" fill="#9FC1F4"/>
<path opacity="0.9" d="M570.005 93.7347V205.333H417.342V3.48004C432.005 0.351572 447.447 -0.638121 462.961 0.392769C470.999 20.6844 480.896 39.8726 493.053 55.5319C494.39 57.258 495.756 58.9404 497.149 60.5745C497.625 61.1322 498.103 61.6849 498.585 62.2305C498.634 62.2861 498.685 62.3416 498.733 62.397C517.267 83.374 540.627 96.2452 570.002 93.7347H570.005Z" fill="#0B4E94"/>
<path d="M572.657 47.042C571.784 46.1996 570.895 45.3666 570 44.5459V205.215H417.34V3.47998C416.814 3.59106 416.285 3.7068 415.761 3.82524C415.471 3.89047 415.186 3.9557 414.899 4.02069C413.938 4.24285 412.98 4.47434 412.026 4.71587V214.961H575.312V49.666C574.439 48.78 573.555 47.9036 572.657 47.042Z" fill="#2B478B"/>
<path d="M589.767 214.961H396.336C396.336 209.643 400.646 205.333 405.963 205.333H580.14C585.457 205.333 589.767 209.643 589.767 214.961Z" fill="#2B478B"/>
<path d="M498.584 6.3042V209.647H493.051V4.91382C494.42 5.23481 495.786 5.57296 497.147 5.92534C497.628 6.04819 498.106 6.1762 498.584 6.3042Z" fill="#2B478B"/>
<path d="M558.421 56.5999C558.421 56.2196 558.73 55.9114 559.11 55.9114C559.491 55.9114 559.799 56.2196 559.799 56.5999C559.799 56.9803 559.491 57.2885 559.11 57.2885C558.73 57.2885 558.421 56.9803 558.421 56.5999Z" fill="#9FC1F4"/>
<path d="M506.827 38.6213C506.827 38.199 507.17 37.8569 507.592 37.8569C508.014 37.8569 508.356 38.199 508.356 38.6213C508.356 39.0433 508.014 39.3856 507.592 39.3856C507.17 39.3856 506.827 39.0435 506.827 38.6213Z" fill="#9FC1F4"/>
<path d="M541.027 73.0934C541.299 73.0934 541.519 72.8733 541.519 72.6018C541.519 72.3302 541.299 72.1101 541.027 72.1101C540.756 72.1101 540.536 72.3302 540.536 72.6018C540.536 72.8733 540.756 73.0934 541.027 73.0934Z" fill="#9FC1F4"/>
<path d="M472.054 65.0597C472.054 64.6793 472.362 64.3711 472.743 64.3711C473.123 64.3711 473.431 64.6793 473.431 65.0597C473.431 65.44 473.123 65.7482 472.743 65.7482C472.362 65.7482 472.054 65.44 472.054 65.0597Z" fill="#9FC1F4"/>
<path d="M482.087 93.7829C482.087 93.5115 482.307 93.2915 482.579 93.2915C482.851 93.2915 483.071 93.5115 483.071 93.7829C483.071 94.0544 482.851 94.2746 482.579 94.2746C482.307 94.2746 482.087 94.0546 482.087 93.7829Z" fill="#9FC1F4"/>
<path d="M415.764 3.825C416.288 3.7068 416.816 3.59082 417.343 3.47974V205.333H415.764V3.825Z" fill="#385AA0"/>
<path d="M498.732 6.34265V205.333H497.148V5.92505C497.629 6.04815 498.107 6.17615 498.585 6.30415C498.636 6.31617 498.684 6.32818 498.732 6.34265Z" fill="#385AA0"/>
<path d="M344.118 177.909H295.2V348.449H344.118V177.909Z" fill="#3358A0"/>
<path d="M272.148 348.449H298.877V177.91H272.148V348.449Z" fill="#0B4E94"/>
<path d="M376.373 109.557C376.024 108.977 375.27 108.79 374.69 109.139L373.565 109.815C372.02 110.745 370.049 110.704 368.544 109.709L367.722 109.167C367.521 109.034 367.286 108.963 367.046 108.963H357.666H357.442H348.063C347.822 108.963 347.587 109.034 347.387 109.167L346.565 109.709C345.06 110.704 343.089 110.745 341.543 109.815L340.419 109.139C339.838 108.79 339.085 108.977 338.736 109.557C338.387 110.137 338.574 110.891 339.154 111.24L340.279 111.917C341.409 112.597 342.689 112.935 343.968 112.935C345.349 112.935 346.729 112.541 347.917 111.755L348.431 111.416H356.44V343.808C349.518 344.056 344.55 346.082 344.218 346.221C343.593 346.482 343.299 347.2 343.56 347.825C343.821 348.45 344.539 348.744 345.164 348.483C345.287 348.432 357.591 343.41 370.215 348.631C370.368 348.695 370.527 348.725 370.683 348.725C371.165 348.725 371.621 348.439 371.817 347.967C372.076 347.341 371.778 346.624 371.152 346.365C366.872 344.595 362.665 343.907 358.892 343.799V111.415H366.677L367.192 111.755C368.38 112.541 369.76 112.935 371.141 112.935C372.419 112.935 373.7 112.597 374.83 111.917L375.954 111.24C376.534 110.891 376.722 110.137 376.373 109.557Z" fill="#0B4E94"/>
<path d="M365.86 120.43H376.282C376.891 120.43 377.385 120.924 377.385 121.534V134.016C377.385 134.377 377.209 134.715 376.914 134.921L371.716 138.554C371.33 138.824 370.815 138.819 370.434 138.542L365.211 134.738C364.925 134.53 364.756 134.199 364.756 133.846V121.533C364.757 120.924 365.25 120.43 365.86 120.43Z" fill="#FFB93E"/>
<path opacity="0.7" d="M376.65 113.339H374.545C374.094 113.339 373.728 112.973 373.728 112.522V112.44C373.345 112.592 372.38 112.925 371.197 112.937C370.539 112.943 369.95 112.455 369.899 111.799C369.843 111.071 370.417 110.463 371.133 110.463C371.191 110.463 371.247 110.472 371.303 110.48C371.62 110.46 372.325 110.386 372.958 110.106C372.448 109.6 371.729 109.305 370.942 109.361C369.572 109.459 368.537 110.656 368.537 112.03V112.522C368.537 112.973 368.171 113.339 367.72 113.339H365.472C364.716 113.339 364.103 113.953 364.103 114.709V134.439C364.103 134.892 364.327 135.316 364.702 135.571L370.291 139.374C370.333 139.403 370.377 139.429 370.422 139.452C370.687 139.592 370.888 139.827 370.942 140.122C371.78 144.769 374.473 161.332 373.723 178.588C373.206 190.461 371.185 200.331 367.716 207.922C363.407 217.352 356.832 223.269 348.176 225.509C347.994 225.556 347.858 225.725 347.88 225.912C347.903 226.105 348.066 226.239 348.246 226.239C348.276 226.239 348.307 226.235 348.338 226.227C357.232 223.933 363.977 217.875 368.387 208.223C371.896 200.543 373.938 190.579 374.458 178.608C375.216 161.14 372.419 144.446 371.598 139.937C371.558 139.721 371.647 139.5 371.828 139.375C371.829 139.375 371.83 139.374 371.831 139.374L377.42 135.571C377.794 135.317 378.019 134.893 378.019 134.439V114.709C378.019 113.952 377.406 113.339 376.65 113.339Z" fill="#ABDDDA"/>
<path d="M338.668 130.247H349.09C349.699 130.247 350.194 130.741 350.194 131.351V134.025C350.194 134.385 350.018 134.723 349.722 134.929L344.525 138.563C344.139 138.833 343.624 138.828 343.243 138.55L338.019 134.747C337.734 134.539 337.565 134.207 337.565 133.854V131.351C337.565 130.741 338.059 130.247 338.668 130.247Z" fill="#FFB93E"/>
<path opacity="0.7" d="M349.459 113.348H347.354C346.903 113.348 346.537 112.982 346.537 112.53V112.448C346.154 112.601 345.189 112.934 344.006 112.946C343.348 112.952 342.759 112.464 342.708 111.808C342.652 111.08 343.226 110.472 343.941 110.472C344 110.472 344.056 110.481 344.112 110.489C344.429 110.469 345.134 110.394 345.767 110.115C345.257 109.609 344.538 109.314 343.751 109.37C342.38 109.468 341.346 110.664 341.346 112.038V112.531C341.346 112.982 340.98 113.348 340.529 113.348H338.281C337.525 113.348 336.912 113.961 336.912 114.717V134.448C336.912 134.901 337.136 135.325 337.511 135.58L343.099 139.382C343.266 139.543 343.366 139.76 343.378 139.991C343.525 142.777 344.426 161.241 343.671 179.803C342.601 206.121 338.748 220.692 332.529 221.948C332.34 221.986 332.189 222.149 332.203 222.341C332.218 222.54 332.383 222.683 332.57 222.683C332.593 222.683 332.617 222.681 332.64 222.676C339.345 221.368 343.304 206.952 344.407 179.829C345.131 162.012 344.332 144.291 344.135 140.385C344.115 139.987 344.304 139.609 344.635 139.386L344.64 139.382L350.229 135.58C350.603 135.325 350.828 134.901 350.828 134.448V114.717C350.828 113.961 350.215 113.348 349.459 113.348Z" fill="#ABDDDA"/>
<path d="M566.489 348.116C566.453 348.133 566.412 348.149 566.364 348.167H541.708C541.939 347.29 542.745 345.691 545.566 345.233C549.392 344.611 556.022 342.389 557.502 337.493C557.548 337.337 557.591 337.175 557.628 337.012C558.803 331.782 567.343 338.614 567.343 338.614C567.343 338.614 567.369 338.822 567.405 339.177C567.604 341.096 568.11 347.304 566.489 348.116Z" fill="#8C2D26"/>
<path d="M533.878 259.56C533.878 259.56 549.914 316.521 554.744 338.549C554.744 338.549 566.646 340.937 568.497 337.196C568.497 337.196 564.662 275.167 557.608 267.288C548.832 257.487 533.878 259.56 533.878 259.56Z" fill="#2C3A64"/>
<path d="M532.553 201.827C532.553 201.827 532.974 199.278 532.317 197.156C531.661 195.034 528.916 189.437 529.785 187.493C530.653 185.548 533.798 180.315 535.737 180.331C537.677 180.346 533.698 185.931 534.245 187.675C534.791 189.419 534.972 189.561 535.646 189.407C536.32 189.253 537.346 185.914 537.687 186.693C538.028 187.473 537.829 192.641 537.188 193.932C536.547 195.222 537.862 202.498 537.862 202.498L532.553 201.827Z" fill="#ED975D"/>
<path d="M531.001 200.693C531.001 200.693 535.294 198.254 538.615 199.282C538.615 199.282 545.205 218.262 548.834 232.218C555.801 215.028 560.087 197.885 560.087 197.885C560.087 197.885 568.533 209.549 571.582 217.305C574.631 225.061 556.41 252.272 549.339 254.408C541.959 256.636 543.303 254.404 539.139 252.021C537.799 250.284 533.516 241.633 531.001 200.693Z" fill="#FFA412"/>
<path d="M511.578 349.004C511.542 349.022 511.501 349.038 511.453 349.056H486.796C487.027 348.178 487.834 346.58 490.655 346.122C494.481 345.5 501.112 343.277 502.591 338.382C502.637 338.226 502.68 338.064 502.717 337.901C503.892 332.671 512.432 339.503 512.432 339.503C512.432 339.503 512.458 339.711 512.494 340.066C512.693 341.985 513.199 348.193 511.578 349.004Z" fill="#8C2D26"/>
<path d="M529.093 258.177C529.093 258.177 531.495 259.246 534.459 261.432C534.796 259.714 535.282 258.599 535.282 258.599C556.442 253.088 613.081 253.537 613.081 253.537C613.081 253.537 625.258 256.587 621.682 274.313C618.392 290.625 564.01 283.072 546.444 278.178C546.033 278.064 545.635 277.944 545.25 277.819C546.648 288.212 536.861 303.039 528.292 316.683C521.229 327.931 515.218 339.317 515.218 339.317C511.671 341.517 499.763 340.244 499.763 340.244C507.289 318.986 529.093 258.177 529.093 258.177Z" fill="#35488B"/>
<path d="M575.789 192.126C575.789 192.126 569.714 211.573 560.59 215.923C560.59 215.923 559.727 210.023 561.203 205.536C559.999 204.613 558.931 203.758 558 202.987C554.905 200.411 553.342 198.763 553.342 198.763L554.698 189.28L555.618 182.847C557.102 184.547 558.634 185.938 560.162 187.08C568.039 192.955 575.789 192.126 575.789 192.126Z" fill="#FFB27D"/>
<path d="M560.162 187.08C560.162 187.08 563.222 195.498 558 202.986C554.905 200.411 553.342 198.762 553.342 198.762L554.698 189.28C557.965 187.453 560.162 187.08 560.162 187.08Z" fill="#ED975D"/>
<path d="M551.028 200.605C551.028 200.605 564.481 191.68 558.794 183.388C553.107 175.096 551.013 168.36 542.183 173.708C533.354 179.056 533.872 183.352 535.098 186.582C536.323 189.811 547.383 202.713 551.028 200.605Z" fill="#FFB27D"/>
<path d="M557.229 166.029C557.287 165.803 557.539 165.521 558.221 165.139C558.221 165.139 557.487 165.057 556.729 165.405C556.098 164.488 554.722 162.991 552.838 163.387C552.838 163.387 553.977 163.433 554.61 164.427C551.677 163.354 546.795 163.918 535.729 170.485C521.145 179.14 530.984 186.559 533.526 186.773C536.068 186.987 539.434 181.337 543.24 179.838C547.046 178.34 550.376 183.372 551.979 183.501C553.583 183.63 552.455 182.565 553.758 180.97C555.061 179.375 556.606 182.125 557.022 184.202C557.438 186.279 560.936 187.573 560.936 187.573C560.936 187.573 560.936 187.573 562.018 183.877C563.102 180.181 560.004 168.293 557.814 166.508C557.62 166.35 557.426 166.189 557.229 166.029Z" fill="#2B478B"/>
<path d="M559.421 224.529C563.461 234.098 567.155 240.209 567.639 241.008C569.38 243.885 571.249 246.528 572.959 248.834C573.013 248.908 573.066 248.98 573.12 249.054C576.487 253.583 581.636 254.83 581.476 255.967C581.154 258.245 586.909 263.712 596.399 266.136C607.411 268.951 620.172 270.304 623.397 266.582C624.475 265.331 624.835 263.033 624.715 260.175C624.48 254.156 616.903 229.916 616.903 229.916C603.942 190.694 566.826 190.694 566.826 190.694C566.826 190.694 567.553 200.09 558.443 203.351C558.431 203.371 556.303 217.143 559.421 224.529Z" fill="#FFB93E"/>
<path d="M537.623 252.438C537.623 252.438 532.049 254.408 530.521 255.365C528.992 256.322 525.473 261.138 525.077 262.827C524.681 264.515 524.217 269.477 524.505 270.307C524.794 271.138 529.06 267.954 530.008 264.958C530.956 261.962 533.393 261.156 533.3 261.317C533.206 261.478 531.959 265.314 532.222 265.479C532.485 265.645 533.621 265.932 534.65 263.79C535.679 261.649 537.717 260.085 537.332 257.872C536.947 255.659 537.623 252.438 537.623 252.438Z" fill="#FFB27D"/>
<path d="M581.292 256.283C580.97 258.561 586.91 263.712 596.4 266.136C604.316 250.388 589.265 214.336 589.265 214.336L572.959 248.834C576.4 253.479 581.454 255.129 581.292 256.283Z" fill="#FFA412"/>
<path d="M567.638 241.008C569.38 243.885 571.249 246.528 572.958 248.834C573.012 248.908 573.066 248.98 573.12 249.054C575.356 248.191 577.577 246.472 578.695 244.89C581.264 241.264 581.475 219.462 581.475 219.462C581.475 219.462 570.961 232.451 567.638 241.008Z" fill="#FFA412"/>
<path d="M535.484 252.927C535.484 252.927 560.916 245.809 573.969 242.693C572.819 227.293 569.049 180.729 592.766 199.369C592.766 199.369 594.558 249.27 583.066 259.377C583.066 259.377 543.608 260.288 536.583 259.858C536.583 259.858 537.086 258.659 536.573 257.947C534.934 255.669 535.484 252.927 535.484 252.927Z" fill="#FFB93E"/>
<path d="M557.206 283.563V293.372C557.206 295.397 558.863 297.055 560.888 297.055H618.881C620.906 297.055 622.564 295.397 622.564 293.372V283.563C622.564 281.537 620.906 279.88 618.881 279.88H560.888C558.863 279.881 557.206 281.538 557.206 283.563Z" fill="#699DEE"/>
<path d="M557.206 291.586V293.372C557.206 295.397 558.863 297.054 560.888 297.054H618.881C620.907 297.054 622.564 295.397 622.564 293.372V291.439H558.262C557.896 291.439 557.54 291.491 557.206 291.586Z" fill="#163560"/>
<path d="M608.602 297.055L611.216 306.957C611.216 306.957 611.216 306.957 611.219 306.96L622.103 348.172H623.248L616.957 313.98C616.951 313.946 616.942 313.913 616.936 313.876L613.825 296.966L608.602 297.055Z" fill="#3358A0"/>
<path d="M608.602 297.055L611.217 306.956C611.217 306.956 611.217 306.956 611.22 306.96C611.37 307.033 616.129 309.494 616.936 313.876L613.825 296.966L608.602 297.055Z" fill="#0B4E94"/>
<path d="M557.206 348.172H558.351L567.219 314.6C567.219 314.597 567.219 314.597 567.219 314.594L569.235 306.96C569.238 306.956 569.238 306.956 569.238 306.956L571.852 297.055L566.629 296.966L564.85 306.634L563.518 313.876C563.512 313.912 563.503 313.946 563.497 313.98L557.206 348.172Z" fill="#3358A0"/>
<path d="M574.883 310.023C574.89 310.026 574.896 310.023 574.902 310.01C574.927 309.966 574.92 309.976 574.883 310.023Z" fill="#E8C6A7"/>
<path d="M564.849 306.634C565.813 308.036 567.141 310.672 567.218 314.593L569.234 306.959C569.237 306.956 569.237 306.956 569.237 306.956L571.852 297.054L566.629 296.965L564.849 306.634Z" fill="#0B4E94"/>
<path d="M394.898 292.636L403.473 311.364V311.367L419.996 347.449C420.277 348.057 420.885 348.45 421.554 348.45H421.69C422.903 348.45 423.78 347.293 423.455 346.124L410.338 299.188L408.425 292.342L394.898 292.636Z" fill="#3358A0"/>
<path d="M403.474 311.364C402.656 302.847 410.338 299.188 410.338 299.188L408.426 292.341L394.898 292.636L403.474 311.364Z" fill="#0B4E94"/>
<path d="M483.476 292.636L492.052 311.363V311.366L508.574 347.449C508.855 348.057 509.463 348.449 510.133 348.449H510.268C511.481 348.449 512.358 347.292 512.033 346.124L498.916 299.188L497.003 292.341L483.476 292.636Z" fill="#3358A0"/>
<path d="M492.051 311.364C491.234 302.847 498.915 299.188 498.915 299.188L497.003 292.341L483.475 292.636L492.051 311.364Z" fill="#0B4E94"/>
<path d="M131.416 292.342L129.504 299.188L116.386 346.125C116.062 347.293 116.938 348.45 118.151 348.45H118.287C118.957 348.45 119.564 348.057 119.845 347.449L136.368 311.367V311.364L144.943 292.637L131.416 292.342Z" fill="#0B4E94"/>
<path d="M201.206 292.342L199.294 299.188L186.177 346.125C185.852 347.293 186.728 348.45 187.941 348.45H188.077C188.747 348.45 189.355 348.057 189.635 347.449L206.158 311.367V311.364L214.734 292.637L201.206 292.342Z" fill="#0B4E94"/>
<path d="M258.966 143.459H112.465C110.228 143.459 108.398 145.289 108.398 147.526V290.045C108.398 292.282 110.228 294.112 112.465 294.112H258.966C261.203 294.112 263.033 292.282 263.033 290.045V147.526C263.033 145.289 261.203 143.459 258.966 143.459Z" fill="#0B4E94"/>
<path d="M268.346 147.458V268.448C268.346 270.647 266.752 272.448 264.805 272.448H117.252C115.304 272.448 113.711 270.647 113.711 268.448V147.458C113.711 145.258 115.305 143.459 117.252 143.459H264.805C266.752 143.459 268.346 145.259 268.346 147.458Z" fill="#4A75CB"/>
<path d="M141.825 265.98C141.825 265.98 114.676 263.813 113.711 263.147V238.228C119.436 232.813 130.676 226.651 130.676 226.651L141.825 265.98Z" fill="#273F76"/>
<path d="M149.572 221.625C149.572 220.187 150.571 219.023 151.803 219.023C153.035 219.023 154.034 220.187 154.034 221.625C154.034 223.061 153.035 224.226 151.803 224.226C150.571 224.226 149.572 223.062 149.572 221.625Z" fill="#273F76"/>
<path d="M381.37 259.289V290.571C381.37 292.518 387.11 294.112 385.135 294.112H113.495C111.519 294.112 109.903 292.518 109.903 290.571V259.289C109.903 257.342 111.519 255.748 113.495 255.748H377.778C379.753 255.748 381.37 257.342 381.37 259.289Z" fill="#0B4E94"/>
<path d="M132.495 208.495C132.495 208.495 120.013 237.154 125.222 255.787L144.944 256C144.944 256 151.279 222.018 132.495 208.495Z" fill="#3358A0"/>
<path d="M132.495 208.495C132.495 208.495 191.185 204.783 218.448 207.129C223.992 207.606 228.679 211.425 230.285 216.753L242.109 256H144.945C144.945 256 151.279 227.57 132.495 208.495Z" fill="#507ED1"/>
<path d="M125.961 213.28V348.449H48.8035C42.7854 341.644 -6.30919 283.203 16.9371 213.28H125.961Z" fill="#3358A0"/>
<path d="M54.03 213.28V348.449H48.8035C42.7854 341.644 -6.30919 283.203 16.9371 213.28H54.03Z" fill="#0B4E94"/>
<path d="M125.961 250.753H54.0305V251.236H125.961V250.753Z" fill="#0B4E94"/>
<path d="M125.961 298.667H54.0305V299.15H125.961V298.667Z" fill="#0B4E94"/>
<path d="M97.868 200.023C97.868 203.668 96.3761 206.985 93.9743 209.387C91.5724 211.788 88.2558 213.28 84.6107 213.28H69.3643C62.0718 213.28 56.1069 207.315 56.1069 200.023C56.1069 197.944 56.592 195.973 57.4539 194.217C58.1032 192.894 58.9674 191.692 60.0007 190.659C62.4026 188.257 65.7194 186.765 69.3646 186.765H84.6109C89.3374 186.765 93.5061 189.271 95.8548 193.02C97.1292 195.055 97.868 197.457 97.868 200.023Z" fill="#FFA412"/>
<path d="M95.8548 193.02C91.8283 199.62 84.5601 204.025 76.2632 204.025C68.4783 204.025 61.601 200.146 57.4536 194.217C58.1029 192.894 58.9671 191.692 60.0004 190.659C62.4023 188.257 65.7191 186.765 69.3643 186.765H84.6106C89.3374 186.765 93.5061 189.271 95.8548 193.02Z" fill="#FFB93E"/>
<path d="M98.7947 192.559H55.6673C51.554 192.559 48.7995 188.223 50.4653 184.368L64.0944 152.818C65.0069 150.711 67.0466 149.349 69.2964 149.349H86.8095C89.1536 149.349 91.2585 150.824 92.1106 153.064L104.096 184.614C105.547 188.436 102.797 192.559 98.7947 192.559Z" fill="#E27E33"/>
<path d="M98.7952 192.559H65.6446C61.5313 192.559 58.7768 188.223 60.4426 184.368L74.0739 152.818C74.9839 150.711 77.0239 149.349 79.2735 149.349H86.8097C89.1537 149.349 91.2587 150.824 92.1108 153.064L104.096 184.614C105.547 188.436 102.797 192.559 98.7952 192.559Z" fill="#F99746"/>
<path d="M165.044 182.524C164.72 181.987 159.98 196.171 160.033 197.183C160.53 206.549 168.231 211.701 170.83 209.218C172.497 207.626 174.895 210.648 174.895 210.648L185.336 184.802C185.336 184.802 170.391 174.26 165.044 182.524Z" fill="#2C3A64"/>
<path d="M168.272 181.28C168.272 181.28 161.839 173.567 153.947 181.479C153.947 181.479 156.989 179.73 159.526 179.787C159.526 179.787 151.53 181.878 150.605 191.91C149.679 201.942 164.499 209.918 165.001 213.75C165.503 217.582 159.45 224.517 167.252 230.714C175.053 236.91 203.625 225.822 208.153 232.881C208.153 232.881 204.478 213.701 193.715 214.058C193.715 214.058 198.971 213.894 202.282 216.645C202.282 216.645 197.09 210 191.434 211.88C186.429 213.543 177.57 210.159 176.762 208.776C175.954 207.393 168.272 181.28 168.272 181.28Z" fill="#2C3A64"/>
<path d="M193.858 236.247C181.592 243.955 173.915 223.556 174.74 223.223C175.839 221.557 176.442 216.089 174.406 208.629L175.092 208.58L186.6 207.809C186.6 207.809 187.277 211.317 188.137 214.557C188.812 217.091 189.603 219.462 190.272 219.877C191.153 219.771 197.13 234.192 193.858 236.247Z" fill="#FFB27D"/>
<path d="M186.602 207.811C186.602 207.811 187.277 211.317 188.139 214.558C181.978 216.028 177.248 211.318 175.093 208.582L186.602 207.811Z" fill="#ED985F"/>
<path d="M189.467 210.33C189.467 210.33 175.064 214.455 172.633 205.445C170.203 196.436 166.707 190.901 175.801 187.887C184.894 184.873 187.616 187.827 189.158 190.636C190.701 193.446 193.151 209.025 189.467 210.33Z" fill="#FFB27D"/>
<path d="M187.382 185.741C184.417 183.631 182.887 184.68 182.159 185.749C173.084 183.526 166.677 189.172 166.677 189.172C167.446 195.898 166.816 203.004 166.816 203.004C166.816 203.004 169.89 203.925 175.549 200.729C177.278 199.753 178.581 197.987 179.56 196.009C178.208 200.793 175.657 204.664 175.657 204.664C182.017 199.357 182.221 188.474 182.224 187.328C183.321 187.884 185.524 189.14 186.508 190.686C187.846 192.787 189.439 197.424 190.773 196.893C190.773 196.893 191.827 188.906 187.382 185.741Z" fill="#2C3A64"/>
<path d="M249.414 241.935L239.281 253.759L223.666 271.979L215.016 282.071C215.016 282.071 207.473 288.965 196.691 285.714C192.784 284.537 188.289 279.834 183.737 275.182C166.62 257.692 161.159 230.275 161.159 230.275C161.502 230.004 165.591 226.865 170.316 224.763C177.203 221.699 186.865 217.941 193.821 217.133C195.76 216.907 197.488 216.91 198.889 217.223C208.757 219.421 214.961 244.578 226.332 244.544C229.316 244.534 232.324 244.351 235.136 244.086C243.042 243.337 249.414 241.935 249.414 241.935Z" fill="#FFB27D"/>
<path d="M193.822 217.132C193.822 217.132 231.224 226.707 234.581 229.558C234.581 229.558 219.81 238.797 205.358 234.993C190.906 231.188 193.822 217.132 193.822 217.132Z" fill="#FFB27D"/>
<path d="M215.12 230.756C214.836 232.452 214.238 233.618 213.946 234.109C213.844 234.28 213.779 234.37 213.779 234.37L213.736 234.322L208.349 228.116L198.889 217.222C201.939 217.463 213.645 222.474 213.645 222.474C215.347 225.846 215.467 228.695 215.12 230.756Z" fill="#E9F2FF"/>
<path d="M239.281 253.759C239.191 254.316 238.977 254.802 238.626 255.205C233.724 260.814 235.385 267.369 223.666 271.978C221.175 272.96 218.075 273.852 214.176 274.629C206.31 276.197 200.943 281.2 196.691 285.714C192.784 284.536 188.449 282.027 183.897 277.375C166.78 259.884 162.089 230.339 162.089 230.339C162.432 230.068 165.592 226.865 170.316 224.763C170.316 224.763 189.265 230.715 192.84 227.359C196.412 224.004 193.821 217.132 193.821 217.132C195.761 216.907 197.488 216.91 198.889 217.222C208.757 219.421 214.962 244.577 226.332 244.544C229.317 244.534 232.325 244.351 235.136 244.086C237.957 248.025 239.649 251.488 239.281 253.759Z" fill="#E9F2FF"/>
<path d="M215.12 230.756C214.836 232.452 214.237 233.618 213.946 234.109L213.736 234.322L212.176 235.907C212.176 235.907 202.546 227.328 204.689 227.216C205.351 227.18 206.743 227.566 208.348 228.117C210.672 228.912 213.45 230.051 215.12 230.756Z" fill="#91CECF"/>
<path d="M456.842 254.264C456.842 254.264 440.84 274.029 435.838 275.28C431.17 276.446 395.33 257.132 390.565 254.549C390.562 254.547 390.562 254.547 390.562 254.547C390.222 254.363 390.041 254.264 390.041 254.264C390.041 254.264 201.063 303.031 196.479 302.198C192.511 301.476 171.77 269.05 169.228 257.733C169.057 256.98 168.97 256.321 168.972 255.771V255.752C168.977 255.025 169.144 254.489 169.494 254.183C174.078 250.173 215.395 212.743 231.04 218.968C246.684 225.194 307.46 208.173 323.298 210.553C339.138 212.935 456.842 254.264 456.842 254.264Z" fill="#A3D8D6"/>
<path d="M390.04 254.264C390.04 254.264 201.063 303.031 196.479 302.198C192.511 301.476 171.77 269.05 169.228 257.733L168.972 255.771L168.969 255.749C168.969 255.749 168.969 255.749 168.972 255.752C169.3 255.879 191.542 264.76 212.754 263.546C234.122 262.322 376.984 250.551 390.04 254.264Z" fill="#9BD3D3"/>
<path d="M390.562 254.546C390.222 254.363 390.041 254.264 390.041 254.264C390.285 254.331 390.456 254.428 390.562 254.546Z" fill="#D67330"/>
<path d="M163.203 230.63C163.203 230.63 152.381 237.634 164.704 247.169C177.028 256.704 209.861 266.887 210.834 265.268C211.807 263.649 211.12 259.156 209.927 256.745C208.733 254.334 169.754 225.314 163.203 230.63Z" fill="#FFB27D"/>
<path d="M260.971 231.446C258.05 229.156 252.894 230.306 251.029 230.661C246.114 231.598 245.051 234.173 242.802 236.296C242.802 236.296 212.332 248.831 206.538 253.644L210.833 265.268C210.833 265.268 231.819 251.537 243.762 240.243C244.501 239.544 245.429 239.081 246.428 238.89C248.541 238.487 252.206 237.468 254.273 236.411C258.985 234.002 262.471 232.622 260.971 231.446Z" fill="#FFB27D"/>
<path d="M241.218 238.526C241.218 238.526 242.825 236.033 243.248 234.887C243.67 233.74 246.373 232.146 247.488 230.595C248.603 229.043 249.069 228.645 249.174 229.981C249.279 231.317 248.16 232.687 248.803 232.987C249.446 233.288 251.122 235.031 251.122 235.031L241.218 238.526Z" fill="#FFB27D"/>
<path d="M170.316 224.763C170.316 224.763 161.198 227.858 159.141 232.621C156.034 239.813 162.514 248.501 165.877 251.387C165.877 251.387 181.305 249.043 181.962 236.731L170.316 224.763Z" fill="#E9F2FF"/>
<path d="M384.405 195.005H495.992C501.278 195.005 505.564 199.291 505.564 204.577V284.54C505.564 289.826 501.278 294.112 495.992 294.112H384.405C379.118 294.112 374.833 289.826 374.833 284.54V204.577C374.833 199.29 379.118 195.005 384.405 195.005Z" fill="#0B4E94"/>
<path d="M390.943 195.005H502.53C507.817 195.005 512.102 199.291 512.102 204.577V284.54C512.102 289.826 507.817 294.112 502.53 294.112H390.943C385.657 294.112 381.371 289.826 381.371 284.54V204.577C381.371 199.29 385.657 195.005 390.943 195.005Z" fill="#3358A0"/>
<path d="M501.998 206.498H391.16C389.602 206.498 388.34 205.236 388.34 203.678C388.34 202.121 389.602 200.858 391.16 200.858H501.998C503.555 200.858 504.818 202.121 504.818 203.678C504.818 205.236 503.555 206.498 501.998 206.498Z" fill="#588FE0"/>
<path opacity="0.8" d="M186.564 200.63C187.094 199.818 188.211 199.647 188.939 200.287C191.591 202.618 194.404 208.184 190.45 210.649C186.956 212.69 181.459 210.649 183.216 204.664C183.938 202.447 185.528 202.22 186.564 200.63Z" fill="#ABDDDA"/>
<path d="M185.336 210.238C185.332 210.238 185.327 210.238 185.322 210.238L171.292 209.433L169.226 205.428L170.401 200.141L185.102 203.132C185.235 203.159 185.32 203.288 185.293 203.421C185.266 203.554 185.137 203.64 185.004 203.612L170.775 200.717L169.743 205.361L171.6 208.959L185.351 209.748C185.486 209.756 185.589 209.872 185.581 210.007C185.573 210.137 185.465 210.238 185.336 210.238Z" fill="#2C3A64"/>
<path d="M321.483 177.911H281.665C280.27 177.911 279.14 176.78 279.14 175.385V142.829C279.14 141.434 280.27 140.303 281.665 140.303H321.483C322.878 140.303 324.008 141.434 324.008 142.829V175.385C324.008 176.78 322.878 177.911 321.483 177.911Z" fill="#0B4E94"/>
<path d="M336.808 177.911H296.99C295.595 177.911 294.465 176.78 294.465 175.385V142.829C294.465 141.434 295.595 140.303 296.99 140.303H336.808C338.202 140.303 339.333 141.434 339.333 142.829V175.385C339.333 176.78 338.202 177.911 336.808 177.911Z" fill="#4A75CB"/>
<path d="M326.765 176.177H299.71C297.803 176.177 296.257 174.63 296.257 172.723V145.668C296.257 143.76 297.803 142.214 299.71 142.214H326.765C328.672 142.214 330.219 143.761 330.219 145.668V172.723C330.219 174.63 328.672 176.177 326.765 176.177Z" fill="#3358A0"/>
<path d="M305.024 160.544C305.023 160.544 305.022 160.544 305.021 160.544C304.898 160.542 304.795 160.45 304.781 160.328L303.478 149.322L302.874 152.437C302.852 152.553 302.751 152.636 302.634 152.636H299.875C299.739 152.636 299.63 152.526 299.63 152.391C299.63 152.255 299.739 152.146 299.875 152.146H302.431L303.296 147.685C303.319 147.567 303.431 147.48 303.545 147.487C303.666 147.491 303.766 147.583 303.78 147.703L305.046 158.4L306.192 150.334C306.208 150.222 306.297 150.135 306.41 150.124C306.522 150.111 306.627 150.179 306.665 150.285L307.465 152.514H316.312L317.114 150.107C317.15 150 317.253 149.93 317.367 149.94C317.48 149.95 317.571 150.035 317.589 150.147L318.423 155.497L320.049 147.682C320.072 147.57 320.169 147.49 320.284 147.487C320.406 147.476 320.498 147.561 320.527 147.671L322.072 153.686L322.519 152.718C322.559 152.631 322.646 152.575 322.741 152.575H328.075C328.21 152.575 328.32 152.685 328.32 152.82C328.32 152.956 328.21 153.066 328.075 153.066H322.898L322.229 154.517C322.185 154.611 322.086 154.666 321.984 154.658C321.88 154.649 321.794 154.576 321.768 154.475L320.314 148.815L318.629 156.916C318.605 157.032 318.499 157.116 318.383 157.111C318.264 157.108 318.165 157.021 318.146 156.904L317.26 151.22L316.721 152.837C316.688 152.937 316.594 153.004 316.488 153.004H307.293C307.189 153.004 307.097 152.939 307.062 152.842L306.538 151.383L305.267 160.334C305.25 160.454 305.147 160.544 305.024 160.544Z" fill="#A8D29F"/>
<path d="M322.925 172.376C322.823 172.376 322.731 172.312 322.695 172.215L321.423 168.762L320.836 169.391C320.79 169.441 320.725 169.469 320.657 169.469H311.461C311.39 169.469 311.323 169.439 311.276 169.385L310.68 168.696L309.788 170.899C309.753 170.987 309.669 171.046 309.574 171.052C309.478 171.058 309.39 171.007 309.345 170.924L307.638 167.762L306.148 169.998C306.109 170.056 306.048 170.095 305.979 170.105C305.91 170.114 305.84 170.095 305.787 170.05L305.12 169.493H299.875C299.739 169.493 299.63 169.383 299.63 169.248C299.63 169.113 299.739 169.003 299.875 169.003H305.208C305.266 169.003 305.321 169.023 305.365 169.06L305.891 169.499L307.456 167.151C307.504 167.079 307.583 167.041 307.672 167.042C307.758 167.046 307.835 167.095 307.876 167.171L309.529 170.232L310.376 168.14C310.407 168.061 310.478 168.004 310.563 167.99C310.647 167.976 310.732 168.007 310.788 168.072L311.573 168.979H320.55L321.336 168.136C321.394 168.074 321.479 168.045 321.564 168.063C321.647 168.079 321.716 168.138 321.745 168.218L322.904 171.364L324.178 167.215C324.208 167.119 324.293 167.051 324.392 167.043C324.491 167.035 324.587 167.087 324.632 167.177L325.467 168.837H328.075C328.21 168.837 328.32 168.947 328.32 169.083C328.32 169.218 328.21 169.328 328.075 169.328H325.316C325.223 169.328 325.139 169.276 325.097 169.193L324.468 167.943L323.16 172.202C323.129 172.303 323.037 172.372 322.932 172.375C322.93 172.376 322.927 172.376 322.925 172.376Z" fill="#A8D29F"/>
<path d="M335.907 149.649H334.362C333.496 149.649 332.795 150.35 332.795 151.216C332.795 152.081 333.496 152.783 334.362 152.783H335.907C336.773 152.783 337.474 152.081 337.474 151.216C337.474 150.351 336.773 149.649 335.907 149.649Z" fill="#0B4E94"/>
<path d="M337.195 151.216C337.195 151.927 336.618 152.504 335.907 152.504C335.196 152.504 334.619 151.927 334.619 151.216C334.619 150.505 335.196 149.928 335.907 149.928C336.618 149.928 337.195 150.504 337.195 151.216Z" fill="#3358A0"/>
<path d="M335.907 157.005H334.362C333.496 157.005 332.795 157.707 332.795 158.572C332.795 159.438 333.496 160.139 334.362 160.139H335.907C336.773 160.139 337.474 159.438 337.474 158.572C337.474 157.707 336.773 157.005 335.907 157.005Z" fill="#0B4E94"/>
<path d="M337.195 158.572C337.195 159.284 336.618 159.86 335.907 159.86C335.196 159.86 334.619 159.283 334.619 158.572C334.619 157.861 335.196 157.284 335.907 157.284C336.618 157.284 337.195 157.861 337.195 158.572Z" fill="#3358A0"/>
<path d="M335.907 164.362H334.362C333.496 164.362 332.795 165.063 332.795 165.929C332.795 166.795 333.496 167.496 334.362 167.496H335.907C336.773 167.496 337.474 166.794 337.474 165.929C337.474 165.064 336.773 164.362 335.907 164.362Z" fill="#0B4E94"/>
<path d="M337.195 165.929C337.195 166.64 336.618 167.217 335.907 167.217C335.196 167.217 334.619 166.64 334.619 165.929C334.619 165.218 335.196 164.641 335.907 164.641C336.618 164.641 337.195 165.218 337.195 165.929Z" fill="#3358A0"/>
<path d="M305.535 144.421H300.12C299.849 144.421 299.63 144.201 299.63 143.93C299.63 143.66 299.849 143.44 300.12 143.44H305.535C305.806 143.44 306.026 143.66 306.026 143.93C306.026 144.201 305.806 144.421 305.535 144.421Z" fill="#A8D29F"/>
<path d="M308.231 144.421H307.332C307.062 144.421 306.842 144.201 306.842 143.93C306.842 143.66 307.062 143.44 307.332 143.44H308.231C308.502 143.44 308.722 143.66 308.722 143.93C308.722 144.201 308.502 144.421 308.231 144.421Z" fill="#A8D29F"/>
<path d="M305.535 164.038H300.12C299.849 164.038 299.63 163.819 299.63 163.548C299.63 163.277 299.849 163.058 300.12 163.058H305.535C305.806 163.058 306.026 163.277 306.026 163.548C306.026 163.819 305.806 164.038 305.535 164.038Z" fill="#A8D29F"/>
<path d="M308.231 164.038H307.332C307.062 164.038 306.842 163.819 306.842 163.548C306.842 163.277 307.062 163.058 307.332 163.058H308.231C308.502 163.058 308.722 163.277 308.722 163.548C308.722 163.819 308.502 164.038 308.231 164.038Z" fill="#A8D29F"/>
<path d="M492.219 326.021C492.219 326.021 496.996 330.448 496.064 333.593C495.132 336.738 490.822 338.835 490.239 342.68C489.657 346.524 487.327 348.621 485.23 348.621C483.133 348.621 475.233 348.621 475.233 348.621C475.233 348.621 473.69 345.916 477.417 345.1C481.145 344.285 482.551 339.768 482.318 335.574C482.084 331.38 482.667 325.789 482.667 325.789L490.589 323.925L492.219 326.021Z" fill="#2C3A64"/>
<path d="M432.693 348.459C432.618 348.497 432.513 348.532 432.379 348.566H405.64C405.873 347.62 406.73 345.821 409.861 345.312C414.036 344.635 421.272 342.208 422.887 336.869C422.937 336.697 422.984 336.52 423.025 336.342C424.307 330.635 433.625 338.091 433.625 338.091C433.625 338.091 433.653 338.318 433.694 338.705C433.909 340.798 434.462 347.573 432.693 348.459Z" fill="#2C3A64"/>
<path d="M410.969 195.784C410.969 195.784 412.385 213.443 414.049 234.67C416.31 263.505 419.029 298.924 419.298 305.634C419.762 317.285 421.629 335.922 421.629 335.922C421.629 335.922 426.053 340.35 434.908 338.484C434.908 338.484 442.8 311.879 445.053 283.729C445.089 283.268 445.123 282.803 445.158 282.338C447.255 253.681 450.516 193.338 450.516 193.338L410.969 195.784Z" fill="#35488B"/>
<path d="M410.969 195.784C410.969 195.784 412.385 213.443 414.049 234.67L445.053 283.729C445.089 283.268 445.123 282.803 445.158 282.338C447.255 253.681 450.516 193.338 450.516 193.338L410.969 195.784Z" fill="#2C3A64"/>
<path d="M417.433 197.882C417.433 197.882 442.944 261.835 459.719 291.889C476.494 321.944 481.736 330.331 481.736 330.331C481.736 330.331 491.346 326.487 492.22 323.866C492.22 323.866 485.805 265.844 474.571 251.7C468.224 243.708 460.767 219.724 460.418 211.336C460.068 202.949 458.146 186.349 458.146 186.349L417.433 197.882Z" fill="#35488B"/>
<path d="M426.601 84.9106C436.089 87.9037 452.508 79.8229 452.508 79.8229C452.508 79.8229 445.105 74.2675 444.277 62.7425C444.263 62.5841 444.253 62.4262 444.247 62.2653C444.198 61.4113 444.186 60.5221 444.216 59.603L441.619 61.6952L431.898 69.5338C431.898 69.5338 432.396 73.3972 432.596 79.8371C431.055 80.6818 429.822 81.6151 428.886 82.4459C427.343 83.8145 426.601 84.9106 426.601 84.9106Z" fill="#F4AC75"/>
<path d="M463.04 78.5943C463.04 78.5943 437.959 74.6378 421.435 85.5764C421.435 85.5764 410.209 158.964 419.984 165.908C429.759 172.852 463.04 165.908 463.04 165.908V78.5943Z" fill="#F4AC75"/>
<path d="M429.57 244.858H474.893C474.893 244.858 469.626 167.523 468.123 148.697C466.901 133.427 464.317 96.8153 463.384 83.5239C463.168 80.4263 463.04 78.5945 463.04 78.5945L452.22 76.7512L433.636 100.837C433.636 100.837 430.697 165.069 430.804 175.193C430.908 185.317 429.631 224.763 429.57 231.396C429.512 238.027 429.57 244.858 429.57 244.858Z" fill="#E9F2FF"/>
<path d="M433.635 100.838L429.571 244.858H408.218C408.218 244.858 409.206 150.135 409.278 141.432C409.351 132.73 406.958 95.24 413.621 89.4215C419.192 84.5578 432.596 79.8354 432.596 79.8354L433.635 100.838Z" fill="#E9F2FF"/>
<path d="M432.458 76.5125C432.458 76.5125 426.371 80.7066 426.6 82.2125C426.828 83.7184 427.664 86.0997 427.664 86.0997L431.388 85.3434L428.246 87.5543C428.246 87.5543 431.809 97.9454 433.635 100.837L432.458 76.5125Z" fill="#E9F2FF"/>
<path opacity="0.2" d="M465.936 119.412C463.272 103.031 432.473 127.238 435.033 148.723C439.77 188.472 459.939 232.791 474.892 244.858L465.936 119.412Z" fill="#B2CBFD"/>
<path d="M444.276 62.7426C444.318 62.4474 444.414 62.3027 444.414 62.3027L444.246 62.2654L441.619 61.6953L431.897 69.5339C431.897 69.5339 432.318 73.1837 432.618 79.8538C432.644 79.8205 442.636 74.2886 444.276 62.7426Z" fill="#C97C47"/>
<path d="M427.936 71.9148C427.936 71.9148 444.861 71.4411 444.404 60.9056C443.947 50.3701 445.823 43.2135 434.998 43.0705C424.172 42.9276 422.249 47.0389 421.546 50.5925C420.843 54.1465 423.522 71.7667 427.936 71.9148Z" fill="#F4AC75"/>
<path d="M444.413 62.3025C444.413 62.3025 442.209 62.8844 440.464 60.5571C438.718 58.2297 435.809 49.2695 431.969 48.6876C428.129 48.106 423.067 50.9566 421.434 49.3276C420.86 48.7548 420.246 48.0942 419.645 47.4213C417.599 45.1327 418.161 41.5469 420.815 40.0042C426.978 36.4219 437.46 31.4925 442.636 35.7706C450.238 42.0547 452.9 51.2477 444.413 62.3025Z" fill="#2B478B"/>
<path d="M431.983 244.858C431.998 244.713 433.465 230.206 433.042 217.597C432.863 212.27 433.014 206.007 433.16 199.95C433.368 191.31 433.832 182.99 433.134 177.565C431.94 168.281 432.178 126.081 432.668 121.508C433.146 117.049 432.689 112.157 432.247 110.682C431.796 109.18 433.727 100.95 433.749 100.866L433.523 100.808C433.434 101.153 431.351 109.258 431.82 110.823C432.258 112.282 432.911 117.057 432.437 121.482C431.946 126.06 431.008 168.252 432.204 177.545C432.899 182.953 433.135 191.314 432.927 199.944C432.781 206.005 432.63 212.271 432.809 217.605C433.232 230.198 431.094 244.713 431.079 244.858H431.983Z" fill="#B2CBFD"/>
<path d="M394.451 129.01C394.451 129.01 388.717 138.881 394.73 141.479C400.742 144.076 401.392 141.339 401.392 141.339L394.451 129.01Z" fill="#E9F2FF"/>
<path d="M442.5 135.09C442.5 135.09 441.589 136.95 441.691 138.62C441.799 140.367 442.617 143.003 442.617 143.003C442.617 143.003 478.021 150.539 484.9 144.239C492.287 137.476 478.581 86.6582 472.716 81.6872C470.189 79.5438 464.859 78.2355 459.939 77.4536C457.228 77.0207 454.642 76.7486 452.718 76.5833C450.735 76.4111 449.45 76.3552 449.45 76.3552L450.248 79.3062L453.353 90.7798L456.972 104.162C456.972 104.162 467.794 126.437 468.143 128.532C468.492 130.627 442.5 135.09 442.5 135.09Z" fill="#E9F2FF"/>
<path opacity="0.2" d="M437.573 97.2776C437.573 97.2776 446.602 93.3472 453.09 89.7653C457.327 87.4267 459.495 83.0486 459.94 77.4535C457.228 77.0207 454.643 76.7485 452.718 76.5833C452.406 76.6833 452.22 76.751 452.22 76.751L450.249 79.3064L437.573 97.2776Z" fill="#B2CBFD"/>
<path d="M433.635 100.838L447.697 74.0215C447.697 74.0215 452.942 75.085 454.703 76.7355C454.703 76.7355 453.808 84.8005 453.11 86.5847C453.11 86.5847 450.395 86.2742 450.007 86.5072C450.007 86.5072 451.326 88.5243 451.714 88.757C451.714 88.757 439.49 94.4546 433.635 100.838Z" fill="#E9F2FF"/>
<path opacity="0.5" d="M430.114 118.653C430.737 118.653 431.243 118.148 431.243 117.525C431.243 116.901 430.737 116.396 430.114 116.396C429.49 116.396 428.985 116.901 428.985 117.525C428.985 118.148 429.49 118.653 430.114 118.653Z" fill="#B2CBFD"/>
<path opacity="0.5" d="M431.243 180.764C431.243 180.141 430.738 179.635 430.114 179.635C429.49 179.635 428.985 180.141 428.985 180.764C428.985 181.388 429.49 181.893 430.114 181.893C430.738 181.893 431.243 181.388 431.243 180.764Z" fill="#B2CBFD"/>
<path opacity="0.5" d="M430.672 151.863C430.672 151.24 430.166 150.734 429.543 150.734C428.919 150.734 428.414 151.24 428.414 151.863C428.414 152.487 428.919 152.992 429.543 152.992C430.167 152.992 430.672 152.487 430.672 151.863Z" fill="#B2CBFD"/>
<path opacity="0.5" d="M430.672 208.243C430.672 207.619 430.166 207.114 429.543 207.114C428.919 207.114 428.414 207.619 428.414 208.243C428.414 208.866 428.919 209.371 429.543 209.371C430.167 209.372 430.672 208.866 430.672 208.243Z" fill="#B2CBFD"/>
<path d="M443.161 82.6699C443.161 82.6699 439.248 84.5954 432.924 83.4041L433.634 100.838L443.161 82.6699Z" fill="#7A97F3"/>
<path d="M418.44 103.295L381.824 106.576L404.167 146.265L438.632 144.286L418.44 103.295Z" fill="#699EEE"/>
<path d="M415.067 103.112C415.067 103.112 415.051 97.5021 411.95 97.8901C408.85 98.2778 407.913 103.914 407.913 103.914L415.067 103.112Z" fill="#B2CBFD"/>
<path d="M382.063 106.075L418.68 102.794L438.871 143.786L438.624 144.295L418.432 103.304L381.816 106.584L382.063 106.075Z" fill="#2C3A64"/>
<path d="M411.951 97.8899C411.951 97.8899 406.777 100.43 408.606 108.57C410.435 116.709 412.712 121.174 411.385 125.988L386.719 128.253C386.719 128.253 389.399 121.852 386.421 115.374C383.444 108.896 385.559 101.493 388.293 100.848L411.951 97.8899Z" fill="#E9F2FF"/>
<path d="M399.631 138.877C399.631 138.877 403.381 134.372 402.605 131.113C401.829 127.855 399.037 127.101 397.33 128.254C395.623 129.406 393.141 132.044 393.606 134.061C394.072 136.078 397.743 139.814 399.631 138.877Z" fill="#F4AC75"/>
<path d="M444.373 136.196C444.373 136.196 438.021 133.403 435.111 134.218C432.202 135.032 428.278 135.614 427.971 136.661C427.664 137.709 430.063 141.586 433.635 141.781C437.206 141.977 443.49 143.643 445.003 141.781C446.515 139.92 444.373 136.196 444.373 136.196Z" fill="#F4AC75"/>
<path d="M651.261 349.934H0.73859C0.332267 349.934 0 349.601 0 349.195V348.943C0 348.536 0.332267 348.204 0.73859 348.204H651.261C651.667 348.204 652 348.536 652 348.943V349.195C652 349.601 651.667 349.934 651.261 349.934Z" fill="#2E3552"/>
</svg>
