<svg width="630" height="630" viewBox="0 0 630 630" fill="none" xmlns="http://www.w3.org/2000/svg">
<path d="M559.549 334.09H526.183V348.189H559.549V334.09Z" fill="#E4EFF8"/>
<path d="M559.55 46.3228H526.183V60.4222H559.55V46.3228Z" fill="#7FC5F9"/>
<path d="M578.163 64.1016H544.797V78.201H578.163V64.1016Z" fill="#7FC5F9"/>
<path d="M85.2019 46.3374H51.8359V60.4368H85.2019V46.3374Z" fill="#7FC5F9"/>
<path d="M245.18 215.011H278.546V200.912H245.18V215.011Z" fill="#E4EFF8"/>
<path d="M263.794 197.231H297.159V183.132H263.794V197.231Z" fill="#E4EFF8"/>
<path d="M400.288 133.581C407.981 117.397 401.098 98.0411 384.914 90.3479C368.73 82.6547 349.374 89.5377 341.681 105.722C333.988 121.905 340.871 141.261 357.055 148.955C373.238 156.648 392.594 149.765 400.288 133.581Z" fill="#7FC5F9"/>
<path d="M384.156 149.04C399.994 142.594 407.606 124.529 401.16 108.692C394.714 92.855 376.649 85.2423 360.812 91.6887C344.975 98.135 337.362 116.199 343.808 132.037C350.255 147.874 368.319 155.487 384.156 149.04Z" fill="#136FB7"/>
<path d="M383.452 147.214C398.288 141.169 405.413 124.241 399.368 109.406C393.322 94.5708 376.395 87.4453 361.559 93.4909C346.724 99.5366 339.598 116.464 345.644 131.299C351.69 146.135 368.617 153.26 383.452 147.214Z" fill="white"/>
<path opacity="0.5" d="M400.838 114.206C387.629 122.21 365.92 135.338 353.788 142.534C350.385 139.661 347.653 136.019 345.862 131.876L385.991 94.6851C393.463 98.62 399.005 105.724 400.838 114.206Z" fill="#E4EFF8"/>
<path opacity="0.5" d="M401.474 121.374C401.363 124.688 400.693 127.859 399.558 130.799L363.381 147.908C361.793 147.383 360.266 146.725 358.812 145.945C369.74 139.63 389.71 128.14 401.474 121.374Z" fill="#E4EFF8"/>
<path d="M372.768 93.4604H372.208V97.8566H372.768V93.4604Z" fill="#7FC5F9"/>
<path d="M359.268 96.9071L358.782 97.1875L360.98 100.995L361.466 100.714L359.268 96.9071Z" fill="#7FC5F9"/>
<path d="M349.345 106.665L349.064 107.151L352.871 109.349L353.152 108.864L349.345 106.665Z" fill="#7FC5F9"/>
<path d="M349.984 120.081H345.588V120.641H349.984V120.081Z" fill="#7FC5F9"/>
<path d="M352.85 131.369L349.043 133.567L349.324 134.053L353.131 131.855L352.85 131.369Z" fill="#7FC5F9"/>
<path d="M360.985 139.706L358.789 143.515L359.274 143.795L361.47 139.986L360.985 139.706Z" fill="#7FC5F9"/>
<path d="M372.768 142.864H372.208V147.26H372.768V142.864Z" fill="#7FC5F9"/>
<path d="M383.973 139.708L383.487 139.988L385.685 143.795L386.171 143.515L383.973 139.708Z" fill="#7FC5F9"/>
<path d="M392.135 131.373L391.854 131.858L395.661 134.057L395.942 133.571L392.135 131.373Z" fill="#7FC5F9"/>
<path d="M399.388 120.081H394.992V120.641H399.388V120.081Z" fill="#7FC5F9"/>
<path d="M395.635 106.669L391.828 108.867L392.108 109.353L395.915 107.155L395.635 106.669Z" fill="#7FC5F9"/>
<path d="M385.7 96.9094L383.503 100.718L383.989 100.998L386.185 97.1895L385.7 96.9094Z" fill="#7FC5F9"/>
<path d="M372.91 95.4517L373.863 122.319L371.111 122.285L372.162 95.4429L372.91 95.4517Z" fill="#7FC5F9"/>
<path d="M389.645 110.992L371.569 122.53L370.255 120.112L389.288 110.335L389.645 110.992Z" fill="#7FC5F9"/>
<path d="M373.426 120.361C373.426 120.88 373.005 121.3 372.488 121.3C371.968 121.3 371.549 120.879 371.549 120.361C371.549 119.842 371.97 119.422 372.488 119.422C373.007 119.422 373.426 119.843 373.426 120.361Z" fill="#136FB7"/>
<path d="M576.035 112.423H435.669V287.566H576.035V112.423Z" fill="#7FC5F9"/>
<path d="M570.017 118.609H441.688V281.49H570.017V118.609Z" fill="white"/>
<path d="M490.204 163.097C479.652 161.991 471.795 175.196 465.014 195.856C458.232 216.516 458.91 228.194 459.815 231.585C460.72 234.975 464.411 242.132 471.719 242.961C479.027 243.79 484.452 238.215 488.37 235.05C492.288 231.886 500.275 230.453 501.932 223.221C503.59 215.988 500.726 191.651 500.199 187.282C499.673 182.913 499.547 164.078 490.204 163.097Z" fill="#7FC5F9"/>
<path d="M498.566 225.053C496.658 229.375 489.123 229.776 486.813 232.389C484.504 234.999 477.874 240.424 472.751 240.725C467.628 241.026 463.809 235.201 462.505 232.187C461.552 229.99 461.134 222.617 463.12 211.54C463.855 207.423 464.925 202.794 466.422 197.732C467.654 193.563 469.005 189.761 470.415 186.346C475.324 174.459 480.96 167.311 484.905 165.986C498.066 161.567 496.357 181.054 497.765 189.393C498.228 192.151 498.684 196.517 499.016 201.28C499.202 203.974 499.351 206.795 499.438 209.525C499.66 216.552 499.488 222.971 498.566 225.053Z" fill="#7FC5F9"/>
<path d="M472.811 189.17C472.741 188.402 472.11 187.974 471.376 188.278C470.601 188.598 470.204 189.591 470.022 190.357C469.86 191.034 469.973 192.153 470.912 192.043C471.493 191.975 471.861 191.373 472.137 190.92C472.459 190.392 472.871 189.813 472.811 189.17Z" fill="#7FC5F9"/>
<path d="M473.907 182.275C473.124 182.702 472.84 183.588 472.598 184.393C472.401 185.043 472.101 186.231 473.095 186.364C473.88 186.468 474.277 185.585 474.529 185C474.794 184.388 475.097 183.708 475.129 183.035C475.157 182.408 474.455 181.976 473.907 182.275Z" fill="#7FC5F9"/>
<path d="M476.038 187.259C475.95 186.818 475.415 186.596 475.03 186.807C474.161 187.282 473.472 188.588 473.804 189.588C473.948 190.019 474.456 190.365 474.906 190.082C475.788 189.523 476.239 188.255 476.038 187.259Z" fill="#7FC5F9"/>
<path d="M479.342 179.869C479.419 179.214 478.682 178.594 478.082 179.048C477.252 179.675 476.376 181.105 476.776 182.17C476.898 182.495 477.258 182.666 477.588 182.554C478.548 182.229 479.23 180.819 479.342 179.869Z" fill="#7FC5F9"/>
<path d="M476.008 177.382C475.523 177.627 475.178 178.063 474.944 178.543C474.7 179.045 474.603 179.483 474.753 180.028C474.827 180.3 475.101 180.404 475.349 180.295C476.232 179.911 476.846 178.937 477.005 178.001C477.095 177.467 476.415 177.177 476.008 177.382Z" fill="#7FC5F9"/>
<path d="M479.28 173.666C478.446 174.07 477.528 175.111 477.618 176.1C477.666 176.628 478.183 177.111 478.727 176.789C479.508 176.328 480.005 175.281 480.194 174.42C480.312 173.877 479.807 173.41 479.28 173.666Z" fill="#7FC5F9"/>
<path d="M482.318 170.606C482.263 170.255 481.847 170.034 481.519 170.115C481.064 170.228 480.853 170.592 480.607 170.955C480.399 171.263 480.199 171.661 480.303 172.043C480.365 172.268 480.539 172.388 480.761 172.418C481.184 172.475 481.575 172.142 481.824 171.841C481.941 171.7 482.072 171.559 482.172 171.404C482.338 171.154 482.363 170.892 482.318 170.606Z" fill="#7FC5F9"/>
<path d="M481.831 176.859C481.78 176.492 481.337 176.266 481.002 176.349C480.472 176.478 480.223 176.906 480.008 177.368C479.809 177.798 479.691 178.618 480.315 178.767C480.831 178.89 481.197 178.505 481.449 178.104C481.536 177.967 481.635 177.829 481.713 177.687C481.86 177.423 481.873 177.149 481.831 176.859Z" fill="#7FC5F9"/>
<path d="M479.11 184.26C479.067 183.705 478.527 183.23 477.968 183.549C477.227 183.971 476.65 185.197 476.965 186.041C477.107 186.422 477.521 186.719 477.932 186.476C478.288 186.264 478.555 185.917 478.732 185.546C478.934 185.127 479.148 184.741 479.11 184.26Z" fill="#7FC5F9"/>
<path d="M472.566 192.387C472.06 192.869 471.801 193.647 471.772 194.337C471.755 194.766 471.912 195.948 472.638 195.682C473.131 195.502 473.326 195.055 473.533 194.599C473.757 194.104 473.99 193.608 474.053 193.063C474.142 192.287 473.094 191.885 472.566 192.387Z" fill="#7FC5F9"/>
<path d="M469.136 194.454C468.424 195.028 468.235 196.135 468.399 196.997C468.507 197.566 469.279 197.636 469.578 197.194C469.988 196.589 470.411 195.784 470.432 195.046C470.455 194.343 469.645 194.045 469.136 194.454Z" fill="#7FC5F9"/>
<path d="M471.231 200.409C471.139 199.947 470.505 199.612 470.087 199.897C469.772 200.112 469.519 200.317 469.376 200.684C469.265 200.97 469.195 201.308 469.2 201.614C469.21 202.257 469.644 203.063 470.394 202.762C470.786 202.604 471.009 202.114 471.126 201.739C471.27 201.28 471.325 200.886 471.231 200.409Z" fill="#7FC5F9"/>
<path d="M467.574 204.37C467.559 203.783 466.864 203.407 466.405 203.837C465.98 204.232 465.599 205.094 465.809 205.674C465.984 206.159 466.551 206.415 466.975 206.027C467.36 205.674 467.588 204.884 467.574 204.37Z" fill="#7FC5F9"/>
<path d="M468.254 207.339C467.979 207.266 467.593 207.349 467.456 207.631C467.362 207.827 467.308 207.995 467.344 208.217C467.368 208.363 467.443 208.502 467.547 208.606C467.722 208.781 467.981 208.891 468.219 208.77C468.289 208.733 468.349 208.706 468.414 208.658C468.629 208.503 468.706 208.285 468.74 208.029C468.779 207.741 468.527 207.412 468.254 207.339Z" fill="#7FC5F9"/>
<path d="M485.131 167.817C484.857 167.744 484.47 167.827 484.334 168.109C484.239 168.306 484.185 168.474 484.222 168.695C484.246 168.841 484.32 168.98 484.425 169.086C484.6 169.261 484.858 169.371 485.096 169.248C485.167 169.213 485.226 169.184 485.293 169.136C485.508 168.981 485.585 168.763 485.619 168.508C485.657 168.219 485.405 167.89 485.131 167.817Z" fill="#7FC5F9"/>
<path d="M521.497 163.097C532.048 161.991 539.905 175.196 546.686 195.856C553.468 216.516 552.79 228.194 551.885 231.585C550.982 234.975 547.289 242.132 539.981 242.961C532.673 243.79 527.248 238.215 523.33 235.05C519.413 231.886 511.425 230.453 509.769 223.221C508.11 215.988 510.974 191.651 511.501 187.282C512.029 182.913 512.155 164.078 521.497 163.097Z" fill="#7FC5F9"/>
<path d="M513.134 225.053C515.042 229.375 522.577 229.776 524.888 232.389C527.196 234.999 533.826 240.424 538.949 240.725C544.072 241.026 547.891 235.201 549.195 232.187C550.148 229.99 550.566 222.617 548.581 211.54C547.845 207.423 546.775 202.794 545.278 197.732C544.046 193.563 542.695 189.761 541.285 186.346C536.376 174.459 530.74 167.311 526.795 165.986C513.634 161.567 515.343 181.054 513.936 189.393C513.472 192.151 513.017 196.517 512.684 201.28C512.498 203.974 512.349 206.795 512.262 209.525C512.039 216.552 512.212 222.971 513.134 225.053Z" fill="#7FC5F9"/>
<path d="M516.302 193.268C516.029 192.986 515.55 192.927 515.25 193.213C514.504 193.925 514.037 196.721 515.604 196.804C517.178 196.887 517.047 194.039 516.302 193.268Z" fill="#7FC5F9"/>
<path d="M519.104 196.532C518.909 196.33 518.531 196.263 518.319 196.49C517.64 197.216 517.438 198.504 517.85 199.408C518.222 200.227 519.319 199.98 519.626 199.271C519.977 198.454 519.72 197.164 519.104 196.532Z" fill="#7FC5F9"/>
<path d="M515.276 199.769C514.188 200.206 514.138 202.181 514.627 203.036C515.065 203.802 516.166 203.715 516.483 202.893C516.766 202.153 516.702 199.196 515.276 199.769Z" fill="#7FC5F9"/>
<path d="M518.673 204.82C518.333 204.268 517.636 204.231 517.239 204.744C516.83 205.273 516.748 206.129 517.04 206.722C517.35 207.35 518.286 207.4 518.662 206.808C519.017 206.247 519.025 205.39 518.673 204.82Z" fill="#7FC5F9"/>
<path d="M515.345 208.375C515.098 208.041 514.504 208.034 514.221 208.315C513.684 208.85 513.626 209.976 514.326 210.412C514.617 210.593 515.049 210.591 515.305 210.338C515.825 209.826 515.754 208.93 515.345 208.375Z" fill="#7FC5F9"/>
<path d="M516.625 212.378C516.619 212.373 516.614 212.368 516.608 212.365C516.44 212.229 516.114 212.211 515.932 212.329C515.926 212.333 515.92 212.338 515.914 212.342C515.648 212.515 515.474 212.79 515.547 213.122C515.611 213.414 515.892 213.674 516.2 213.676C516.486 213.679 516.741 213.535 516.867 213.277C517.032 212.937 516.904 212.604 516.625 212.378Z" fill="#7FC5F9"/>
<path d="M519.546 188.917C519.341 188.611 518.881 188.419 518.575 188.739C517.728 189.621 517.694 190.959 517.823 192.115C517.881 192.639 518.478 192.992 518.959 192.945C519.51 192.892 519.88 192.485 519.946 191.941C520.059 190.978 520.107 189.752 519.546 188.917Z" fill="#7FC5F9"/>
<path d="M517.046 185.638C516.869 185.376 516.589 185.251 516.281 185.393C515.461 185.775 515.169 186.73 515.043 187.555C514.927 188.314 514.897 189.591 515.842 189.843C516.852 190.112 517.185 188.929 517.288 188.176C517.399 187.376 517.528 186.342 517.046 185.638Z" fill="#7FC5F9"/>
<path d="M520.329 184.185C520.324 183.672 520.198 183.201 519.855 182.808C519.592 182.506 519.089 182.478 518.794 182.751C518.413 183.105 518.237 183.561 518.178 184.07C518.123 184.544 518.059 185.063 518.198 185.526C518.494 186.504 519.756 186.572 520.154 185.629C520.343 185.186 520.334 184.663 520.329 184.185Z" fill="#7FC5F9"/>
<path d="M518.014 178.579C517.874 178.177 517.427 177.973 517.071 178.277C516.336 178.904 515.992 179.907 516.382 180.827C516.64 181.434 517.534 181.418 517.869 180.906C518.321 180.208 518.272 179.328 518.014 178.579Z" fill="#7FC5F9"/>
<path d="M521.592 202.229C521.582 202.108 521.561 201.989 521.527 201.872C521.498 201.741 521.437 201.628 521.355 201.524C521.35 201.517 521.347 201.511 521.339 201.499C521.337 201.497 521.334 201.494 521.333 201.49C521.33 201.487 521.329 201.483 521.325 201.48C521.328 201.484 521.329 201.485 521.332 201.489C521.138 201.203 520.761 201.003 520.422 201.206C520.118 201.388 519.847 201.649 519.746 202.004C519.629 202.416 519.668 202.832 519.818 203.227C519.946 203.562 520.382 203.737 520.705 203.71C521.067 203.681 521.378 203.442 521.499 203.097C521.592 202.83 521.615 202.511 521.592 202.229Z" fill="#7FC5F9"/>
<path d="M522.805 194.142C522.665 193.671 522.306 192.926 521.683 193.202C520.658 193.658 520.561 195.512 520.981 196.38C521.375 197.19 522.438 196.958 522.758 196.243C523.016 195.668 522.981 194.734 522.805 194.142Z" fill="#7FC5F9"/>
<path d="M522.632 187.633C522.513 187.188 522.032 186.7 521.543 186.913C521.399 186.976 521.276 187.047 521.17 187.164C520.974 187.382 520.911 187.562 520.868 187.85C520.811 188.221 520.864 188.526 521.105 188.834C521.376 189.181 522.009 189.214 522.314 188.898C522.516 188.69 522.647 188.464 522.661 188.163C522.668 188.016 522.666 187.764 522.632 187.633Z" fill="#7FC5F9"/>
<path d="M522.097 178.206C522.049 177.707 521.674 176.739 521.019 176.851C520.37 176.963 519.98 177.761 519.893 178.332C519.781 179.073 519.838 179.843 520.477 180.321C520.687 180.479 521.076 180.515 521.301 180.365C522.004 179.894 522.174 179.015 522.097 178.206Z" fill="#7FC5F9"/>
<path d="M519.871 172.663C519.716 172.444 519.388 172.44 519.169 172.534C518.379 172.873 518.033 173.939 518.087 174.729C518.123 175.251 518.385 175.711 518.942 175.808C519.409 175.888 520.021 175.635 520.133 175.117C520.309 174.297 520.379 173.381 519.871 172.663Z" fill="#7FC5F9"/>
<path d="M520.509 168.952C520.404 168.633 520.118 168.305 519.74 168.392C519.547 168.436 519.394 168.521 519.253 168.659C519.009 168.896 518.936 169.124 518.892 169.449C518.838 169.852 519.188 170.22 519.559 170.29C519.976 170.368 520.327 170.132 520.487 169.752C520.597 169.488 520.597 169.219 520.509 168.952Z" fill="#7FC5F9"/>
<path d="M517.905 199.112C517.333 199.245 515.801 198.603 514.12 197.579C513.884 197.434 513.647 197.284 513.409 197.127C512.435 196.49 511.45 195.746 510.597 194.969C510.558 194.933 510.515 194.894 510.473 194.855C510.19 194.584 509.889 194.261 509.581 193.902C508.973 193.192 508.328 192.335 507.704 191.455C507.565 191.259 507.429 191.063 507.294 190.871C506.933 190.347 506.577 189.822 506.246 189.322C506.056 189.036 505.869 188.755 505.694 188.491C504.724 187.02 504.016 185.929 503.892 185.981C503.805 186.017 503.395 186.539 502.829 187.258C502.608 187.533 502.368 187.84 502.112 188.157C501.961 188.343 501.805 188.533 501.645 188.724C501.391 189.031 501.129 189.338 500.867 189.637C500.529 190.02 500.189 190.384 499.864 190.701C499.39 191.162 498.948 191.526 498.583 191.698C498.408 191.783 498.251 191.822 498.119 191.807C496.712 191.656 495.079 188.643 495.153 187.286C495.166 187.078 495.298 186.797 495.517 186.469C495.728 186.149 496.02 185.783 496.361 185.391C496.741 184.954 497.178 184.484 497.63 184.007C497.817 183.812 498.007 183.613 498.197 183.414C498.466 183.13 498.734 182.851 498.992 182.576C499.143 182.414 499.293 182.251 499.438 182.093C500.17 181.288 500.744 180.589 500.878 180.153C500.891 180.117 500.887 179.978 500.87 179.752C500.855 179.562 500.833 179.306 500.8 178.996C500.744 178.421 500.659 177.658 500.562 176.779C500.532 176.502 500.499 176.209 500.465 175.908C500.378 175.155 500.288 174.345 500.194 173.503C500.162 173.187 500.125 172.864 500.092 172.539C499.975 171.472 499.863 170.384 499.761 169.345C499.739 169.104 499.716 168.866 499.694 168.63C499.637 167.983 499.582 167.362 499.54 166.783C499.499 166.225 499.465 165.71 499.441 165.246C499.393 164.113 499.404 163.306 499.525 163.04C499.872 162.269 503.293 161.515 506.257 161.165C508.479 160.9 510.447 160.864 510.672 161.219C510.785 161.394 510.805 162.313 510.769 163.66C510.757 164.069 510.742 164.519 510.722 164.998V165C510.689 165.838 510.64 166.767 510.585 167.746C510.568 168.075 510.549 168.409 510.529 168.746C510.472 169.69 510.412 170.663 510.351 171.622C510.318 172.083 510.288 172.541 510.258 172.993C510.206 173.772 510.156 174.532 510.107 175.247C510.074 175.751 510.044 176.232 510.013 176.682C509.977 177.234 509.944 177.74 509.916 178.182C509.892 178.616 509.869 178.99 509.856 179.291C509.832 179.798 509.826 180.105 509.843 180.153C510.361 181.539 511.136 182.827 512.043 184.011C512.293 184.336 512.552 184.656 512.821 184.966C513.165 185.371 513.523 185.759 513.884 186.133C514.122 186.378 514.363 186.618 514.605 186.85C515.075 187.305 515.549 187.74 516.019 188.149C516.432 188.513 516.835 188.857 517.231 189.189C517.713 189.593 518.18 189.972 518.614 190.328C518.915 190.572 519.201 190.806 519.467 191.029C519.729 191.246 519.97 191.452 520.188 191.644C520.799 192.192 521.227 192.647 521.372 193.013C522.125 194.894 518.885 198.887 517.905 199.112Z" fill="#7FC5F9"/>
<path d="M510.768 163.656C510.755 164.065 510.74 164.515 510.72 164.994V164.996C508.84 165.425 506.872 165.657 505.019 165.934C503.572 166.151 502.126 166.38 500.679 166.603C500.3 166.661 499.919 166.729 499.54 166.778C499.499 166.22 499.465 165.705 499.441 165.241C499.899 165.12 500.369 165.03 500.824 164.933C502.156 164.65 503.503 164.424 504.851 164.225C506.754 163.946 508.782 163.671 510.768 163.656Z" fill="#E4EFF8"/>
<path d="M510.585 167.742C510.567 168.071 510.548 168.405 510.528 168.743C509.133 168.872 507.729 168.933 506.345 169.026C504.175 169.171 501.951 169.403 499.76 169.34C499.739 169.099 499.715 168.861 499.694 168.625C501.688 168.297 503.744 168.216 505.748 168.077C507.345 167.965 508.967 167.803 510.585 167.742Z" fill="#E4EFF8"/>
<path d="M510.35 171.618C510.317 172.079 510.287 172.538 510.256 172.989C507.062 173.357 502.641 173.664 500.194 173.498C500.161 173.182 500.125 172.859 500.092 172.534C502.516 171.999 507.1 171.664 510.35 171.618Z" fill="#E4EFF8"/>
<path d="M510.105 175.244C510.072 175.748 510.042 176.229 510.011 176.679C506.798 176.924 502.708 176.978 500.56 176.776C500.53 176.499 500.497 176.207 500.463 175.906C502.595 175.521 506.822 175.244 510.105 175.244Z" fill="#E4EFF8"/>
<path d="M509.916 178.179C509.892 178.613 509.868 178.987 509.856 179.288C508.659 179.396 507.457 179.459 506.27 179.539C504.47 179.656 502.669 179.82 500.869 179.749C500.854 179.559 500.833 179.303 500.8 178.993C502.407 178.727 504.037 178.643 505.67 178.517C507.075 178.409 508.497 178.261 509.916 178.179Z" fill="#E4EFF8"/>
<path d="M499.862 190.698C499.388 191.159 498.946 191.523 498.58 191.696C497.878 190.882 497.284 189.933 496.783 189.11C496.27 188.266 495.84 187.387 495.515 186.467C495.725 186.147 496.017 185.78 496.359 185.388C496.907 186.391 497.452 187.395 498.065 188.363C498.584 189.18 499.247 189.927 499.862 190.698Z" fill="#E4EFF8"/>
<path d="M501.644 188.721C501.39 189.028 501.128 189.336 500.866 189.634C499.745 187.965 498.486 185.75 497.629 184.005C497.816 183.809 498.006 183.61 498.196 183.411C499.181 184.957 500.55 187.024 501.644 188.721Z" fill="#E4EFF8"/>
<path d="M502.827 187.257C502.606 187.532 502.366 187.839 502.11 188.155C501.636 187.411 501.212 186.622 500.787 185.901C500.142 184.814 499.555 183.701 498.99 182.573C499.141 182.411 499.291 182.248 499.436 182.091C500.142 183.212 500.861 184.324 501.58 185.436C501.968 186.045 502.405 186.644 502.827 187.257Z" fill="#E4EFF8"/>
<path d="M512.82 184.963C511.006 186.479 508.001 188.492 506.244 189.321C506.054 189.035 505.868 188.754 505.693 188.49C507.148 187.308 510.045 185.253 512.043 184.008C512.294 184.333 512.552 184.653 512.82 184.963Z" fill="#E4EFF8"/>
<path d="M514.605 186.846C512.73 188.331 509.746 190.318 507.704 191.454C507.565 191.257 507.429 191.062 507.294 190.869C509.117 189.537 511.93 187.506 513.885 186.129C514.122 186.373 514.364 186.614 514.605 186.846Z" fill="#E4EFF8"/>
<path d="M517.229 189.184C515.379 191.15 512.45 193.623 510.472 194.853C510.189 194.582 509.887 194.259 509.58 193.9C511.152 192.282 513.926 189.808 516.017 188.145C516.432 188.509 516.835 188.853 517.229 189.184Z" fill="#E4EFF8"/>
<path d="M520.187 191.641C518.518 193.878 516.39 195.987 514.12 197.578C513.885 197.433 513.648 197.284 513.41 197.126C514.492 196.05 515.622 195.032 516.701 193.95C517.647 193.001 518.548 192.003 519.468 191.026C519.729 191.243 519.97 191.448 520.187 191.641Z" fill="#E4EFF8"/>
<path d="M537.137 126.248H474.57V130.999H537.137V126.248Z" fill="#7FC5F9"/>
<path d="M523.527 134.64H488.177V139.391H523.527V134.64Z" fill="#7FC5F9"/>
<path d="M315 579.339C460.897 579.339 579.17 568.749 579.17 555.686C579.17 542.623 460.897 532.033 315 532.033C169.102 532.033 50.8293 542.623 50.8293 555.686C50.8293 568.749 169.102 579.339 315 579.339Z" fill="#7FC5F9"/>
<path d="M47.0302 477.427L290.81 477.427L290.81 87.1909L47.0302 87.1909L47.0302 477.427Z" fill="#7FC5F9"/>
<path d="M59.4518 195.686L278.391 195.686V101.197L59.4518 101.197V195.686Z" fill="#E4EFF8"/>
<path d="M59.4518 307.19H278.391V212.702L59.4518 212.702V307.19Z" fill="#E4EFF8"/>
<path d="M59.4508 418.693H278.39V324.204H59.4508V418.693Z" fill="#E4EFF8"/>
<path d="M137.836 219.756H115.405V307.19H137.836V219.756Z" fill="white"/>
<path d="M137.836 248.612H115.406V266.252H137.836V248.612Z" fill="#2BA167"/>
<path d="M137.836 273.62H115.405V283.874H137.836V273.62Z" fill="#2BA167"/>
<path d="M112.37 219.756H89.9398V307.19H112.37V219.756Z" fill="white"/>
<path d="M112.37 248.612H89.9398V266.252H112.37V248.612Z" fill="#0B4E94"/>
<path d="M112.37 273.62H89.9398V283.874H112.37V273.62Z" fill="#0B4E94"/>
<path d="M86.9052 219.756H64.4747V307.19H86.9052V219.756Z" fill="white"/>
<path d="M86.9052 248.612H64.4747V266.252H86.9052V248.612Z" fill="#2BA167"/>
<path d="M86.9052 273.62H64.4747V283.874H86.9052V273.62Z" fill="#2BA167"/>
<path d="M63.6461 195.687H83.8515V162.051H63.6461V195.687Z" fill="white"/>
<path d="M60.8734 162.05H86.6227V156.329H60.8734V162.05Z" fill="#2BA167"/>
<path d="M66.2395 190.197H81.26V169.455H66.2395V190.197Z" fill="#0B4E94"/>
<path d="M63.6461 155.014H83.8515V121.378H63.6461V155.014Z" fill="white"/>
<path d="M60.8734 121.377H86.6227V115.656H60.8734V121.377Z" fill="#2BA167"/>
<path d="M66.2395 149.524H81.26V128.782H66.2395V149.524Z" fill="#0B4E94"/>
<path d="M91.0514 195.687H111.257V162.051H91.0514V195.687Z" fill="white"/>
<path d="M88.2769 162.05H114.026V156.329H88.2769V162.05Z" fill="#2BA167"/>
<path d="M93.6427 190.197H108.663V169.455H93.6427V190.197Z" fill="#0B4E94"/>
<path d="M91.0504 155.014H111.256V121.378H91.0504V155.014Z" fill="white"/>
<path d="M88.2769 121.377H114.026V115.656H88.2769V121.377Z" fill="#2BA167"/>
<path d="M93.6427 149.524H108.663V128.782H93.6427V149.524Z" fill="#0B4E94"/>
<path d="M118.452 195.687H138.657V162.051H118.452V195.687Z" fill="white"/>
<path d="M115.679 162.05H141.429V156.329H115.679V162.05Z" fill="#2BA167"/>
<path d="M121.044 190.197H136.065V169.455H121.044V190.197Z" fill="#0B4E94"/>
<path d="M118.452 155.014H138.657V121.378H118.452V155.014Z" fill="white"/>
<path d="M115.679 121.377H141.429V115.656H115.679V121.377Z" fill="#2BA167"/>
<path d="M121.044 149.524H136.065V128.782H121.044V149.524Z" fill="#0B4E94"/>
<path d="M145.857 195.687H166.063V162.051H145.857V195.687Z" fill="white"/>
<path d="M143.085 162.05H168.834V156.329H143.085V162.05Z" fill="#2BA167"/>
<path d="M148.448 190.197H163.468V169.455H148.448V190.197Z" fill="#0B4E94"/>
<path d="M145.858 155.014H166.064V121.378H145.858V155.014Z" fill="white"/>
<path d="M143.085 121.378H168.834V115.656H143.085V121.378Z" fill="#2BA167"/>
<path d="M148.448 149.524H163.468V128.782H148.448V149.524Z" fill="#0B4E94"/>
<path d="M250.712 307.189H274.019V282.276C274.019 278.582 271.026 275.588 267.331 275.588H257.4C253.706 275.588 250.712 278.582 250.712 282.276V307.189Z" fill="white"/>
<path d="M255.611 275.681H269.12V272.459H255.611V275.681Z" fill="white"/>
<path d="M252.17 272.459H272.559V269.018H252.17V272.459Z" fill="#2BA167"/>
<path d="M254.447 300.302H274.019V283.243H254.447V300.302Z" fill="#0B4E94"/>
<path d="M225.401 307.19H248.708V282.277C248.708 278.583 245.715 275.589 242.02 275.589H232.089C228.395 275.589 225.401 278.583 225.401 282.277V307.19Z" fill="white"/>
<path d="M230.299 275.681H243.808V272.459H230.299V275.681Z" fill="white"/>
<path d="M226.859 272.459H247.248V269.018H226.859V272.459Z" fill="#2BA167"/>
<path d="M229.135 300.303H248.707V283.244H229.135V300.303Z" fill="#0B4E94"/>
<path d="M200.09 307.19H223.397V282.277C223.397 278.583 220.404 275.589 216.709 275.589H206.778C203.084 275.589 200.09 278.583 200.09 282.277V307.19Z" fill="white"/>
<path d="M204.989 275.681H218.499V272.459H204.989V275.681Z" fill="white"/>
<path d="M201.55 272.459H221.939V269.018H201.55V272.459Z" fill="#2BA167"/>
<path d="M203.826 300.303H223.398V283.244H203.826V300.303Z" fill="#0B4E94"/>
<path d="M174.779 307.19H198.086V282.277C198.086 278.583 195.093 275.589 191.398 275.589H181.467C177.773 275.589 174.779 278.583 174.779 282.277V307.19Z" fill="white"/>
<path d="M179.677 275.681H193.187V272.459H179.677V275.681Z" fill="white"/>
<path d="M176.238 272.459H196.627V269.018H176.238V272.459Z" fill="#2BA167"/>
<path d="M178.515 300.303H198.087V283.244H178.515V300.303Z" fill="#0B4E94"/>
<path d="M149.468 307.19H172.775V282.277C172.775 278.583 169.782 275.589 166.087 275.589H156.156C152.463 275.589 149.468 278.583 149.468 282.277V307.19Z" fill="white"/>
<path d="M154.366 275.681H167.876V272.459H154.366V275.681Z" fill="white"/>
<path d="M150.927 272.459H171.316V269.018H150.927V272.459Z" fill="#2BA167"/>
<path d="M153.204 300.303H172.776V283.244H153.204V300.303Z" fill="#0B4E94"/>
<path d="M250.712 267.696H274.019V242.782C274.019 239.088 271.026 236.094 267.331 236.094H257.4C253.706 236.094 250.712 239.088 250.712 242.782V267.696Z" fill="white"/>
<path d="M255.611 236.189H269.12V232.967H255.611V236.189Z" fill="white"/>
<path d="M252.17 232.968H272.559V229.527H252.17V232.968Z" fill="#2BA167"/>
<path d="M254.447 260.811H274.019V243.751H254.447V260.811Z" fill="#0B4E94"/>
<path d="M225.401 267.697H248.708V242.783C248.708 239.088 245.715 236.095 242.02 236.095H232.089C228.395 236.095 225.401 239.088 225.401 242.783V267.697Z" fill="white"/>
<path d="M230.299 236.189H243.808V232.968H230.299V236.189Z" fill="white"/>
<path d="M226.859 232.968H247.248V229.527H226.859V232.968Z" fill="#2BA167"/>
<path d="M229.135 260.811H248.707V243.752H229.135V260.811Z" fill="#0B4E94"/>
<path d="M200.092 267.697H223.399V242.783C223.399 239.088 220.405 236.095 216.711 236.095H206.78C203.085 236.095 200.092 239.088 200.092 242.783V267.697Z" fill="white"/>
<path d="M204.991 236.189H218.5V232.968H204.991V236.189Z" fill="white"/>
<path d="M201.552 232.968H221.941V229.527H201.552V232.968Z" fill="#2BA167"/>
<path d="M203.827 260.811H223.399V243.752H203.827V260.811Z" fill="#0B4E94"/>
<path d="M174.78 267.696H198.087V242.782C198.087 239.088 195.094 236.094 191.399 236.094H181.468C177.774 236.094 174.78 239.088 174.78 242.782V267.696Z" fill="white"/>
<path d="M179.678 236.189H193.188V232.967H179.678V236.189Z" fill="white"/>
<path d="M176.239 232.967H196.628V229.526H176.239V232.967Z" fill="#2BA167"/>
<path d="M178.515 260.811H198.087V243.751H178.515V260.811Z" fill="#0B4E94"/>
<path d="M149.468 267.697H172.775V242.783C172.775 239.088 169.782 236.095 166.087 236.095H156.156C152.463 236.095 149.468 239.088 149.468 242.783V267.697Z" fill="white"/>
<path d="M154.366 236.189H167.876V232.968H154.366V236.189Z" fill="white"/>
<path d="M150.927 232.968H171.316V229.527H150.927V232.968Z" fill="#2BA167"/>
<path d="M153.204 260.811H172.776V243.752H153.204V260.811Z" fill="#0B4E94"/>
<path d="M170.175 418.51H221.127V376.386C221.127 372.558 218.023 369.456 214.197 369.456H177.106C173.278 369.456 170.176 372.559 170.176 376.386V418.51H170.175Z" fill="white"/>
<path d="M170.174 369.456H221.125V360.957H170.174V369.456Z" fill="#062335"/>
<path d="M192.408 362.999H198.889C200.435 362.999 201.689 361.745 201.689 360.199V358.102C201.689 356.556 200.435 355.303 198.889 355.303H192.407C190.861 355.303 189.607 356.556 189.607 358.102V360.199C189.608 361.745 190.862 362.999 192.408 362.999Z" fill="#062335"/>
<path d="M172.94 407.748H218.358V385.039H172.94V407.748Z" fill="#0B4E94"/>
<path d="M116.817 418.511H167.769V376.387C167.769 372.559 164.666 369.457 160.839 369.457H123.747C119.919 369.457 116.817 372.559 116.817 376.387V418.511Z" fill="white"/>
<path d="M116.816 369.457H167.768V360.958H116.816V369.457Z" fill="#062335"/>
<path d="M139.052 362.999H145.534C147.08 362.999 148.334 361.746 148.334 360.2V358.103C148.334 356.557 147.08 355.303 145.534 355.303H139.052C137.506 355.303 136.252 356.557 136.252 358.103V360.2C136.252 361.746 137.506 362.999 139.052 362.999Z" fill="#062335"/>
<path d="M119.584 407.749H165.002V385.04H119.584V407.749Z" fill="#0B4E94"/>
<path d="M223.427 418.51H274.377V376.386C274.377 372.558 271.275 369.456 267.447 369.456H230.357C226.529 369.456 223.427 372.559 223.427 376.386V418.51Z" fill="white"/>
<path d="M223.426 369.456H274.378V360.957H223.426V369.456Z" fill="#062335"/>
<path d="M245.66 362.999H252.142C253.688 362.999 254.941 361.745 254.941 360.199V358.102C254.941 356.556 253.688 355.303 252.142 355.303H245.659C244.113 355.303 242.859 356.556 242.859 358.102V360.199C242.861 361.745 244.114 362.999 245.66 362.999Z" fill="#062335"/>
<path d="M226.192 407.748H271.61V385.039H226.192V407.748Z" fill="#0B4E94"/>
<path d="M63.4628 418.51H114.415V376.386C114.415 372.558 111.311 369.456 107.485 369.456H70.3941C66.5662 369.456 63.4641 372.559 63.4641 376.386L63.4628 418.51Z" fill="white"/>
<path d="M63.4637 369.456H114.416V360.957H63.4637V369.456Z" fill="#062335"/>
<path d="M85.6974 362.999H92.1801C93.7261 362.999 94.9798 361.745 94.9798 360.199V358.102C94.9798 356.556 93.7261 355.303 92.1801 355.303H85.6974C84.1514 355.303 82.8977 356.556 82.8977 358.102V360.199C82.8977 361.745 84.1514 362.999 85.6974 362.999Z" fill="#062335"/>
<path d="M66.231 407.748H111.649V385.039H66.231V407.748Z" fill="#0B4E94"/>
<path d="M173.698 195.686H202.906V157.903H173.698V195.686Z" fill="white"/>
<path d="M173.697 157.904H202.905L197.301 150.199H179.3L173.697 157.904Z" fill="white"/>
<path d="M175.963 150.2H200.638V142.704H175.963V150.2Z" fill="#0B4E94"/>
<path d="M177.867 183.293H202.906V166.309H177.867V183.293Z" fill="#2BA167"/>
<path d="M207.063 195.685H236.271V157.903H207.063V195.685Z" fill="white"/>
<path d="M207.061 157.903H236.269L230.666 150.198H212.666L207.061 157.903Z" fill="white"/>
<path d="M209.329 150.199H234.004V142.703H209.329V150.199Z" fill="#0B4E94"/>
<path d="M211.23 183.293H236.269V166.308H211.23V183.293Z" fill="#2BA167"/>
<path d="M240.426 195.686H269.634V157.903H240.426V195.686Z" fill="white"/>
<path d="M240.427 157.904H269.635L264.031 150.199H246.031L240.427 157.904Z" fill="white"/>
<path d="M242.692 150.2H267.366V142.704H242.692V150.2Z" fill="#0B4E94"/>
<path d="M244.596 183.293H269.635V166.309H244.596V183.293Z" fill="#2BA167"/>
<path d="M42.8408 477.428L110.881 477.121L178.921 477.009L315.001 476.799L451.081 477.008L519.121 477.119L587.159 477.428L519.121 477.736L451.081 477.846L315.001 478.056L178.921 477.845L110.881 477.734L42.8408 477.428Z" fill="#062335"/>
<path d="M322.078 465.027C322.078 465.027 328.575 512.819 328.574 512.853C328.691 521.993 328.958 530.006 329.483 534.137C329.483 534.16 329.481 534.181 329.493 534.204C329.689 535.762 329.921 536.757 330.203 537.019C330.225 537.041 330.236 537.064 330.257 537.075C333.002 538.884 406.075 540.073 408.637 539.256C411.21 538.451 409.074 531.073 406.276 528.764C403.455 526.455 375.692 513.488 375.692 513.488L368.74 465.724L322.078 465.027Z" fill="#F7A9A0"/>
<path d="M328.677 518.734C328.822 525.36 329.076 530.922 329.487 534.14C329.487 534.163 329.487 534.184 329.498 534.207C329.687 535.76 329.92 536.759 330.209 537.015C330.232 537.038 330.232 537.059 330.253 537.071C333.006 538.88 406.076 540.068 408.64 539.258C411.216 538.448 409.074 531.077 406.276 528.769C404.933 527.67 397.873 524.129 390.88 520.732C393.089 522.475 395.321 524.617 394.31 525.482C392.512 527.003 348.202 525.404 328.677 518.734Z" fill="#062335"/>
<path d="M386.758 518.733C386.758 518.733 373.827 512.844 351.653 523.49L386.758 518.733Z" fill="#062335"/>
<path d="M326.544 497.967L373.289 496.945L342.794 258.01H294.587L326.544 497.967Z" fill="#F7A9A0"/>
<path d="M299.565 465.729C299.565 465.729 293.445 511.29 293.445 511.323C293.386 520.465 293.172 528.477 292.674 532.612C292.675 532.635 292.675 532.656 292.665 532.679C292.479 534.239 292.253 535.234 291.972 535.498C291.951 535.52 291.941 535.543 291.918 535.554C289.185 537.38 223.941 539.039 221.374 538.239C218.796 537.451 220.884 530.058 223.669 527.732C226.475 525.405 246.334 512.259 246.334 512.259L254.005 464.521L299.565 465.729Z" fill="#F7A9A0"/>
<path d="M221.373 538.246C223.937 539.045 289.182 537.381 291.924 535.56C291.947 535.549 291.947 535.516 291.968 535.493C292.257 535.237 292.478 534.238 292.667 532.673C292.679 532.651 292.679 532.629 292.679 532.607C293.122 528.81 293.289 526.361 293.367 518.147C282.705 524.899 255.121 527.908 246.352 525.989C238.582 524.279 240.288 518.022 241.92 515.202C235.903 519.209 225.635 526.102 223.671 527.734C220.884 530.054 218.797 537.446 221.373 538.246Z" fill="#062335"/>
<path d="M241.918 515.203C241.918 515.203 263.876 511.629 278.891 523.49L241.918 515.203Z" fill="#062335"/>
<path d="M338.407 257.965C338.407 257.965 338.407 257.977 338.396 258.009C338.207 258.898 335.188 272.905 332.058 284.938C329.782 293.729 327.44 301.454 326.097 302.254C324.576 303.154 323.577 303.679 321.091 304.711L295.325 497.304L248.904 496.263L273.506 288.746L279.322 257.967H338.407V257.965Z" fill="#F7A9A0"/>
<path d="M276.97 258.1H344.014L363.795 404.906C363.795 404.906 331.742 413.059 312.048 412.85C292.355 412.64 257.312 401.956 257.312 401.956L276.97 258.1Z" fill="#062335"/>
<path d="M345.839 194.405C345.81 194.677 345.602 194.929 345.335 194.926C344.727 194.876 343.998 194.805 343.181 194.729C342.037 189.078 340.585 184.499 340.887 186.243C341.325 188.768 341.405 192.312 341.064 194.525C340.115 194.429 337.919 194.187 336.819 194.065C336.511 184.391 335.386 177.071 335.21 179.245C334.497 188.012 333.617 190.725 332.627 193.614C322.386 192.474 308.977 190.82 299.306 189.403C298.938 184.023 298.772 178.237 298.546 178.603C296.809 181.33 295.839 185.533 295.338 188.811C292.263 188.336 289.813 187.896 288.333 187.547C288.333 187.547 288.243 183.059 288.347 181.605C288.592 177.898 289.51 174.206 290.998 170.827C292.543 167.348 294.77 164.415 296.919 161.387C296.935 161.362 296.953 161.336 296.97 161.321C296.969 161.31 296.979 161.309 296.987 161.296C298.459 159.199 299.621 157.151 300.527 154.929C300.536 154.917 300.545 154.904 300.551 154.88C301.184 153.301 301.689 151.646 302.093 149.8C303.464 143.451 307.631 138.442 313.498 137.656C324.899 130.435 336.503 137.722 338.194 146.5L338.197 146.533C338.753 150.419 339.035 155.393 339.401 159.26C339.392 159.273 339.403 159.281 339.403 159.281C339.394 159.294 339.396 159.305 339.408 159.325L339.409 159.337C339.597 161.18 339.794 162.755 340.053 163.84C341.774 170.972 347.36 175.768 345.839 194.405Z" fill="#062335"/>
<path d="M310.796 139.029C306.809 140.497 304.113 143.147 302.868 147.742C302.142 150.42 301.59 153.06 300.242 155.48C298.851 157.979 296.941 159.903 294.985 161.818C291.879 164.861 289.565 168.016 288.499 172.55C287.416 177.156 286.834 182.701 287.676 187.296C287.681 187.323 287.718 187.316 287.714 187.289C287.157 182.678 288.005 176.555 289.403 172.044C290.939 167.09 294.082 164.323 297.382 160.9C300.003 158.181 301.88 155.013 302.907 151.175C303.514 148.903 303.828 146.487 305.011 144.445C306.422 142.007 308.728 140.684 310.99 139.545C311.296 139.39 311.098 138.919 310.796 139.029Z" fill="#062335"/>
<path d="M345.208 172.02C343.127 167.959 340.861 164.419 339.984 159.655C339.185 155.316 339.015 150.838 338.191 146.498C338.177 146.428 338.082 146.44 338.093 146.515C339.224 154.167 338.589 161.601 342.101 168.449C344.009 172.17 345.952 175.646 346.951 179.901C348.002 184.371 348.085 188.862 347.528 193.501C347.508 193.664 347.703 193.685 347.738 193.533C349.468 186.157 348.477 178.395 345.208 172.02Z" fill="#062335"/>
<path d="M320.123 206.633C323.93 218.941 339.787 259.004 352.077 262.759C360.142 265.222 393.595 264.768 399.962 257.391C402.736 254.177 400.509 229.972 396.005 230.552C391.502 231.131 364.602 232.437 361.413 231.216C358.243 230.001 336.076 199.761 327.509 192C312.737 178.616 318.074 200.006 320.123 206.633Z" fill="#F7A9A0"/>
<path d="M386.106 228.001L383.832 263.901C383.832 263.901 357.132 266.511 346.247 261.233C333.028 254.824 317.955 209.718 316.031 202.37C312.874 190.308 314.963 183.481 321.184 185.955C323.605 186.894 326.654 189.254 330.254 193.28C334.025 197.475 355.348 224.329 362.441 229.768C366.407 232.81 386.106 228.001 386.106 228.001Z" fill="#FEFEFE"/>
<path d="M377.296 261.831C377.473 256.517 378.991 234.792 379.638 230.12C379.682 229.796 379.899 229.745 379.896 230.088C379.749 246.028 377.947 256.626 377.507 261.83C377.495 261.961 377.292 261.967 377.296 261.831Z" fill="#062335"/>
<path d="M372.568 264.513C363.939 264.694 352.488 264.261 346.244 261.234C333.029 254.823 317.957 209.72 316.033 202.371C312.871 190.305 314.959 183.482 321.184 185.954C321.376 186.026 321.57 186.11 321.764 186.206L372.568 264.513Z" fill="#062335"/>
<path d="M342.17 238.52L347.445 274.797C347.445 274.797 288.327 275.669 273.652 274.634C273.652 274.634 285.622 206.819 301.402 189.685C309.295 181.116 318.562 181.756 324.468 187.747C325.962 189.263 343.794 212.829 345.672 221.832C347.309 229.777 342.17 238.52 342.17 238.52Z" fill="#2BA167"/>
<path d="M307.947 184.664C307.947 184.664 319.057 209.943 319.724 230.444C321.51 285.425 313.836 376.196 311.172 382.737C307.516 391.716 252.567 400.628 252.567 400.628C252.567 400.628 268.691 265.277 283.32 224.202C296.881 186.12 307.947 184.664 307.947 184.664Z" fill="#FEFEFE"/>
<path d="M270.873 312.894C270.62 320.977 270.993 330.124 272.713 331.805C275.935 334.953 284.513 334.686 287.2 334.665C289.869 334.643 299.504 334.633 301.757 329.681C302.751 327.497 303.015 316.213 302.988 312.218C302.977 310.597 302.612 302.618 302.492 301.725C302.464 301.514 301.891 301.538 301.871 301.677C301.735 302.59 301.823 305.903 301.775 306.531C286.308 308.518 276.735 306.858 271.772 305.9C271.776 304.41 271.773 303.248 271.747 301.756C273.873 302.29 281.032 303.143 286.395 303.143C291.759 303.143 299.831 302.341 302.46 302.002C302.584 301.985 302.493 301.392 302.307 301.394C300.293 301.422 293.304 302.106 286.269 302.106C279.463 302.106 271.253 300.933 271.227 300.935C270.998 301.006 270.996 309.021 270.873 312.894ZM273.652 330.881C271.944 328.92 271.735 323.273 271.737 319.904C271.739 315.253 271.755 311.539 271.771 306.889C283.678 309.658 296.782 308.295 301.751 307.289C301.737 307.488 301.842 317.298 301.751 320.423C301.635 324.413 301.505 328.023 299.974 330.097C298.66 331.875 294.955 333.661 286.433 333.65C280.27 333.643 275.079 332.523 273.652 330.881Z" fill="#FEFEFE"/>
<path d="M344.176 383.578C347.222 390.775 365.402 395.656 365.402 395.656L342.489 237.859C342.489 237.859 347.227 230.846 345.688 221.987C344.15 213.127 325.618 187.464 322.624 186.136C322.624 186.136 326.857 202.712 329.052 226.383C334.194 281.847 340.856 375.73 344.176 383.578Z" fill="#FEFEFE"/>
<path d="M339.847 210.002C338.199 207.371 336.503 204.769 334.883 202.12C334.838 202.046 334.954 201.958 335.008 202.028C336.661 204.197 338.272 206.399 339.871 208.608C339.342 207.425 338.828 206.235 338.35 205.028C338.296 204.892 338.49 204.776 338.556 204.915C339.289 206.469 339.954 208.051 340.606 209.64C342.011 211.628 343.316 213.693 344.382 215.883C346.635 220.51 347.604 225.573 346.386 230.637C346.049 232.036 345.558 233.385 344.913 234.67C344.473 235.547 343.054 237.442 343.063 237.496C343.986 242.668 344.682 247.899 345.412 253.101C346.15 258.365 346.898 263.63 347.511 268.912C347.857 271.902 348.081 274.916 348.516 277.893C348.533 278.003 348.364 278.045 348.347 277.934C347.969 275.34 347.406 272.771 346.946 270.188C346.486 267.603 346.049 265.013 345.632 262.42C344.789 257.181 344.039 251.926 343.282 246.673C342.854 243.702 342.384 240.732 342.045 237.749C342.008 237.423 343.351 235.302 343.747 234.49C344.28 233.397 344.711 232.242 345.045 231.074C345.722 228.704 345.95 226.181 345.67 223.731C345.094 218.698 342.488 214.218 339.847 210.002Z" fill="#062335"/>
<path d="M322.767 186.719C323.985 188.344 325.22 189.958 326.479 191.558C327.746 193.152 328.983 194.765 330.275 196.344L330.301 195.966L327.201 198.829L326.943 199.065L327.216 199.297C328.521 200.411 329.849 201.504 331.173 202.601L331.062 202.316C330.582 205.282 330.067 208.243 329.64 211.217C329.185 214.187 328.759 217.159 328.386 220.139C329.028 217.194 329.615 214.243 330.174 211.287C330.761 208.335 331.26 205.372 331.793 202.413L331.823 202.247L331.682 202.127C330.372 201.018 329.065 199.905 327.735 198.813L327.75 199.282L330.793 196.37L330.983 196.189L330.82 195.992C329.518 194.421 328.162 192.884 326.835 191.328C325.502 189.779 324.144 188.243 322.767 186.719Z" fill="#7FC5F9"/>
<path d="M309.139 184.811C309.454 185.963 312.902 193.818 318.19 194.377C321.516 194.73 321.912 183.245 321.912 183.245L322.043 182.541L323.866 172.679L312.103 165.734L310.406 164.82C310.406 164.82 310.084 167.552 309.719 170.957C309.701 171.114 309.684 171.273 309.666 171.442C309.641 171.633 309.613 171.815 309.598 171.995C309.536 172.503 309.477 173.022 309.428 173.54C309.389 173.934 309.349 174.317 309.323 174.731C309.287 175.147 309.26 175.552 309.223 175.969C308.95 180.079 309.013 184.323 309.139 184.811Z" fill="#F7A9A0"/>
<path d="M309.721 170.957C312.813 178.636 319.149 181.578 322.045 182.541L323.868 172.679L312.105 165.734L310.407 164.82C310.407 164.82 310.086 167.551 309.721 170.957Z" fill="#062335"/>
<path d="M337.611 160.907C335.686 178.403 324.99 179.226 321.218 178.807C317.793 178.426 306.181 176.695 306.288 159.094C306.395 141.492 315.138 136.856 323.017 137.312C330.894 137.768 339.537 143.411 337.611 160.907Z" fill="#F7A9A0"/>
<path d="M334.399 156.674C334 156.558 333.651 156.385 333.268 156.23C332.836 156.055 332.473 155.96 332.199 155.557C332.053 155.342 332.13 154.965 332.326 154.804C332.784 154.426 333.367 154.509 333.896 154.698C334.471 154.903 334.86 155.208 335.177 155.729C335.479 156.235 334.926 156.826 334.399 156.674Z" fill="#062335"/>
<path d="M322.482 154.706C322.898 154.726 323.284 154.676 323.697 154.655C324.163 154.629 324.536 154.657 324.926 154.366C325.135 154.21 325.184 153.829 325.05 153.613C324.74 153.107 324.162 152.995 323.6 153.003C322.99 153.01 322.523 153.173 322.055 153.563C321.603 153.94 321.934 154.679 322.482 154.706Z" fill="#062335"/>
<path d="M324.234 159.506C324.231 159.46 324.133 159.549 324.128 159.598C323.997 160.79 323.644 162.132 322.515 162.374C322.48 162.382 322.475 162.442 322.515 162.442C323.851 162.443 324.299 160.655 324.234 159.506Z" fill="#062335"/>
<path d="M323.352 158.115C321.465 157.698 320.769 161.503 322.518 161.89C324.238 162.27 324.934 158.465 323.352 158.115Z" fill="#062335"/>
<path d="M322.566 158.179C322.195 158.333 321.799 158.655 321.392 158.62C320.92 158.581 320.642 158.119 320.409 157.681C320.385 157.635 320.346 157.662 320.336 157.712C320.191 158.439 320.336 159.239 321.097 159.49C321.793 159.719 322.423 159.167 322.739 158.468C322.798 158.34 322.716 158.118 322.566 158.179Z" fill="#062335"/>
<path d="M331.389 160.621C331.407 160.578 331.471 160.694 331.459 160.742C331.197 161.911 331.094 163.296 332.084 163.89C332.116 163.908 332.101 163.967 332.062 163.955C330.798 163.524 330.953 161.687 331.389 160.621Z" fill="#062335"/>
<path d="M332.676 159.591C334.597 159.809 334.02 163.635 332.241 163.433C330.488 163.235 331.065 159.409 332.676 159.591Z" fill="#062335"/>
<path d="M333.434 159.963C333.707 160.211 333.95 160.624 334.308 160.702C334.722 160.793 335.094 160.426 335.421 160.07C335.455 160.033 335.481 160.07 335.474 160.12C335.384 160.855 335.028 161.579 334.304 161.615C333.644 161.646 333.268 160.948 333.204 160.193C333.19 160.053 333.325 159.863 333.434 159.963Z" fill="#062335"/>
<path d="M323.27 169.04C323.487 169.378 323.68 169.819 324.096 169.952C324.494 170.08 325.013 170.006 325.419 169.947C325.459 169.941 325.487 169.989 325.455 170.019C325.048 170.397 324.346 170.532 323.826 170.313C323.318 170.098 323.162 169.582 323.146 169.068C323.143 168.995 323.239 168.991 323.27 169.04Z" fill="#062335"/>
<path d="M328.939 165.613C328.939 165.613 328.881 167.418 328.74 168.251C328.726 168.329 328.518 168.332 328.233 168.299C328.219 168.301 328.211 168.305 328.201 168.294C326.691 168.272 325.299 167.513 324.611 166.159C324.567 166.069 324.688 166.001 324.754 166.065C325.715 167.058 326.891 167.472 328.19 167.717C328.289 167.496 328.185 164.621 328.319 164.634C328.78 164.673 329.624 165.135 330.136 165.385C330.364 161.626 329.988 157.861 330.273 154.121C330.286 153.988 330.481 153.982 330.5 154.105C331.173 158.022 331.004 162.354 330.868 166.241C330.854 166.729 329.248 165.812 328.939 165.613Z" fill="#062335"/>
<path d="M327.751 167.76C327.751 167.76 326.902 168.646 325.864 168.871C325.48 168.956 325.08 168.957 324.682 168.794C323.863 168.463 323.941 167.682 324.181 167.037C324.378 166.505 324.692 166.066 324.692 166.066C324.692 166.066 325.782 167.383 327.751 167.76Z" fill="#062335"/>
<path d="M325.863 168.87C325.48 168.955 325.08 168.956 324.681 168.793C323.862 168.462 323.941 167.681 324.181 167.036C325.078 167.245 325.899 167.977 325.863 168.87Z" fill="#FF9CBD"/>
<path d="M337.848 154.626C335.685 154.865 329.4 148.908 327.829 141.864C327.829 141.864 326.323 147.189 320.734 150.577C315.144 153.965 310.623 153.372 310.623 153.372C310.623 153.372 307.63 160.856 306.313 160.759C304.996 160.662 302.381 132.429 325.04 136.77C325.04 136.77 331.788 137.466 335.125 142.17C338.464 146.875 337.848 154.626 337.848 154.626Z" fill="#062335"/>
<path d="M320.382 165.371C317.944 164.646 316.204 162.337 316.308 159.682C316.433 156.541 319.088 154.086 322.229 154.21C325.37 154.333 327.825 156.988 327.701 160.129C327.578 163.269 324.921 165.723 321.78 165.601C321.295 165.582 320.826 165.503 320.382 165.371ZM323.409 155.171C323.024 155.056 322.618 154.987 322.199 154.971C319.478 154.863 317.177 156.99 317.069 159.711C316.963 162.431 319.09 164.736 321.809 164.839C324.531 164.946 326.83 162.819 326.939 160.099C327.029 157.799 325.522 155.798 323.409 155.171Z" fill="#136FB7"/>
<path d="M333.283 167.539C331.192 166.918 329.932 164.213 330.44 161.283C330.695 159.804 331.359 158.482 332.308 157.562C333.287 156.61 334.456 156.194 335.595 156.392C336.741 156.588 337.696 157.375 338.298 158.601C338.88 159.788 339.059 161.256 338.803 162.733C338.265 165.831 335.953 168.024 333.649 167.625C333.524 167.602 333.403 167.574 333.283 167.539ZM335.747 157.208C335.655 157.181 335.56 157.159 335.464 157.143C334.571 156.988 333.639 157.331 332.837 158.108C332.004 158.918 331.42 160.091 331.189 161.413C330.724 164.096 331.878 166.546 333.776 166.874C335.667 167.201 337.585 165.286 338.051 162.604C338.28 161.282 338.124 159.98 337.613 158.937C337.174 158.041 336.519 157.438 335.747 157.208Z" fill="#136FB7"/>
<path d="M327.398 160.747L327.015 160.088C327.991 159.521 330.128 158.899 331.245 160.605L330.608 161.022C329.61 159.494 327.489 160.696 327.398 160.747Z" fill="#136FB7"/>
<path d="M302.123 157.851L301.515 157.391C301.731 157.107 303.664 154.625 305.387 154.644C306.998 154.666 316.9 157.356 317.319 157.47L317.119 158.206C314.282 157.433 306.623 155.42 305.378 155.408C304.241 155.393 302.643 157.167 302.123 157.851Z" fill="#136FB7"/>
<path d="M309.268 159.051C309.268 159.051 306.571 152.914 303.859 153.772C301.148 154.63 302.429 163.004 305.086 164.643C307.745 166.282 309.31 163.85 309.31 163.85L309.268 159.051Z" fill="#F7A9A0"/>
<path d="M304.285 156.162C304.24 156.148 304.218 156.211 304.255 156.236C306.106 157.452 306.795 159.529 307.151 161.612C306.7 160.747 305.967 160.178 304.828 160.692C304.769 160.718 304.802 160.81 304.861 160.81C305.72 160.798 306.287 161.058 306.713 161.83C307.014 162.375 307.167 163.02 307.342 163.616C307.4 163.815 307.744 163.784 307.717 163.562C307.715 163.546 307.712 163.529 307.71 163.513C308.27 160.956 306.99 156.969 304.285 156.162Z" fill="#062335"/>
<path d="M319.878 209.104C319.878 209.104 315.622 203.494 319.683 200.903C323.744 198.311 327.039 204.536 327.039 204.536L319.878 209.104Z" fill="#0B4E94"/>
<path d="M353.528 246.04L353.529 246.046L354.12 252.912L354.329 255.176L352.345 254.05L346.365 250.616L346.358 250.618L346.356 250.606L319.726 208.869L326.89 204.299L353.522 246.043C353.528 246.04 353.528 246.04 353.528 246.04Z" fill="#0B4E94"/>
<path d="M354.121 252.912L354.325 255.178L352.341 254.049L354.121 252.912Z" fill="#136FB7"/>
<path d="M327.344 203.694L318.982 209.03L320.04 210.689L328.403 205.353L327.344 203.694Z" fill="#062335"/>
<path d="M328.515 205.537L320.152 210.873L321.211 212.532L329.574 207.196L328.515 205.537Z" fill="#062335"/>
<path d="M321.214 212.521L323.911 210.8L332.06 226.85L331.029 227.427L321.214 212.521Z" fill="#062335"/>
<path d="M293.007 196.565C272.159 218.631 248.388 256.079 258.046 264.387C266.865 271.975 299.795 265.626 320.57 258.003C324.525 256.551 309.349 221.517 305.305 223.499C298.21 226.975 292.668 228.961 292.138 229.093C291.001 229.378 296.841 216.001 304.011 199.783C312.007 181.698 304.924 183.952 293.007 196.565Z" fill="#F7A9A0"/>
<path d="M355.44 221.967C355.376 226 345.444 224.999 345.444 224.999C345.444 224.999 347.787 226.508 348.386 229.118C349.074 232.105 344.691 234.494 344.691 234.494C344.691 234.494 346.745 236.513 347.102 239.332C347.473 242.258 343.393 245.3 343.393 245.3C343.393 245.3 344.274 248.232 342.834 250.89C340.373 255.435 332.42 255.363 327.488 256.291C322.205 257.284 314.472 259.762 311.274 261.081L302.912 224.656C302.912 224.656 324.477 212.462 330.421 212.87C335.431 213.213 355.538 215.802 355.44 221.967Z" fill="#F7A9A0"/>
<path d="M345.363 224.881C340.125 223.238 334.504 222.851 329.076 222.538C328.955 222.531 328.946 222.72 329.067 222.725C334.469 222.975 339.935 224.675 345.315 225.138C345.464 225.151 345.504 224.925 345.363 224.881Z" fill="#062335"/>
<path d="M344.554 234.082C343.359 233.745 342.055 233.805 340.824 233.796C339.497 233.786 338.171 233.798 336.846 233.832C334.191 233.899 331.539 234.026 328.891 234.232C328.774 234.241 328.759 234.423 328.882 234.42C331.528 234.358 334.175 234.335 336.819 234.386C338.144 234.411 339.468 234.446 340.791 234.491C342.022 234.533 343.317 234.68 344.535 234.446C344.716 234.409 344.735 234.132 344.554 234.082Z" fill="#062335"/>
<path d="M343.282 245.299C342.253 244.965 340.973 245.171 339.909 245.221C338.7 245.276 337.491 245.325 336.281 245.367C333.863 245.451 331.445 245.534 329.025 245.534C328.904 245.534 328.894 245.722 329.016 245.722C331.474 245.735 333.932 245.781 336.391 245.771C337.598 245.767 338.805 245.756 340.012 245.738C341.038 245.723 342.323 245.822 343.289 245.421C343.345 245.398 343.333 245.315 343.282 245.299Z" fill="#062335"/>
<path d="M303.24 186.869C288.318 195.427 248.964 247.345 255.421 262.188C261.877 277.031 309.593 262.454 309.593 262.454L306.696 222.625C306.696 222.625 294.061 229.206 293.665 228.565C293.269 227.924 301.089 210.028 304.275 202.749C307.46 195.469 311.184 182.313 303.24 186.869Z" fill="#FEFEFE"/>
<path d="M303.687 260.015C302.982 254.743 300.884 233.067 300.748 228.353C300.738 228.027 300.944 227.941 300.998 228.28C303.49 244.025 303.467 254.774 303.895 259.98C303.905 260.109 303.704 260.148 303.687 260.015Z" fill="#062335"/>
<path d="M306.405 222.655C305.016 223.05 303.667 223.755 302.358 224.359C301.173 224.908 299.987 225.453 298.81 226.018C296.251 227.245 293.721 228.527 291.201 229.832C288.683 231.134 286.178 232.462 283.695 233.828C281.213 235.193 278.811 236.699 276.331 238.067C276.218 238.13 276.326 238.296 276.44 238.237C278.958 236.912 281.567 235.755 284.117 234.49C286.617 233.251 289.114 232.008 291.614 230.772C294.111 229.537 296.616 228.315 299.111 227.072C300.332 226.464 301.548 225.842 302.767 225.231C304.059 224.584 305.451 223.978 306.639 223.154C306.895 222.973 306.712 222.568 306.405 222.655Z" fill="#062335"/>
<path d="M302.606 211.119C301.813 212.069 301.032 213.023 300.289 214.012C300.152 214.195 300.027 214.386 299.892 214.571C300.102 214.057 300.313 213.544 300.524 213.03C301.262 211.239 302.134 209.443 302.668 207.581C302.693 207.494 302.566 207.455 302.522 207.527C301.47 209.259 300.714 211.196 299.86 213.028C299.023 214.83 298.175 216.629 297.374 218.447C296.573 220.268 295.748 222.081 294.982 223.915C294.232 225.708 293.392 227.527 292.915 229.41C292.888 229.521 293.04 229.567 293.098 229.477C294.204 227.776 294.998 225.855 295.835 224.016C296.659 222.206 297.431 220.371 298.226 218.548C298.559 217.784 298.88 217.016 299.199 216.246C299.331 216.073 299.464 215.899 299.597 215.732C299.97 215.261 300.319 214.769 300.659 214.275C301.36 213.255 302.015 212.213 302.663 211.159C302.683 211.125 302.631 211.087 302.606 211.119Z" fill="#062335"/>
<path d="M309.708 261.585C309.69 261.32 309.555 261.26 309.5 261.544C309.47 261.699 309.442 261.982 309.413 262.137C307.788 262.515 301.856 264.123 300.408 264.501C297.367 265.296 294.307 265.987 291.217 266.566C288.118 267.147 285.012 267.63 281.883 268.019C278.776 268.406 275.62 268.812 272.49 268.911C272.363 268.915 272.368 269.11 272.495 269.108C275.692 269.047 278.862 269.056 282.052 268.793C285.169 268.534 288.288 268.117 291.369 267.573C294.507 267.019 297.632 266.319 300.709 265.49C302.249 265.076 303.778 264.617 305.298 264.134C306.732 263.68 308.279 263.297 309.597 262.558C309.695 262.503 309.763 262.378 309.756 262.266C309.738 262.039 309.723 261.812 309.708 261.585Z" fill="#062335"/>
<path d="M316.214 217.749C315.86 217.923 315.506 218.09 315.152 218.264L306.617 206.699L306.43 206.451L306.561 206.177L309.692 199.412L300.828 198.984L300.387 198.959L300.555 198.567C302.363 194.237 304.127 189.902 305.972 185.591C304.437 189.865 302.834 194.12 301.269 198.38L310.357 198.598L310.978 198.611L310.723 199.194L307.63 206.318L316.214 217.749Z" fill="#7FC5F9"/>
<path d="M300.845 198.369L301.268 198.381C301.218 198.519 301.168 198.648 301.119 198.784L300.845 198.369Z" fill="#7FC5F9"/>
<path d="M307.449 206.078L307.629 206.32L307.511 206.599L307.449 206.078Z" fill="#7FC5F9"/>
<path d="M309.951 198.847L310.324 199.443L309.691 199.412L309.951 198.847Z" fill="#7FC5F9"/>
<path d="M375.383 266.884L333.634 264.311L356.429 211.955L398.178 214.527L375.383 266.884Z" fill="white"/>
<path d="M378.24 267.061L336.491 264.488L359.285 212.131L401.034 214.704L378.24 267.061Z" fill="#0B4E94"/>
<path d="M363.721 212.41C363.423 213.236 362.735 214.061 361.797 214.48C361.386 214.669 361.312 214.141 361.718 213.963C362.311 213.691 362.764 213.183 363.014 212.663C363.055 212.57 363.1 212.466 363.129 212.373C363.256 212.024 363.313 211.671 363.255 211.358C363.226 211.201 363.158 211.078 363.043 210.976C363.043 210.976 363.024 210.963 363.018 210.951C362.999 210.938 362.975 210.935 362.969 210.924C362.945 210.923 362.891 210.908 362.891 210.908C362.794 210.877 362.706 210.885 362.596 210.914C362.422 210.951 362.253 211.059 362.097 211.192C361.898 211.37 361.785 211.519 361.646 211.724C361.57 211.815 361.512 211.918 361.444 212.022L361.414 212.091C361.388 212.125 361.373 212.16 361.357 212.194C361.347 212.217 361.326 212.24 361.327 212.263L360.735 212.227C360.881 211.891 361.104 211.548 361.364 211.23C361.809 210.71 362.403 210.295 363.031 210.31C363.593 210.333 363.86 210.754 363.911 211.221C363.956 211.592 363.885 212.004 363.721 212.41Z" fill="#2BA167"/>
<path d="M366.989 212.611C366.69 213.438 366.002 214.263 365.065 214.681C364.654 214.87 364.579 214.343 364.985 214.165C365.579 213.893 366.031 213.385 366.282 212.865C366.322 212.771 366.367 212.668 366.396 212.575C366.524 212.226 366.58 211.873 366.522 211.559C366.493 211.403 366.425 211.279 366.312 211.177C366.312 211.177 366.293 211.165 366.287 211.152C366.268 211.14 366.244 211.137 366.238 211.126C366.214 211.124 366.16 211.109 366.16 211.109C366.063 211.079 365.976 211.087 365.865 211.116C365.691 211.152 365.522 211.261 365.366 211.394C365.167 211.572 365.053 211.72 364.916 211.926C364.84 212.017 364.782 212.12 364.713 212.223L364.683 212.292C364.656 212.327 364.641 212.362 364.625 212.396C364.615 212.418 364.593 212.441 364.595 212.465L364.002 212.429C364.149 212.092 364.372 211.749 364.631 211.432C365.076 210.912 365.671 210.497 366.297 210.512C366.859 210.535 367.126 210.956 367.178 211.423C367.223 211.792 367.154 212.204 366.989 212.611Z" fill="#2BA167"/>
<path d="M370.255 212.813C369.956 213.64 369.269 214.465 368.331 214.883C367.92 215.072 367.846 214.544 368.252 214.367C368.845 214.093 369.297 213.587 369.548 213.066C369.589 212.973 369.634 212.87 369.663 212.777C369.79 212.428 369.847 212.074 369.789 211.761C369.76 211.605 369.692 211.481 369.577 211.379C369.577 211.379 369.558 211.367 369.552 211.354C369.533 211.341 369.509 211.339 369.503 211.328C369.479 211.326 369.425 211.311 369.425 211.311C369.328 211.281 369.24 211.289 369.13 211.318C368.956 211.354 368.787 211.462 368.631 211.596C368.432 211.774 368.318 211.921 368.181 212.128C368.106 212.218 368.048 212.322 367.98 212.425L367.949 212.494C367.922 212.528 367.906 212.564 367.891 212.598C367.881 212.62 367.86 212.643 367.861 212.667L367.269 212.63C367.415 212.294 367.638 211.951 367.898 211.634C368.342 211.113 368.937 210.699 369.563 210.713C370.125 210.735 370.392 211.156 370.444 211.624C370.491 211.994 370.42 212.406 370.255 212.813Z" fill="#2BA167"/>
<path d="M373.524 213.015C373.226 213.842 372.538 214.667 371.6 215.085C371.189 215.274 371.115 214.746 371.521 214.569C372.114 214.296 372.567 213.789 372.817 213.268C372.858 213.175 372.903 213.072 372.932 212.979C373.059 212.63 373.116 212.277 373.058 211.963C373.029 211.807 372.961 211.683 372.846 211.581C372.846 211.581 372.827 211.569 372.821 211.556C372.802 211.543 372.778 211.541 372.772 211.53C372.748 211.528 372.694 211.513 372.694 211.513C372.597 211.483 372.51 211.49 372.399 211.519C372.225 211.556 372.056 211.664 371.9 211.798C371.701 211.976 371.587 212.123 371.45 212.33C371.375 212.42 371.317 212.524 371.247 212.627L371.217 212.696C371.189 212.73 371.175 212.766 371.16 212.8C371.15 212.822 371.129 212.845 371.13 212.869L370.538 212.832C370.684 212.496 370.907 212.153 371.167 211.836C371.611 211.315 372.206 210.901 372.834 210.916C373.396 210.939 373.663 211.359 373.714 211.827C373.758 212.196 373.688 212.608 373.524 213.015Z" fill="#2BA167"/>
<path d="M376.79 213.214C376.492 214.041 375.804 214.866 374.866 215.284C374.456 215.473 374.381 214.946 374.787 214.768C375.38 214.494 375.833 213.988 376.084 213.468C376.124 213.374 376.169 213.271 376.198 213.178C376.325 212.829 376.382 212.476 376.324 212.162C376.295 212.006 376.227 211.882 376.113 211.78C376.113 211.78 376.094 211.768 376.087 211.755C376.068 211.743 376.044 211.74 376.038 211.729C376.014 211.728 375.96 211.712 375.96 211.712C375.863 211.682 375.775 211.69 375.665 211.719C375.491 211.755 375.322 211.864 375.168 211.997C374.968 212.175 374.855 212.323 374.716 212.529C374.641 212.62 374.583 212.723 374.515 212.826L374.485 212.896C374.458 212.93 374.443 212.965 374.428 212.999C374.418 213.022 374.396 213.044 374.398 213.068L373.805 213.032C373.952 212.695 374.175 212.352 374.434 212.035C374.879 211.515 375.475 211.1 376.1 211.115C376.662 211.138 376.929 211.559 376.981 212.026C377.025 212.397 376.955 212.809 376.79 213.214Z" fill="#2BA167"/>
<path d="M380.059 213.416C379.76 214.243 379.071 215.068 378.135 215.486C377.724 215.675 377.65 215.147 378.055 214.97C378.649 214.697 379.101 214.19 379.352 213.669C379.392 213.576 379.438 213.473 379.467 213.379C379.594 213.03 379.651 212.678 379.593 212.364C379.564 212.208 379.496 212.084 379.382 211.982C379.382 211.982 379.363 211.969 379.357 211.957C379.338 211.944 379.314 211.942 379.308 211.93C379.284 211.929 379.23 211.914 379.23 211.914C379.133 211.885 379.046 211.891 378.935 211.92C378.761 211.957 378.592 212.065 378.436 212.199C378.237 212.376 378.123 212.524 377.985 212.731C377.909 212.821 377.851 212.925 377.783 213.028L377.753 213.097C377.727 213.131 377.71 213.166 377.695 213.201C377.685 213.223 377.664 213.246 377.665 213.27L377.073 213.233C377.219 212.897 377.442 212.554 377.701 212.237C378.146 211.716 378.742 211.302 379.368 211.317C379.93 211.339 380.197 211.76 380.249 212.228C380.293 212.598 380.223 213.01 380.059 213.416Z" fill="#2BA167"/>
<path d="M383.325 213.618C383.027 214.444 382.339 215.27 381.401 215.688C380.991 215.877 380.916 215.349 381.322 215.171C381.915 214.898 382.368 214.392 382.619 213.871C382.659 213.778 382.704 213.675 382.733 213.581C382.861 213.232 382.917 212.878 382.859 212.566C382.83 212.41 382.762 212.286 382.648 212.184C382.648 212.184 382.629 212.171 382.622 212.159C382.603 212.146 382.581 212.144 382.573 212.132C382.549 212.131 382.495 212.116 382.495 212.116C382.398 212.086 382.311 212.092 382.2 212.121C382.026 212.158 381.858 212.266 381.701 212.399C381.502 212.577 381.389 212.726 381.251 212.931C381.176 213.022 381.118 213.125 381.049 213.229L381.018 213.298C380.992 213.332 380.977 213.367 380.962 213.401C380.952 213.424 380.93 213.447 380.931 213.47L380.339 213.434C380.485 213.098 380.708 212.755 380.968 212.437C381.413 211.917 382.007 211.502 382.634 211.517C383.196 211.54 383.463 211.961 383.514 212.428C383.56 212.8 383.491 213.212 383.325 213.618Z" fill="#2BA167"/>
<path d="M386.594 213.82C386.295 214.646 385.607 215.471 384.67 215.89C384.259 216.079 384.185 215.551 384.59 215.373C385.184 215.101 385.636 214.593 385.887 214.073C385.927 213.98 385.972 213.876 386.001 213.783C386.129 213.434 386.185 213.08 386.127 212.767C386.098 212.611 386.03 212.488 385.917 212.386C385.917 212.386 385.898 212.373 385.892 212.36C385.873 212.348 385.849 212.347 385.843 212.334C385.819 212.333 385.765 212.318 385.765 212.318C385.668 212.289 385.579 212.295 385.47 212.324C385.296 212.36 385.127 212.469 384.971 212.602C384.772 212.78 384.658 212.927 384.521 213.134C384.445 213.225 384.387 213.328 384.318 213.43L384.288 213.5C384.261 213.534 384.246 213.569 384.23 213.603C384.22 213.627 384.198 213.648 384.2 213.672L383.607 213.636C383.754 213.299 383.977 212.956 384.236 212.639C384.681 212.119 385.276 211.704 385.903 211.719C386.465 211.742 386.732 212.163 386.784 212.63C386.828 213.001 386.759 213.413 386.594 213.82Z" fill="#2BA167"/>
<path d="M389.862 214.022C389.564 214.848 388.875 215.674 387.938 216.092C387.528 216.281 387.453 215.753 387.859 215.575C388.452 215.303 388.905 214.795 389.156 214.275C389.196 214.182 389.241 214.078 389.27 213.985C389.397 213.636 389.454 213.283 389.396 212.97C389.367 212.813 389.299 212.69 389.185 212.588C389.185 212.588 389.166 212.575 389.159 212.563C389.14 212.55 389.116 212.548 389.11 212.536C389.086 212.535 389.032 212.52 389.032 212.52C388.935 212.49 388.848 212.497 388.737 212.525C388.563 212.561 388.394 212.671 388.238 212.803C388.039 212.981 387.926 213.13 387.788 213.335C387.713 213.426 387.655 213.529 387.586 213.632L387.555 213.702C387.528 213.736 387.513 213.771 387.497 213.805C387.487 213.828 387.466 213.85 387.467 213.874L386.875 213.838C387.021 213.501 387.244 213.159 387.504 212.841C387.95 212.322 388.543 211.906 389.171 211.921C389.733 211.944 390 212.365 390.051 212.832C390.097 213.203 390.026 213.615 389.862 214.022Z" fill="#2BA167"/>
<path d="M393.129 214.221C392.831 215.047 392.143 215.873 391.205 216.291C390.794 216.48 390.72 215.952 391.126 215.775C391.719 215.501 392.172 214.995 392.422 214.474C392.463 214.381 392.508 214.278 392.537 214.184C392.664 213.835 392.721 213.481 392.663 213.169C392.634 213.013 392.566 212.889 392.451 212.787C392.451 212.787 392.432 212.774 392.426 212.762C392.407 212.749 392.383 212.747 392.377 212.735C392.353 212.734 392.299 212.719 392.299 212.719C392.202 212.689 392.114 212.696 392.004 212.724C391.83 212.761 391.661 212.869 391.505 213.003C391.306 213.18 391.193 213.329 391.055 213.534C390.98 213.625 390.922 213.728 390.854 213.832L390.823 213.901C390.797 213.935 390.782 213.97 390.767 214.004C390.757 214.027 390.735 214.05 390.736 214.074L390.144 214.037C390.29 213.701 390.513 213.358 390.773 213.04C391.218 212.52 391.812 212.105 392.439 212.121C393.001 212.143 393.268 212.564 393.319 213.031C393.364 213.403 393.294 213.815 393.129 214.221Z" fill="#2BA167"/>
<path d="M396.397 214.423C396.098 215.249 395.41 216.075 394.473 216.493C394.062 216.682 393.988 216.154 394.393 215.976C394.987 215.703 395.439 215.196 395.69 214.676C395.73 214.583 395.776 214.479 395.805 214.386C395.932 214.037 395.989 213.683 395.931 213.371C395.902 213.214 395.834 213.091 395.719 212.989C395.719 212.989 395.7 212.976 395.694 212.964C395.675 212.951 395.651 212.949 395.645 212.937C395.621 212.936 395.566 212.921 395.566 212.921C395.469 212.892 395.381 212.898 395.272 212.927C395.098 212.964 394.929 213.073 394.773 213.206C394.574 213.383 394.46 213.531 394.322 213.737C394.246 213.828 394.188 213.931 394.12 214.035L394.09 214.104C394.063 214.138 394.048 214.173 394.033 214.207C394.023 214.23 394.002 214.253 394.003 214.277L393.411 214.24C393.557 213.904 393.78 213.561 394.039 213.243C394.484 212.723 395.08 212.309 395.706 212.324C396.268 212.346 396.535 212.767 396.587 213.235C396.631 213.605 396.562 214.017 396.397 214.423Z" fill="#2BA167"/>
<path d="M399.665 214.625C399.367 215.452 398.677 216.277 397.741 216.695C397.33 216.884 397.256 216.356 397.662 216.179C398.255 215.905 398.708 215.399 398.958 214.878C398.999 214.785 399.044 214.682 399.073 214.588C399.2 214.239 399.257 213.885 399.199 213.573C399.17 213.417 399.102 213.293 398.989 213.191C398.989 213.191 398.97 213.178 398.963 213.166C398.945 213.153 398.922 213.151 398.914 213.139C398.89 213.138 398.836 213.123 398.836 213.123C398.739 213.093 398.652 213.1 398.541 213.129C398.367 213.166 398.199 213.274 398.042 213.408C397.843 213.585 397.73 213.734 397.593 213.94C397.517 214.03 397.459 214.134 397.39 214.237L397.359 214.306C397.333 214.34 397.317 214.375 397.301 214.409C397.291 214.433 397.27 214.455 397.271 214.479L396.679 214.442C396.825 214.106 397.048 213.763 397.308 213.446C397.753 212.925 398.347 212.511 398.975 212.526C399.537 212.548 399.804 212.969 399.856 213.437C399.9 213.807 399.829 214.219 399.665 214.625Z" fill="#2BA167"/>
<path d="M397.351 226.671C398.936 231.441 403.636 237.702 403.624 241.439C403.614 244.814 400.71 245.643 400.71 245.643C400.71 245.643 404.159 247.927 403.589 251.316C403.297 253.06 400.253 254.125 400.253 254.125C400.253 254.125 402.936 256.077 402.245 259.059C401.693 261.436 398.727 262.146 398.727 262.146C398.727 262.146 400.429 265.218 399.091 267.458C396.377 272.003 375.593 269.447 373.324 261.395C372.267 257.643 377.309 258.543 377.309 258.543C377.309 258.543 370.37 255.497 370.788 251.198C371.205 246.9 377.686 248.465 377.686 248.465C377.686 248.465 370.988 245.455 371.87 241.042C372.788 236.449 379.004 239.123 379.004 239.123C379.004 239.123 374.768 235.422 376.217 232.199C378.61 226.875 386.505 234.91 391.206 234.388L394.653 227.166L397.351 226.671Z" fill="#F7A9A0"/>
<path d="M400.711 233.731C399.605 229.082 405.785 224.272 405.365 219.674C404.798 213.456 397.251 218.554 394.653 227.165L393.811 234.203L400.711 233.731Z" fill="#F7A9A0"/>
<path d="M398.273 262.326C398.342 262.33 398.352 262.427 398.281 262.436C391.238 263.261 383.25 262.009 377.027 258.526C376.823 258.413 376.92 258.031 377.169 258.114C384.269 260.477 390.76 262.009 398.273 262.326Z" fill="#062335"/>
<path d="M400.347 254.18C400.428 254.183 400.423 254.318 400.336 254.328C393.076 255.138 384.116 253.482 377.416 248.622C377.186 248.455 377.146 248.075 377.426 248.248C382.127 251.141 393.582 253.928 400.347 254.18Z" fill="#062335"/>
<path d="M378.627 238.615C385.232 243.027 392.586 244.876 400.413 245.691C400.515 245.702 400.49 245.845 400.402 245.859C396.465 246.504 391.529 245.465 387.758 244.332C384.146 243.246 381.104 241.541 378.472 238.847C378.37 238.741 378.484 238.521 378.627 238.615Z" fill="#062335"/>
<path d="M556.495 315H73.5009V349.591H556.495V315Z" fill="#136FB7"/>
<path d="M546.985 349.591H83.0118V550.34H546.985V349.591Z" fill="#136FB7"/>
<path d="M546.985 349.591H83.0118V370.793H546.985V349.591Z" fill="#062335"/>
<path d="M206.702 453.038C206.702 452.546 207.118 452.13 207.609 452.13H207.723H215.094C219.252 452.13 222.616 455.532 222.616 459.69C222.616 463.848 219.252 467.213 215.094 467.213L208.554 467.288V477.683C208.554 478.175 208.138 478.59 207.609 478.59C207.118 478.59 206.702 478.175 206.702 477.683V453.038ZM215.092 465.436C218.23 465.398 220.8 462.828 220.8 459.69C220.8 456.553 218.23 453.983 215.092 453.983H208.553V465.436H215.092Z" fill="white"/>
<path d="M247.978 466.268H234.371V477.683C234.371 478.175 233.956 478.59 233.426 478.59C232.935 478.59 232.519 478.175 232.519 477.683V453.038C232.519 452.546 232.935 452.13 233.426 452.13C233.956 452.13 234.371 452.546 234.371 453.038V464.453H247.978V453.038C247.978 452.546 248.394 452.13 248.885 452.13C249.414 452.13 249.83 452.546 249.83 453.038V477.683C249.83 478.175 249.414 478.59 248.885 478.59C248.394 478.59 247.978 478.175 247.978 477.683V466.268Z" fill="white"/>
<path d="M275.12 471.747H263.062L260.718 477.983C260.567 478.362 260.226 478.588 259.848 478.588C259.773 478.588 259.622 478.55 259.508 478.55C259.055 478.362 258.79 477.794 258.979 477.34L268.164 452.809C268.316 452.468 268.694 452.242 269.072 452.242C269.487 452.242 269.865 452.469 269.979 452.809L279.164 477.34C279.353 477.794 279.126 478.361 278.673 478.55C278.522 478.55 278.446 478.588 278.333 478.588C277.992 478.588 277.614 478.361 277.463 477.983L275.12 471.747ZM263.742 469.896H274.439L269.109 455.683L263.742 469.896Z" fill="white"/>
<path d="M301.993 472.616C301.993 470.69 301.01 469.48 299.839 468.61C298.667 467.778 297.268 467.364 296.777 467.287C296.663 467.249 296.626 467.211 296.588 467.211H290.162V477.682C290.162 478.173 289.746 478.589 289.217 478.589C288.725 478.589 288.31 478.173 288.31 477.682V453.036C288.31 452.584 288.688 452.168 289.141 452.129H289.217H289.33H296.701C300.859 452.129 304.223 455.493 304.223 459.689C304.223 462.712 302.447 465.321 299.876 466.531C299.99 466.606 300.103 466.644 300.254 466.718C301.993 467.701 303.808 469.63 303.808 472.615C303.808 474.165 303.959 475.11 304.148 475.678C304.299 476.131 304.488 476.282 304.526 476.321C304.942 476.283 305.395 476.509 305.546 476.924C305.66 477.417 305.433 477.946 304.942 478.134C304.904 478.134 304.715 478.172 304.488 478.172H304.412C303.921 478.172 303.127 477.794 302.711 476.962C302.258 476.094 301.993 474.847 301.993 472.616ZM296.701 453.982H290.162V465.398H296.511H296.851C299.913 465.322 302.408 462.791 302.408 459.691C302.409 456.515 299.839 453.982 296.701 453.982Z" fill="white"/>
<path d="M336.657 455.911L328.189 467.665C328.001 467.968 327.697 468.081 327.433 468.081H327.357C327.017 468.081 326.754 467.968 326.565 467.665L318.096 455.947V477.682C318.096 478.174 317.68 478.59 317.189 478.59C316.66 478.59 316.244 478.174 316.244 477.682V453.188C316.244 452.886 316.395 452.621 316.622 452.47C316.622 452.433 316.66 452.433 316.699 452.394C317.115 452.129 317.68 452.205 317.984 452.621L327.397 465.662L336.772 452.621C337.035 452.205 337.64 452.129 338.057 452.394C338.17 452.507 338.246 452.583 338.322 452.696C338.397 452.848 338.473 453.037 338.473 453.188V477.682C338.473 478.174 338.057 478.59 337.564 478.59C337.035 478.59 336.659 478.174 336.659 477.682V455.911H336.657Z" fill="white"/>
<path d="M363.95 471.747H351.892L349.55 477.983C349.398 478.362 349.057 478.588 348.68 478.588C348.605 478.588 348.453 478.55 348.34 478.55C347.888 478.362 347.623 477.794 347.811 477.34L356.997 452.809C357.147 452.468 357.527 452.242 357.903 452.242C358.319 452.242 358.698 452.469 358.812 452.809L367.996 477.34C368.185 477.794 367.959 478.361 367.505 478.55C367.353 478.55 367.278 478.588 367.163 478.588C366.823 478.588 366.446 478.361 366.295 477.983L363.95 471.747ZM352.571 469.896H363.267L357.939 455.683L352.571 469.896Z" fill="white"/>
<path d="M388.744 451.752C391.995 451.752 394.98 452.885 397.286 454.663C397.702 455.003 397.778 455.646 397.438 455.986C397.136 456.44 396.53 456.479 396.152 456.175C394.111 454.587 391.541 453.605 388.743 453.605C382.128 453.605 376.837 458.782 376.837 465.246C376.837 471.558 382.128 476.737 388.743 476.737C391.541 476.737 394.111 475.83 396.076 474.167C396.528 473.864 397.135 473.94 397.398 474.393C397.777 474.735 397.7 475.415 397.284 475.716C394.979 477.493 391.994 478.589 388.743 478.589C381.146 478.589 374.984 472.617 374.984 465.246C374.985 457.724 381.148 451.79 388.744 451.752Z" fill="white"/>
<path d="M415.584 465.889L406.701 453.757C406.436 453.341 406.512 452.736 406.889 452.47C407.305 452.131 407.911 452.206 408.175 452.621L416.452 463.999L424.768 452.621C425.033 452.206 425.639 452.13 426.055 452.47C426.47 452.735 426.546 453.34 426.244 453.757L417.398 465.814V477.683C417.398 478.174 417.02 478.59 416.491 478.59C416 478.59 415.584 478.174 415.584 477.683V465.889Z" fill="white"/>
<path d="M83.0118 441.129H546.985" stroke="white" stroke-width="1.26" stroke-miterlimit="10"/>
<path d="M83.0118 437.492H546.985" stroke="white" stroke-width="1.26" stroke-miterlimit="10"/>
<path d="M83.0118 493.165H546.985" stroke="white" stroke-width="1.26" stroke-miterlimit="10"/>
<path d="M83.0118 489.526H546.985" stroke="white" stroke-width="1.26" stroke-miterlimit="10"/>
<path d="M318.855 388.413H311.139V421.394H318.855V388.413Z" fill="#E4EFF8"/>
<path d="M331.488 408.762V401.046H298.506V408.762H331.488Z" fill="#E4EFF8"/>
<path d="M539.051 476.716C539.051 476.716 559.076 472.176 570.053 462.064C581.03 451.951 587.162 433.832 587.162 433.832C587.162 433.832 575.374 435.992 564.702 439.731C562.912 441.649 559.498 445.599 557.908 449.339C557.908 449.339 557.57 445.389 557.855 442.471C555 443.787 552.514 445.241 550.724 446.8C541.621 454.763 539.051 476.716 539.051 476.716Z" fill="#2BA167"/>
<path d="M574.654 442.637C577.385 440.747 580.163 438.927 582.882 437.02C583.046 436.905 582.892 436.648 582.717 436.753C577.556 439.835 572.469 443.13 567.548 446.58C565.832 447.783 564.147 449.034 562.481 450.311C562.597 450.113 562.713 449.915 562.83 449.717C563.431 448.712 564.065 447.724 564.698 446.738C565.97 444.758 567.363 442.807 568.949 441.063C569.008 440.998 568.907 440.903 568.851 440.969C567.293 442.767 565.736 444.546 564.311 446.454C563.633 447.361 563.008 448.3 562.408 449.26C562.097 449.757 561.796 450.26 561.509 450.772C561.413 450.942 561.307 451.114 561.209 451.288C558.62 453.322 556.098 455.441 553.692 457.684C552.207 459.068 550.775 460.503 549.391 461.982C550.165 459.559 550.842 457.108 551.74 454.721C551.77 454.639 551.637 454.605 551.608 454.688C550.736 457.19 549.782 459.706 549.108 462.277C547.573 463.934 546.106 465.651 544.724 467.439C544.748 467.331 544.771 467.22 544.796 467.113C545.023 466.169 545.26 465.228 545.512 464.289C545.999 462.477 546.531 460.678 547.142 458.903C548.396 455.264 550.021 451.702 552.522 448.742C552.579 448.675 552.481 448.581 552.424 448.647C548.513 453.278 546.219 458.831 544.754 464.662C544.54 465.515 544.339 466.372 544.143 467.229C544.04 467.682 543.92 468.146 543.844 468.613C543.239 469.431 542.644 470.258 542.076 471.104C538.599 476.279 535.888 481.933 533.602 487.721C531.028 494.241 529.027 500.973 527.184 507.729C527.147 507.861 527.346 507.908 527.389 507.779C531.305 496.061 535.306 484.176 542.01 473.701C543.426 471.49 544.957 469.359 546.583 467.303C549.878 467.118 553.202 466.403 556.321 465.364C559.771 464.213 563.027 462.621 566.081 460.65C567.844 459.512 569.452 458.184 571.083 456.871C571.159 456.81 571.075 456.703 570.998 456.767C568.29 459.058 565.034 460.851 561.819 462.321C558.588 463.796 555.189 464.953 551.716 465.71C550.237 466.033 548.739 466.271 547.238 466.474C549.089 464.193 551.062 462.012 553.144 459.932C553.819 459.257 554.519 458.611 555.214 457.959C557.513 456.279 560.062 454.954 562.616 453.719C565.897 452.134 569.127 450.453 572.375 448.801C574.207 447.869 576.028 446.915 577.875 446.013C577.954 445.974 577.881 445.859 577.803 445.897C574.512 447.487 571.169 448.973 567.846 450.495C564.719 451.927 561.557 453.364 558.555 455.051C558.425 455.124 558.305 455.202 558.177 455.276C560.889 452.915 563.696 450.663 566.57 448.494C569.225 446.493 571.919 444.531 574.654 442.637Z" fill="#062335"/>
<path d="M573.517 452.963C571.888 453.678 570.229 454.31 568.618 455.064C566.96 455.839 565.388 456.746 563.815 457.678C563.745 457.72 563.81 457.816 563.879 457.783C565.475 457.019 567.093 456.304 568.675 455.509C570.294 454.693 571.895 453.823 573.556 453.096C573.635 453.059 573.597 452.927 573.517 452.963Z" fill="#062335"/>
<path d="M473.997 375.796C473.997 375.796 479.619 382.234 479.982 392.428C480.047 394.225 479.764 396.726 479.556 399.669C487.023 403.656 492.624 410.838 492.624 410.838C488.381 408.29 482.559 407.261 479.418 407.676C479.525 409.613 479.754 411.623 480.182 413.661C481.57 413.582 484.247 413.767 488.676 415.341C488.676 415.341 484.33 415.23 481.018 416.863C484.587 428.219 495.198 439.887 524.499 444.841C524.499 444.841 530.151 424.949 519.309 403.609C510.531 386.341 473.997 375.796 473.997 375.796Z" fill="#2BA167"/>
<path d="M534.642 493.438C534.133 488.586 533.495 483.747 532.745 478.927C531.245 469.281 529.303 459.69 526.835 450.244C525.672 445.789 524.278 441.427 522.606 437.174C522.714 436.403 522.698 435.6 522.714 434.828C522.734 433.889 522.739 432.952 522.728 432.013C522.706 430.136 522.618 428.262 522.458 426.392C522.143 422.699 521.58 419 520.658 415.406C520.122 413.32 519.5 411.263 518.887 409.198C518.862 409.114 518.732 409.153 518.756 409.237C519.793 412.809 520.389 416.526 520.92 420.203C521.446 423.846 521.77 427.522 521.904 431.199C521.94 432.206 521.959 433.214 521.961 434.221C521.961 434.646 521.943 435.08 521.927 435.515C520.484 432.027 518.857 428.614 516.99 425.295C514.036 420.046 510.643 415.056 506.96 410.291C506.994 409.748 506.829 409.174 506.72 408.651C506.582 407.996 506.44 407.344 506.294 406.691C505.994 405.351 505.657 404.021 505.294 402.698C504.566 400.043 503.605 397.476 502.774 394.856C502.748 394.772 502.618 394.81 502.643 394.895C503.417 397.49 503.931 400.178 504.526 402.82C504.819 404.127 505.106 405.435 505.394 406.743C505.538 407.396 505.678 408.05 505.812 408.706C505.822 408.752 505.83 408.804 505.839 408.852C504.654 407.357 503.447 405.883 502.211 404.434C496.616 397.873 490.481 391.82 484.307 385.81C483.547 385.072 482.769 384.351 482 383.623C481.935 383.562 481.845 383.658 481.905 383.721C487.806 389.876 493.616 396.103 499.118 402.621C500.426 404.17 501.714 405.737 502.977 407.325C502.312 406.874 501.639 406.435 500.978 406C499.273 404.884 497.547 403.799 495.769 402.802C493.991 401.806 492.199 400.833 490.372 399.927C488.494 398.996 486.485 398.238 484.672 397.183C484.594 397.138 484.527 397.27 484.607 397.303C486.475 398.069 488.22 399.237 489.953 400.264C491.737 401.321 493.516 402.387 495.267 403.497C496.99 404.589 498.721 405.666 500.431 406.778C501.857 407.704 503.26 408.716 504.738 409.571C508.117 413.95 511.293 418.484 514.125 423.233C515.909 426.227 517.522 429.296 518.977 432.435C518.625 432.283 518.272 432.134 517.926 431.979C517.031 431.582 516.138 431.185 515.243 430.788C513.52 430.024 511.789 429.278 510.06 428.525C506.775 427.097 503.436 425.784 500.213 424.215C498.406 423.335 496.627 422.409 494.952 421.293C494.879 421.244 494.815 421.364 494.887 421.413C500.895 425.554 507.631 428.472 514.28 431.415L517.162 432.691C517.954 433.041 518.748 433.433 519.564 433.739C521.526 438.133 523.184 442.658 524.52 447.318C527.187 456.625 529.221 466.133 530.894 475.664C532.575 485.235 533.709 494.869 534.589 504.544C534.699 505.752 534.807 506.958 534.945 508.164C534.999 508.645 535.713 508.645 535.708 508.145C535.658 503.24 535.154 498.319 534.642 493.438Z" fill="#062335"/>
<path d="M516.816 412.519C516.279 409.541 515.486 406.628 514.683 403.712C514.659 403.628 514.53 403.667 514.552 403.751C515.293 406.614 515.823 409.531 516.361 412.438C516.909 415.399 517.394 418.373 517.811 421.356C517.819 421.406 517.897 421.408 517.893 421.353C517.701 418.389 517.344 415.445 516.816 412.519Z" fill="#062335"/>
<path d="M504.188 420.598C502.202 419.192 499.972 418.127 497.816 417.012C496.749 416.46 495.666 415.936 494.585 415.412C493.47 414.873 492.311 414.42 491.205 413.865C491.127 413.826 491.06 413.944 491.139 413.984C492.21 414.522 493.227 415.173 494.28 415.747C495.365 416.339 496.445 416.942 497.534 417.526C499.676 418.677 501.782 419.953 504.032 420.885C504.226 420.966 504.36 420.72 504.188 420.598Z" fill="#062335"/>
<path opacity="0.1" d="M539.415 442.027C539.415 442.027 557.946 437.601 566.455 425.17C574.58 413.298 577.206 393.061 577.414 391.281C577.08 392.912 573.256 410.6 560.64 418.838C550.983 425.152 541.649 430.34 539.415 442.027Z" fill="#062335"/>
<path d="M556.519 410.01C553.258 413.15 550.813 416.843 549.688 421.263C549.677 421.301 549.733 421.321 549.745 421.283C551.138 417.168 553.435 413.114 556.61 410.112C556.673 410.052 556.582 409.95 556.519 410.01Z" fill="#062335"/>
<path d="M539.416 442.028C539.416 442.028 557.947 437.601 566.456 425.17C574.581 413.298 577.207 393.061 577.415 391.281C577.433 391.198 577.437 391.156 577.437 391.156C577.437 391.156 568.551 403.79 559.209 407.011C549.867 410.233 536.737 421.377 539.416 442.028Z" fill="#2BA167"/>
<path d="M574.154 398.124C572.435 401.495 570.633 404.839 568.426 407.919C566.276 410.919 563.685 413.472 560.803 415.763C558.286 417.763 555.624 419.574 553.076 421.534C553.095 421.503 553.114 421.471 553.133 421.442C553.612 420.731 554.123 420.042 554.651 419.368C555.712 418.012 556.873 416.732 558.038 415.467C560.341 412.968 562.691 410.517 564.755 407.814C565.898 406.315 566.902 404.723 567.726 403.027C567.764 402.949 567.636 402.905 567.598 402.983C564.593 409.245 558.589 413.253 554.306 418.542C553.696 419.295 553.12 420.072 552.594 420.885C552.222 421.458 551.768 422.097 551.528 422.768C549.198 424.679 547.043 426.759 545.206 429.159C545.361 427.943 545.626 426.73 545.95 425.562C546.411 423.902 547.013 422.343 547.914 420.87C547.959 420.795 547.845 420.718 547.801 420.794C546.934 422.256 546.144 423.831 545.64 425.457C545.23 426.778 545.039 428.102 544.966 429.459C544.963 429.463 544.959 429.467 544.956 429.472C544.031 430.713 543.209 432.021 542.452 433.365C542.529 432.969 542.604 432.574 542.683 432.178C543.05 430.332 543.457 428.49 543.936 426.669C544.909 422.978 546.221 419.397 548.394 416.229C548.443 416.156 548.33 416.082 548.281 416.153C546.136 419.278 544.511 422.767 543.343 426.367C542.752 428.185 542.279 430.035 541.864 431.9C541.661 432.812 541.477 433.727 541.302 434.644C541.211 435.118 541.109 435.604 541.032 436.092C539.138 440.095 537.808 444.388 536.758 448.654C534.868 456.334 533.69 464.231 532.807 472.085C531.879 480.33 531.394 488.665 531.529 496.964C531.545 498.006 531.607 499.046 531.665 500.087C531.68 500.355 532.081 500.395 532.094 500.112C532.275 496.001 532.382 491.886 532.625 487.777C532.868 483.663 533.226 479.562 533.667 475.465C534.532 467.428 535.779 459.402 537.529 451.508C539.031 444.733 540.98 437.914 544.682 431.978C546.538 429.002 548.758 426.37 551.368 424.027C553.966 421.695 556.807 419.651 559.546 417.492C562.271 415.343 564.89 413.004 567.051 410.278C569.382 407.336 571.218 404.036 572.945 400.713C573.382 399.873 573.831 399.039 574.273 398.202C574.307 398.122 574.193 398.046 574.154 398.124Z" fill="#062335"/>
<path d="M570.953 400.842C569.765 403.349 568.335 405.734 566.825 408.06C566.789 408.116 566.873 408.17 566.911 408.117C568.525 405.84 569.87 403.396 571.083 400.886C571.121 400.806 570.991 400.762 570.953 400.842Z" fill="#062335"/>
<path d="M471.413 433.831C471.413 433.831 471.12 460.165 486.866 467.767C502.611 475.378 511.054 469.037 521.753 471.583C521.753 471.583 521.743 471.582 521.734 471.569C521.319 470.942 513.683 459.965 501.537 456.943C489.045 453.83 475.201 444.804 471.413 433.831Z" fill="#2BA167"/>
<path opacity="0.1" d="M471.413 433.831C471.413 433.831 471.12 460.165 486.866 467.767C502.611 475.378 511.054 469.037 521.753 471.583C521.753 471.583 521.743 471.582 521.734 471.569C521.29 471.354 513.478 467.445 503.832 466.289C493.904 465.094 474.936 458.624 471.413 433.831Z" fill="#062335"/>
<path d="M522.79 472.053C520.911 470.361 518.81 468.906 516.526 467.812C516.189 467.651 515.841 467.519 515.498 467.374C515.332 467.163 515.156 466.963 514.97 466.769C514.498 466.276 514.006 465.805 513.489 465.362C512.499 464.514 511.445 463.737 510.321 463.076C507.713 461.542 504.854 460.469 502.186 459.044C502.11 459.002 502.043 459.123 502.121 459.164C503.439 459.848 504.715 460.604 505.998 461.352C507.245 462.081 508.522 462.775 509.736 463.558C510.826 464.263 511.876 465.04 512.852 465.895C513.129 466.136 513.395 466.4 513.661 466.668C511.925 466.073 510.14 465.619 508.34 465.254C505.457 464.672 502.542 464.259 499.666 463.645C498.251 463.344 496.858 462.968 495.488 462.518C494.182 461.466 492.878 460.42 491.64 459.28C490.146 457.902 488.774 456.404 487.57 454.766C487.519 454.696 487.4 454.769 487.454 454.838C489.397 457.345 491.481 459.873 493.909 461.961C493.232 461.702 492.559 461.428 491.896 461.125C486.546 458.695 481.786 454.834 478.478 449.963C478.429 449.891 478.312 449.962 478.362 450.035C481.245 454.208 484.903 457.78 489.217 460.455C491.379 461.796 493.661 462.894 496.075 463.701C498.851 464.628 501.728 465.178 504.598 465.716C507.408 466.242 510.23 466.779 512.943 467.701C515.454 468.554 517.818 469.792 519.942 471.383C523.994 474.418 527.129 478.573 529.377 483.083C532.357 489.062 533.782 495.745 534.573 502.337C534.607 502.62 535.043 502.62 535.023 502.326C534.281 491.258 531.323 479.741 522.79 472.053Z" fill="#062335"/>
<path d="M504.516 463.467C503.73 462.211 502.55 461.267 501.279 460.532C499.792 459.673 498.458 458.747 497.429 457.347C497.377 457.277 497.26 457.35 497.313 457.419C498.264 458.641 499.403 459.643 500.712 460.463C502.087 461.325 503.473 462.169 504.417 463.527C504.461 463.588 504.556 463.53 504.516 463.467Z" fill="#062335"/>
<path d="M512.868 491.489L513.585 505.972L515.781 550.214H548.813L551.009 505.972L551.726 491.489H512.868Z" fill="#0B4E94"/>
<path d="M512.868 491.489L513.585 505.972H551.009L551.726 491.489H512.868Z" fill="#062335"/>
<path d="M510.554 499.26H554.042V485.445H510.554V499.26Z" fill="#0B4E94"/>
<path d="M411.215 315.002H351.075V310.331L411.215 308.387V315.002Z" fill="#0B4E94"/>
<path d="M458.477 314.923C458.477 314.923 422.192 314.923 418.805 314.923C415.418 314.923 420.318 305.282 432.674 301.583C445.03 297.885 462.374 311.307 458.477 314.923Z" fill="#136FB7"/>
<path d="M442.91 314.923C442.786 313.809 442.929 312.685 443.202 311.601C443.473 310.513 443.925 309.468 444.497 308.49C445.077 307.516 445.831 306.637 446.709 305.918C447.563 305.169 448.62 304.675 449.681 304.374C448.862 305.144 448.054 305.808 447.392 306.626C446.723 307.422 446.088 308.238 445.576 309.142C444.492 310.916 443.692 312.851 442.91 314.923Z" fill="#062335"/>
<path d="M447.611 305.75C448.846 305.981 450.022 306.405 451.16 306.912C452.302 307.416 453.384 308.05 454.419 308.767C455.443 309.494 456.403 310.352 457.182 311.378C457.949 312.382 458.58 313.642 458.478 314.922C458.05 313.738 457.275 312.847 456.442 312.026C455.59 311.22 454.676 310.467 453.688 309.793C451.745 308.396 449.67 307.162 447.611 305.75Z" fill="#062335"/>
<path d="M486.949 296.26H390.504L405.842 224.46H502.287L486.949 296.26Z" fill="#0B4E94"/>
<path d="M490.516 296.26H394.072L409.409 224.46H505.854L490.516 296.26Z" fill="#136FB7"/>
<path d="M438.498 270.516H436.237L439.671 254.408H441.932L438.498 270.516Z" fill="#062335"/>
<path d="M442.961 270.516H440.7L444.134 254.408H446.394L442.961 270.516Z" fill="#062335"/>
<path d="M447.424 270.516H445.162L448.597 254.408H450.857L447.424 270.516Z" fill="#062335"/>
<path d="M451.886 270.516H449.625L453.06 254.408H455.321L451.886 270.516Z" fill="#062335"/>
<path d="M456.349 270.516H454.088L457.521 254.408H459.783L456.349 270.516Z" fill="#062335"/>
<path d="M460.812 270.516H458.551L461.984 254.408H464.246L460.812 270.516Z" fill="#062335"/>
<path d="M465.275 270.516H463.013L466.447 254.408H468.708L465.275 270.516Z" fill="#062335"/>
<path d="M463.24 315.012H415.806V311.328L463.24 309.794V315.012Z" fill="#0B4E94"/>
<path d="M476.136 315.007H450.668L435.33 274.774H460.798L476.136 315.007Z" fill="#0B4E94"/>
<path d="M480.328 315.007H454.859L439.523 274.774H464.99L480.328 315.007Z" fill="#062335"/>
</svg>
