<svg width="40" height="41" viewBox="0 0 40 41" fill="none" xmlns="http://www.w3.org/2000/svg">
<path d="M9.23246 33.4684C9.23246 32.944 9.25486 32.4106 9.22685 31.8806C9.19436 31.2756 8.88398 30.8038 8.43353 30.4072C7.04746 29.1836 5.68155 27.9387 4.28427 26.7285C3.58059 26.119 3.13799 25.3929 2.90157 24.4875C2.00067 21.0374 1.07065 17.5952 0.137259 14.153C-0.212341 12.8622 0.0969216 11.8123 1.16813 10.9898C1.26562 10.9159 1.32724 10.7377 1.32948 10.6066C1.35974 9.21492 2.26624 8.08992 3.54474 7.88039C4.88039 7.66077 6.16001 8.47426 6.61606 9.80543C7.56849 12.5832 8.52989 15.3564 9.50026 18.1286C9.55404 18.281 9.68962 18.439 9.82969 18.5219C11.7065 19.6357 13.5924 20.736 15.4737 21.842C17.6004 23.0925 18.6593 24.9525 18.6571 27.4199C18.6548 29.4368 18.6571 31.4526 18.6571 33.4606C19.2487 33.7093 19.3294 33.8258 19.3294 34.4388C19.3305 36.0781 19.3305 37.7163 19.3294 39.3556C19.3283 40.0133 19.1053 40.2374 18.4464 40.2374C15.4491 40.2385 12.4528 40.2385 9.45544 40.2374C8.79434 40.2374 8.57023 40.0155 8.57023 39.3589C8.56799 37.7196 8.56911 36.0814 8.57023 34.4421C8.56687 33.8247 8.64755 33.7059 9.23246 33.4684ZM17.3091 33.4919C17.3091 33.3776 17.3091 33.2835 17.3091 33.1894C17.3091 31.1848 17.3304 29.1813 17.3024 27.1778C17.2788 25.4567 16.5191 24.1121 15.0714 23.1743C14.6255 22.8852 14.1582 22.6297 13.6988 22.3608C12.1772 21.4688 10.6577 20.5735 9.13161 19.6883C8.31924 19.2177 7.41274 19.5113 7.11469 20.3248C6.87154 20.9859 7.11245 21.6179 7.77131 22.0022C9.00387 22.7216 10.2443 23.4286 11.4757 24.1525C11.8612 24.3788 11.9609 24.7407 11.7727 25.0802C11.5855 25.4175 11.2023 25.5341 10.8303 25.3212C9.50586 24.5637 8.17469 23.8174 6.8749 23.0185C5.90453 22.4224 5.39807 21.2122 5.78688 20.1702C6.05469 19.4519 5.94151 18.8569 5.69948 18.2115C5.57622 17.8843 5.47874 17.5482 5.37117 17.2154C4.91176 15.7912 4.45459 14.3659 3.99182 12.9429C3.77556 12.2784 3.23211 11.8829 2.58109 11.8974C2.02196 11.9097 1.49756 12.312 1.38663 12.8958C1.33173 13.1849 1.36086 13.5132 1.43706 13.8012C2.36708 17.3028 3.31727 20.7999 4.25066 24.3004C4.3896 24.8214 4.64396 25.245 5.04622 25.6002C6.46479 26.8518 7.86655 28.1224 9.2896 29.3673C10.1692 30.1371 10.6096 31.0828 10.5838 32.2504C10.5748 32.6639 10.5827 33.0785 10.5827 33.4919C12.8517 33.4919 15.0602 33.4919 17.3091 33.4919ZM17.9512 38.876C17.9512 37.5213 17.9512 36.2002 17.9512 34.8914C15.2563 34.8914 12.5906 34.8914 9.93278 34.8914C9.93278 36.2361 9.93278 37.5471 9.93278 38.876C12.6108 38.876 15.2664 38.876 17.9512 38.876ZM2.7122 10.5259C4.18455 10.6817 5.04622 11.5265 5.40366 12.9395C5.48546 13.2633 5.6076 13.5782 5.71181 13.8964C6.19363 15.3822 6.67545 16.8691 7.16175 18.3673C7.47437 18.272 7.7601 18.1857 8.05368 18.0972C7.59427 16.7683 7.1483 15.4752 6.70122 14.1821C6.24517 12.8622 5.79137 11.5422 5.33196 10.2234C5.08769 9.52194 4.40193 9.09502 3.73298 9.2194C3.13687 9.32921 2.69875 9.88386 2.7122 10.5259Z" fill="#FEFEFE"/>
<path d="M30.7597 33.4739C31.3379 33.6947 31.4309 33.8258 31.432 34.4129C31.4332 36.0657 31.4343 37.7184 31.432 39.3723C31.4309 40.0054 31.2023 40.2385 30.576 40.2396C27.5652 40.2418 24.5544 40.2418 21.5424 40.2396C20.8925 40.2396 20.6729 40.0121 20.6718 39.3454C20.6707 37.7341 20.6807 36.124 20.6662 34.5127C20.6617 33.9995 20.748 33.586 21.3441 33.493C21.3441 31.4436 21.3463 29.4267 21.3441 27.4097C21.3407 24.9401 22.4097 23.0857 24.5364 21.8385C26.383 20.7561 28.2352 19.6816 30.0729 18.5846C30.2656 18.4692 30.4494 18.2507 30.5244 18.0389C31.5038 15.2712 32.4618 12.4957 33.4266 9.72245C33.8759 8.4305 35.1544 7.65735 36.4631 7.88257C37.7316 8.10107 38.6437 9.22495 38.6728 10.5752C38.6762 10.7276 38.758 10.9304 38.8734 11.0222C39.8729 11.8189 40.2113 12.8106 39.8729 14.0812C39.0919 17.0136 38.3064 19.9449 37.5243 22.8761C37.3696 23.4566 37.206 24.0359 37.0637 24.6197C36.8721 25.4074 36.4732 26.0573 35.8626 26.5929C34.4843 27.803 33.1341 29.0468 31.7402 30.239C31.0466 30.8318 30.6869 31.5209 30.7575 32.4364C30.781 32.7714 30.7597 33.1087 30.7597 33.4739ZM29.4151 33.5042C29.4151 33.0347 29.4185 32.6033 29.414 32.1719C29.4039 31.0525 29.8297 30.1382 30.6701 29.3998C32.101 28.1414 33.5173 26.8674 34.946 25.6068C35.3482 25.2516 35.6071 24.8303 35.746 24.3082C36.6828 20.7797 37.6352 17.2545 38.5776 13.726C38.8061 12.8722 38.4532 12.1607 37.7103 11.9388C37.0032 11.727 36.2559 12.1775 35.9959 12.9775C35.3404 15.0001 34.6815 17.0215 34.0428 19.0496C33.9835 19.2378 34.0036 19.4922 34.0809 19.6748C34.5908 20.8771 34.2726 22.2778 33.1935 22.9647C31.8724 23.805 30.4953 24.5592 29.1339 25.3368C28.7854 25.5351 28.4112 25.4085 28.2285 25.0847C28.0447 24.7597 28.1411 24.4056 28.4806 24.1737C28.5501 24.1266 28.6252 24.0874 28.698 24.046C29.8499 23.3815 31.0007 22.7148 32.1537 22.0537C32.5604 21.8206 32.8809 21.5214 32.9481 21.034C33.0232 20.4928 32.8697 20.0289 32.408 19.7085C31.9217 19.3701 31.4108 19.3712 30.9065 19.6659C28.9725 20.7954 27.0374 21.9237 25.1112 23.0644C23.5067 24.0146 22.7021 25.4388 22.6932 27.2999C22.6831 29.2339 22.6909 31.1679 22.6909 33.1019C22.6909 33.2342 22.6909 33.3675 22.6909 33.5053C24.9544 33.5042 27.1528 33.5042 29.4151 33.5042ZM22.0466 34.8768C22.0466 36.2304 22.0466 37.5515 22.0466 38.8614C24.7415 38.8614 27.4061 38.8614 30.065 38.8614C30.065 37.5168 30.065 36.2058 30.065 34.8768C27.3881 34.8768 24.7325 34.8768 22.0466 34.8768ZM37.2968 10.5236C37.2789 9.85468 36.8452 9.32243 36.2514 9.21822C35.5813 9.10057 34.928 9.50283 34.686 10.1987C34.0428 12.0453 33.4053 13.8941 32.7643 15.7418C32.4921 16.5262 32.2198 17.3106 31.9419 18.1084C32.2646 18.2002 32.5414 18.2776 32.8405 18.3627C33.4535 16.4713 34.0787 14.6045 34.6591 12.7243C35.0625 11.4155 35.904 10.6783 37.2968 10.5236Z" fill="#FEFEFE"/>
<path d="M20.0027 1.97396C21.0661 0.955415 22.2919 0.341373 23.7139 0.0926198C27.4429 -0.559518 31.1529 2.31572 31.4431 6.08624C31.6101 8.24435 30.9299 10.0786 29.4049 11.6048C26.495 14.517 23.5839 17.4292 20.6717 20.3403C20.1405 20.8714 19.8604 20.8725 19.3338 20.3447C16.3633 17.3732 13.3704 14.4251 10.4313 11.4232C7.24905 8.17375 8.15778 2.8121 12.1995 0.742519C14.6187 -0.496767 17.6138 -0.124756 19.6554 1.66806C19.7596 1.75882 19.8638 1.8507 20.0027 1.97396ZM19.9657 19.1043C20.0643 19.0248 20.1092 18.9945 20.1484 18.9564C22.9799 16.1227 25.8316 13.3091 28.6363 10.4484C30.6823 8.36088 30.6218 5.00607 28.569 2.94432C26.4983 0.864654 23.1693 0.828796 21.0325 2.86252C20.8599 3.02612 20.6974 3.20092 20.5226 3.36339C20.1753 3.6861 19.8279 3.68946 19.485 3.37012C19.2901 3.18971 19.1097 2.99251 18.9158 2.81098C17.16 1.16383 14.5077 0.889306 12.4639 2.1398C9.42844 3.99761 8.97352 8.06058 11.5249 10.6266C13.8354 12.9505 16.1594 15.2632 18.4755 17.5827C18.9674 18.0757 19.4525 18.5788 19.9657 19.1043Z" fill="#FEFEFE"/>
<path d="M22.0162 11.3138C22.0162 11.9827 22.0207 12.5968 22.0151 13.2108C22.0095 13.7565 21.7641 13.9997 21.2128 14.003C20.4004 14.0086 19.5881 14.0086 18.7768 14.003C18.23 13.9985 17.988 13.7531 17.9835 13.203C17.9779 12.59 17.9824 11.976 17.9824 11.3138C17.3526 11.3138 16.7554 11.316 16.1593 11.3127C15.5251 11.3104 15.2954 11.0841 15.2931 10.4566C15.2898 9.68681 15.2909 8.91589 15.2931 8.1461C15.2954 7.51077 15.5206 7.28107 16.1458 7.27771C16.7442 7.27434 17.3426 7.27658 17.9824 7.27658C17.9824 6.63901 17.9801 6.04066 17.9835 5.44343C17.9868 4.81482 18.2143 4.58848 18.8485 4.58736C19.6329 4.58512 20.4172 4.58288 21.2005 4.58848C21.7753 4.59184 22.0128 4.83163 22.0173 5.40869C22.0218 6.0104 22.0185 6.61212 22.0185 7.27771C22.6146 7.27771 23.1961 7.27659 23.7777 7.27771C24.497 7.27883 24.7077 7.48612 24.7088 8.1954C24.7099 8.93718 24.711 9.68008 24.7088 10.4219C24.7066 11.0852 24.4858 11.3104 23.8348 11.3127C23.2454 11.316 22.6594 11.3138 22.0162 11.3138ZM16.6568 9.96805C17.272 9.96805 17.8569 9.96693 18.4418 9.96805C19.1018 9.97029 19.3236 10.191 19.3259 10.8465C19.3281 11.4426 19.3259 12.0388 19.3259 12.6259C19.8077 12.6259 20.2324 12.6259 20.6705 12.6259C20.6705 12.0063 20.6682 11.4191 20.6716 10.832C20.675 10.1989 20.9002 9.97141 21.5277 9.96805C22.1249 9.96469 22.7233 9.96693 23.3362 9.96693C23.3362 9.50192 23.3362 9.07725 23.3362 8.6212C22.7266 8.6212 22.1417 8.62232 21.5568 8.6212C20.8968 8.61896 20.6738 8.39822 20.6716 7.74384C20.6694 7.14773 20.6716 6.55161 20.6716 5.96334C20.1909 5.96334 19.7662 5.96334 19.327 5.96334C19.327 6.58299 19.3292 7.17014 19.3259 7.75616C19.3225 8.38813 19.095 8.61784 18.4687 8.62008C17.8714 8.62344 17.2731 8.6212 16.6568 8.6212C16.6568 9.07837 16.6568 9.49295 16.6568 9.96805Z" fill="#FEFEFE"/>
</svg>
