<svg width="139" height="13" viewBox="0 0 139 13" fill="none" xmlns="http://www.w3.org/2000/svg">
<path d="M0.0113636 0.983753H3.04545L6.25 8.80194H6.38636L9.59091 0.983753H12.625V12.6201H10.2386V5.04625H10.142L7.13068 12.5633H5.50568L2.49432 5.01784H2.39773V12.6201H0.0113636V0.983753ZM14.652 12.6201V0.983753H22.4929V3.01216H17.1122V5.78489H22.0895V7.8133H17.1122V10.5917H22.5156V12.6201H14.652ZM28.5739 12.6201H24.4489V0.983753H28.608C29.7784 0.983753 30.786 1.21671 31.6307 1.68262C32.4754 2.14474 33.125 2.80951 33.5795 3.67694C34.0379 4.54436 34.267 5.58224 34.267 6.79057C34.267 8.00269 34.0379 9.04436 33.5795 9.91557C33.125 10.7868 32.4716 11.4553 31.6193 11.9213C30.7708 12.3872 29.7557 12.6201 28.5739 12.6201ZM26.9091 10.5122H28.4716C29.1989 10.5122 29.8106 10.3834 30.3068 10.1258C30.8068 9.86444 31.1818 9.46103 31.4318 8.91557C31.6856 8.36633 31.8125 7.658 31.8125 6.79057C31.8125 5.93072 31.6856 5.22807 31.4318 4.68262C31.1818 4.13716 30.8087 3.73565 30.3125 3.47807C29.8163 3.2205 29.2045 3.09171 28.4773 3.09171H26.9091V10.5122ZM38.5497 0.983753V12.6201H36.0895V0.983753H38.5497ZM50.8409 5.05762H48.3523C48.3068 4.73565 48.214 4.44966 48.0739 4.19966C47.9337 3.94587 47.7538 3.72997 47.5341 3.55194C47.3144 3.3739 47.0606 3.23754 46.7727 3.14284C46.4886 3.04815 46.1799 3.0008 45.8466 3.0008C45.2443 3.0008 44.7197 3.15042 44.2727 3.44966C43.8258 3.74512 43.4792 4.17694 43.233 4.74512C42.9867 5.30951 42.8636 5.99512 42.8636 6.80194C42.8636 7.63148 42.9867 8.32845 43.233 8.89284C43.483 9.45724 43.8314 9.88337 44.2784 10.1713C44.7254 10.4591 45.2424 10.6031 45.8295 10.6031C46.1591 10.6031 46.464 10.5595 46.7443 10.4724C47.0284 10.3853 47.2803 10.2584 47.5 10.0917C47.7197 9.92125 47.9015 9.71481 48.0455 9.47239C48.1932 9.22997 48.2955 8.95345 48.3523 8.64284L50.8409 8.65421C50.7765 9.1883 50.6155 9.70345 50.358 10.1997C50.1042 10.6921 49.7614 11.1334 49.3295 11.5235C48.9015 11.9099 48.3902 12.2167 47.7955 12.444C47.2045 12.6675 46.536 12.7792 45.7898 12.7792C44.7519 12.7792 43.8239 12.5444 43.0057 12.0747C42.1913 11.605 41.5473 10.925 41.0739 10.0349C40.6042 9.14474 40.3693 8.06709 40.3693 6.80194C40.3693 5.533 40.608 4.45345 41.0852 3.5633C41.5625 2.67315 42.2102 1.99512 43.0284 1.52921C43.8466 1.05951 44.767 0.824662 45.7898 0.824662C46.464 0.824662 47.089 0.919359 47.6648 1.10875C48.2443 1.29815 48.7576 1.57466 49.2045 1.9383C49.6515 2.29815 50.0152 2.73943 50.2955 3.26216C50.5795 3.78489 50.7614 4.38337 50.8409 5.05762ZM54.392 12.6201H51.7557L55.7727 0.983753H58.9432L62.9545 12.6201H60.3182L57.4034 3.64284H57.3125L54.392 12.6201ZM54.2273 8.04625H60.4545V9.96671H54.2273V8.04625ZM64.3551 12.6201V0.983753H66.8153V10.5917H71.804V12.6201H64.3551ZM77.1364 12.6201V0.983753H84.9773V3.01216H79.5966V5.78489H84.5739V7.8133H79.5966V10.5917H85V12.6201H77.1364ZM89.2401 0.983753L91.5866 4.94966H91.6776L94.0355 0.983753H96.8139L93.2628 6.80194L96.8935 12.6201H94.0639L91.6776 8.64853H91.5866L89.2003 12.6201H86.3821L90.0241 6.80194L86.4503 0.983753H89.2401ZM98.3707 12.6201V0.983753H102.962C103.844 0.983753 104.596 1.15231 105.217 1.48944C105.839 1.82277 106.312 2.28678 106.638 2.88148C106.967 3.47239 107.132 4.15421 107.132 4.92694C107.132 5.69966 106.965 6.38148 106.632 6.97239C106.299 7.5633 105.816 8.02353 105.183 8.35307C104.554 8.68262 103.793 8.84739 102.899 8.84739H99.973V6.8758H102.501C102.975 6.8758 103.365 6.79436 103.672 6.63148C103.982 6.46481 104.214 6.23565 104.365 5.94398C104.52 5.64853 104.598 5.30951 104.598 4.92694C104.598 4.54057 104.52 4.20345 104.365 3.91557C104.214 3.6239 103.982 3.39853 103.672 3.23944C103.361 3.07656 102.967 2.99512 102.49 2.99512H100.831V12.6201H98.3707ZM108.73 12.6201V0.983753H116.571V3.01216H111.19V5.78489H116.168V7.8133H111.19V10.5917H116.594V12.6201H108.73ZM118.527 12.6201V0.983753H123.118C123.997 0.983753 124.747 1.14095 125.368 1.45534C125.993 1.76595 126.468 2.20724 126.794 2.77921C127.124 3.34739 127.288 4.01595 127.288 4.78489C127.288 5.55762 127.122 6.22239 126.788 6.77921C126.455 7.33224 125.972 7.75648 125.339 8.05194C124.711 8.34739 123.949 8.49512 123.055 8.49512H119.982V6.51784H122.658C123.127 6.51784 123.518 6.45345 123.828 6.32466C124.139 6.19587 124.37 6.00269 124.521 5.74512C124.677 5.48754 124.754 5.16747 124.754 4.78489C124.754 4.39853 124.677 4.07277 124.521 3.80762C124.37 3.54247 124.137 3.34171 123.822 3.20534C123.512 3.06519 123.12 2.99512 122.646 2.99512H120.987V12.6201H118.527ZM124.811 7.32466L127.703 12.6201H124.987L122.158 7.32466H124.811ZM128.584 3.01216V0.983753H138.141V3.01216H134.578V12.6201H132.146V3.01216H128.584Z" fill="#FEFEFE"/>
</svg>
